<svg width="50" height="50" viewBox="0 0 50 50" fill="none" xmlns="http://www.w3.org/2000/svg">
<path d="M36.4583 43.75L30.6875 41.4375C27.7083 40.25 24.375 40.25 21.3959 41.4375L15.625 43.75L18.4794 33.7084C18.7294 33.7501 18.9583 33.7708 19.2083 33.7916C19.3541 33.7916 19.4999 33.8125 19.6665 33.8125H20.2291L20.6456 34.2293C22.0831 35.6668 24 36.4583 26.0417 36.4583C28.0833 36.4583 30.0002 35.6668 31.4377 34.2293L31.8542 33.8125H32.4168C32.5835 33.8125 32.7292 33.7916 32.8751 33.7916C33.1251 33.7708 33.3539 33.7501 33.6039 33.7084L36.4583 43.75ZM38.2624 22.9813L37.5982 23.6458C37.1752 24.0687 36.9375 24.6437 36.9375 25.2416V26.1749C36.9375 28.5978 35.0227 30.5604 32.6248 30.6666C32.5581 30.6687 32.4937 30.6875 32.4249 30.6875H31.4916C30.8937 30.6875 30.3189 30.925 29.896 31.3479L29.2313 32.0124C27.4688 33.7749 24.6125 33.7749 22.8521 32.0124L22.1873 31.3479C21.7644 30.925 21.1896 30.6875 20.5917 30.6875H19.6584C19.5897 30.6875 19.5273 30.6708 19.4585 30.6666C17.0606 30.5604 15.1459 28.5978 15.1459 26.1749V25.2416C15.1459 24.6437 14.9081 24.0687 14.4852 23.6458L13.8209 22.9813C12.0584 21.2188 12.0584 18.3625 13.8209 16.6021L14.4852 15.9375C14.9081 15.5146 15.1459 14.9396 15.1459 14.3417V13.4084C15.1459 10.9167 17.1647 8.89587 19.6564 8.89587H20.5897C21.1876 8.89587 21.7623 8.65834 22.1853 8.23542L22.85 7.5709C24.6125 5.8084 27.4688 5.8084 29.2292 7.5709L29.894 8.23542C30.3169 8.65834 30.8916 8.89587 31.4896 8.89587H32.4229C34.9146 8.89587 36.9334 10.9147 36.9334 13.4084V14.3417C36.9334 14.9396 37.1707 15.5146 37.5936 15.9375L38.2584 16.6021C40.0229 18.3625 40.0228 21.2208 38.2624 22.9813ZM31.3126 15.9083C30.7021 15.2979 29.7125 15.2979 29.1021 15.9083L24.6501 20.3603L22.9772 18.6874C22.3689 18.0791 21.3792 18.0749 20.7667 18.6874C20.1563 19.2958 20.1563 20.2875 20.7667 20.8979L23.5438 23.675C23.8375 23.9688 24.2334 24.1333 24.648 24.1333C25.0626 24.1333 25.4606 23.9688 25.7523 23.675L31.3085 18.1188C31.9231 17.5084 31.923 16.5187 31.3126 15.9083Z" fill="white"/>
</svg>
