<svg width="25" height="24" viewBox="0 0 25 24" fill="none" xmlns="http://www.w3.org/2000/svg">
<path d="M18.5 3.75H17.25V3C17.25 2.586 16.914 2.25 16.5 2.25C16.086 2.25 15.75 2.586 15.75 3V3.75H9.25V3C9.25 2.586 8.914 2.25 8.5 2.25C8.086 2.25 7.75 2.586 7.75 3V3.75H6.5C4.082 3.75 2.75 5.082 2.75 7.5V18C2.75 20.418 4.082 21.75 6.5 21.75H18.5C20.918 21.75 22.25 20.418 22.25 18V7.5C22.25 5.082 20.918 3.75 18.5 3.75ZM6.5 5.25H7.75V6C7.75 6.414 8.086 6.75 8.5 6.75C8.914 6.75 9.25 6.414 9.25 6V5.25H15.75V6C15.75 6.414 16.086 6.75 16.5 6.75C16.914 6.75 17.25 6.414 17.25 6V5.25H18.5C20.077 5.25 20.75 5.923 20.75 7.5V8.25H4.25V7.5C4.25 5.923 4.923 5.25 6.5 5.25ZM18.5 20.25H6.5C4.923 20.25 4.25 19.577 4.25 18V9.75H20.75V18C20.75 19.577 20.077 20.25 18.5 20.25ZM9.52002 13C9.52002 13.552 9.07302 14 8.52002 14C7.96802 14 7.51489 13.552 7.51489 13C7.51489 12.448 7.95801 12 8.51001 12H8.52002C9.07202 12 9.52002 12.448 9.52002 13ZM13.52 13C13.52 13.552 13.073 14 12.52 14C11.968 14 11.5149 13.552 11.5149 13C11.5149 12.448 11.958 12 12.51 12H12.52C13.072 12 13.52 12.448 13.52 13ZM17.52 13C17.52 13.552 17.073 14 16.52 14C15.968 14 15.5149 13.552 15.5149 13C15.5149 12.448 15.958 12 16.51 12H16.52C17.072 12 17.52 12.448 17.52 13ZM9.52002 17C9.52002 17.552 9.07302 18 8.52002 18C7.96802 18 7.51489 17.552 7.51489 17C7.51489 16.448 7.95801 16 8.51001 16H8.52002C9.07202 16 9.52002 16.448 9.52002 17ZM13.52 17C13.52 17.552 13.073 18 12.52 18C11.968 18 11.5149 17.552 11.5149 17C11.5149 16.448 11.958 16 12.51 16H12.52C13.072 16 13.52 16.448 13.52 17ZM17.52 17C17.52 17.552 17.073 18 16.52 18C15.968 18 15.5149 17.552 15.5149 17C15.5149 16.448 15.958 16 16.51 16H16.52C17.072 16 17.52 16.448 17.52 17Z" fill="#F9FAFB"/>
</svg>
