<svg width="25" height="24" viewBox="0 0 25 24" fill="none" xmlns="http://www.w3.org/2000/svg">
<path d="M4.5049 21.749C4.0479 21.749 3.60408 21.569 3.26809 21.233C2.79408 20.76 2.63108 20.073 2.84108 19.441L3.6819 16.94C3.7799 16.633 3.77102 16.325 3.65602 16.082C3.06402 14.809 2.75392 13.399 2.75392 11.999C2.75392 6.62402 7.12697 2.25 12.502 2.25C12.872 2.25 13.2321 2.272 13.5921 2.315C14.0041 2.365 14.2961 2.73902 14.2461 3.15002C14.1971 3.56102 13.8101 3.85302 13.4121 3.80402C13.1111 3.76702 12.811 3.74902 12.502 3.74902C7.95397 3.74902 4.25392 7.44899 4.25392 11.998C4.25392 13.181 4.51693 14.372 5.01393 15.442C5.28993 16.023 5.32591 16.722 5.10891 17.405L4.26491 19.916C4.22291 20.041 4.28712 20.13 4.32912 20.172C4.37112 20.214 4.46096 20.278 4.58596 20.236L7.084 19.397C7.778 19.176 8.47794 19.21 9.06594 19.491C10.1279 19.985 11.319 20.248 12.502 20.248C17.051 20.248 20.751 16.548 20.751 11.999C20.751 11.69 20.733 11.39 20.697 11.089C20.647 10.678 20.9391 10.304 21.3511 10.254C21.7541 10.205 22.1351 10.497 22.1851 10.908C22.2291 11.268 22.25 11.627 22.25 11.998C22.25 17.373 17.877 21.747 12.501 21.747C11.102 21.747 9.69204 21.436 8.42604 20.847C8.17804 20.728 7.86904 20.72 7.55104 20.821L5.06203 21.657C4.87803 21.719 4.6899 21.749 4.5049 21.749ZM22.25 5C22.25 3.484 21.017 2.25 19.5 2.25C17.983 2.25 16.75 3.484 16.75 5C16.75 6.516 17.983 7.75 19.5 7.75C21.017 7.75 22.25 6.516 22.25 5ZM20.75 5C20.75 5.689 20.189 6.25 19.5 6.25C18.811 6.25 18.25 5.689 18.25 5C18.25 4.311 18.811 3.75 19.5 3.75C20.189 3.75 20.75 4.311 20.75 5ZM13.52 12C13.52 11.448 13.073 11 12.52 11H12.51C11.958 11 11.5149 11.448 11.5149 12C11.5149 12.552 11.968 13 12.52 13C13.072 13 13.52 12.552 13.52 12ZM17.52 12C17.52 11.448 17.073 11 16.52 11H16.51C15.958 11 15.5149 11.448 15.5149 12C15.5149 12.552 15.968 13 16.52 13C17.072 13 17.52 12.552 17.52 12ZM9.52004 12C9.52004 11.448 9.07304 11 8.52004 11H8.51003C7.95803 11 7.51491 11.448 7.51491 12C7.51491 12.552 7.96804 13 8.52004 13C9.07204 13 9.52004 12.552 9.52004 12Z" fill="white"/>
</svg>
