<svg width="25" height="24" viewBox="0 0 25 24" fill="none" xmlns="http://www.w3.org/2000/svg">
<path d="M18.5 3.75H17.25V3C17.25 2.586 16.914 2.25 16.5 2.25C16.086 2.25 15.75 2.586 15.75 3V3.75H9.25V3C9.25 2.586 8.914 2.25 8.5 2.25C8.086 2.25 7.75 2.586 7.75 3V3.75H6.5C4.082 3.75 2.75 5.082 2.75 7.5V18C2.75 20.418 4.082 21.75 6.5 21.75H18.5C20.918 21.75 22.25 20.418 22.25 18V7.5C22.25 5.082 20.918 3.75 18.5 3.75ZM6.5 5.25H7.75V6C7.75 6.414 8.086 6.75 8.5 6.75C8.914 6.75 9.25 6.414 9.25 6V5.25H15.75V6C15.75 6.414 16.086 6.75 16.5 6.75C16.914 6.75 17.25 6.414 17.25 6V5.25H18.5C20.077 5.25 20.75 5.923 20.75 7.5V8.25H4.25V7.5C4.25 5.923 4.923 5.25 6.5 5.25ZM18.5 20.25H6.5C4.923 20.25 4.25 19.577 4.25 18V9.75H20.75V18C20.75 19.577 20.077 20.25 18.5 20.25ZM15.53 12.803C15.823 13.096 15.823 13.571 15.53 13.864L12.197 17.197C12.051 17.343 11.859 17.417 11.667 17.417C11.475 17.417 11.283 17.344 11.137 17.197L9.46997 15.53C9.17697 15.238 9.17697 14.762 9.46997 14.469C9.76297 14.176 10.238 14.176 10.531 14.469L11.668 15.605L14.4709 12.802C14.7629 12.51 15.237 12.51 15.53 12.803Z" fill="white"/>
</svg>
