<svg width="30" height="30" viewBox="0 0 30 30" fill="none" xmlns="http://www.w3.org/2000/svg">
<path d="M8.33374 9.99976C8.33374 9.65476 8.61374 9.37476 8.95874 9.37476H17.2913C17.6363 9.37476 17.9163 9.65476 17.9163 9.99976C17.9163 10.3448 17.6363 10.6248 17.2913 10.6248H8.95874C8.61374 10.6248 8.33374 10.3448 8.33374 9.99976ZM14.7913 14.166C14.7913 13.821 14.5113 13.541 14.1663 13.541H8.95874C8.61374 13.541 8.33374 13.821 8.33374 14.166C8.33374 14.511 8.61374 14.791 8.95874 14.791H14.1663C14.5113 14.791 14.7913 14.5123 14.7913 14.166ZM26.81 26.1785C26.6587 26.596 26.2762 26.8673 25.8362 26.8673C25.7049 26.8723 25.5675 26.8748 25.4288 26.8748C24.095 26.8748 22.4187 26.6122 21.1987 25.541C20.25 25.8322 19.2175 25.9798 18.1238 25.9798C14.04 25.9798 10.8249 23.8673 9.78363 20.5836C9.70738 20.5623 9.62639 20.5548 9.55139 20.5311C8.16264 21.7836 6.20886 22.0873 4.64386 22.0873C4.49511 22.0873 4.34996 22.0847 4.20746 22.0797C3.75121 22.0697 3.34869 21.7772 3.19244 21.3347C3.03494 20.8897 3.16514 20.406 3.52264 20.1035C4.56639 19.2598 4.95864 18.3173 5.10864 17.6998C3.80989 16.1785 3.125 14.2461 3.125 12.0873C3.125 6.81106 7.23628 3.12598 13.1238 3.12598C18.8088 3.12598 22.8275 6.56728 23.0975 11.5548C25.495 12.9298 26.8738 15.2973 26.8738 18.1298C26.8738 20.0035 26.2824 21.6836 25.1611 23.0111C25.2936 23.5348 25.6339 24.3135 26.4914 25.0085C26.8426 25.2985 26.9637 25.756 26.81 26.1785ZM9.58862 19.2286C10.6849 19.6073 11.8738 19.7985 13.1238 19.7985C18.275 19.7985 21.8738 16.6273 21.8738 12.0873C21.8738 7.54731 18.275 4.37598 13.1238 4.37598C7.97253 4.37598 4.375 7.54731 4.375 12.0873C4.375 14.0411 5.01993 15.7722 6.23993 17.0922C6.36993 17.2322 6.42737 17.4247 6.39862 17.6134C6.21112 18.8159 5.5724 19.9498 4.5874 20.8385C6.0124 20.8448 7.81883 20.5785 8.92883 19.3935C9.09758 19.2123 9.35237 19.1473 9.58862 19.2286ZM25.3064 25.6235C24.5326 24.866 24.0262 23.9236 23.8687 22.9273C23.84 22.7386 23.8974 22.5447 24.0274 22.4047C25.0724 21.2772 25.6238 19.7986 25.6238 18.1286C25.6238 15.9736 24.7236 14.1935 23.0786 13.0135C22.6249 17.7898 18.66 21.0497 13.1238 21.0497C12.4763 21.0497 11.8437 20.9985 11.2262 20.906C12.3187 23.2585 14.9088 24.731 18.1238 24.731C19.2188 24.731 20.2376 24.5661 21.1526 24.2423C21.3864 24.1573 21.6461 24.2222 21.8161 24.4022C22.7399 25.3822 24.2451 25.6035 25.3064 25.6235Z" fill="url(#paint0_linear_15132_831)"/>
<defs>
<linearGradient id="paint0_linear_15132_831" x1="3.125" y1="15.0004" x2="26.8755" y2="15.0004" gradientUnits="userSpaceOnUse">
<stop stop-color="#57D7FF"/>
<stop offset="0.317708" stop-color="#C557FF"/>
<stop offset="0.692708" stop-color="#7555FF"/>
<stop offset="1" stop-color="#8281FD"/>
</linearGradient>
</defs>
</svg>
