<svg width="30" height="30" viewBox="0 0 30 30" fill="none" xmlns="http://www.w3.org/2000/svg">
<path d="M13.7613 13.125C16.5188 13.125 18.7613 10.8825 18.7613 8.125C18.7613 5.3675 16.5188 3.125 13.7613 3.125C11.0038 3.125 8.76129 5.3675 8.76129 8.125C8.76129 10.8825 11.0038 13.125 13.7613 13.125ZM13.7613 4.375C15.8288 4.375 17.5113 6.0575 17.5113 8.125C17.5113 10.1925 15.8288 11.875 13.7613 11.875C11.6938 11.875 10.0113 10.1925 10.0113 8.125C10.0113 6.0575 11.6925 4.375 13.7613 4.375ZM20.8125 17.89C20.5963 18.1613 20.205 18.2025 19.9338 17.9875C19.0113 17.2488 17.7725 16.8738 16.25 16.8738H11.25C6.03 16.8738 5.625 21.1976 5.625 22.5238C5.625 24.6676 6.58875 25.6238 8.75 25.6238H17.5C17.845 25.6238 18.125 25.9038 18.125 26.2488C18.125 26.5938 17.845 26.8738 17.5 26.8738H8.75C5.92875 26.8738 4.375 25.3288 4.375 22.5238C4.375 19.3413 6.175 15.6238 11.25 15.6238H16.25C18.0625 15.6238 19.565 16.0913 20.715 17.01C20.985 17.2275 21.0275 17.6213 20.8125 17.89ZM26.875 23.75C26.875 24.095 26.595 24.375 26.25 24.375H24.375V26.25C24.375 26.595 24.095 26.875 23.75 26.875C23.405 26.875 23.125 26.595 23.125 26.25V24.375H21.25C20.905 24.375 20.625 24.095 20.625 23.75C20.625 23.405 20.905 23.125 21.25 23.125H23.125V21.25C23.125 20.905 23.405 20.625 23.75 20.625C24.095 20.625 24.375 20.905 24.375 21.25V23.125H26.25C26.595 23.125 26.875 23.405 26.875 23.75Z" fill="url(#paint0_linear_15132_813)"/>
<defs>
<linearGradient id="paint0_linear_15132_813" x1="4.375" y1="15" x2="26.875" y2="15" gradientUnits="userSpaceOnUse">
<stop stop-color="#57D7FF"/>
<stop offset="0.317708" stop-color="#C557FF"/>
<stop offset="0.692708" stop-color="#7555FF"/>
<stop offset="1" stop-color="#8281FD"/>
</linearGradient>
</defs>
</svg>
