<svg width="24" height="24" viewBox="0 0 24 24" fill="none" xmlns="http://www.w3.org/2000/svg">
<path d="M22.8663 3.59585C22.3064 3.11987 21.5624 2.91688 20.8314 3.03387C20.4284 3.09887 20.0595 3.26986 19.7475 3.51585V3.49985C19.7475 2.12191 18.6265 0.999958 17.2476 0.999958C16.6126 0.999958 16.0326 1.23795 15.5916 1.62993C15.2377 0.678972 14.3207 0 13.2477 0C11.8688 0 10.7479 1.12195 10.7479 2.4999V2.5159C10.4359 2.26991 10.0669 2.09891 9.6639 2.03292C8.93493 1.91692 8.18796 2.11791 7.62898 2.59489C7.07 3.07187 6.74802 3.76484 6.74802 4.49981V15.3504L4.95209 13.6734C3.94513 12.7335 2.3632 12.7855 1.42324 13.7924C0.483279 14.7984 0.534277 16.3843 1.53424 17.3223L5.99105 21.6191C7.58298 23.154 9.6789 24 11.8898 24H19.2465C21.7274 24 23.7463 21.9811 23.7463 19.5002V5.50077C23.7463 4.7668 23.4263 4.07183 22.8663 3.59585ZM22.7474 19.5002C22.7474 21.4301 21.1774 23 19.2475 23H11.8908C9.93888 23 8.08996 22.2541 6.68502 20.8991L2.22321 16.5983C1.61923 16.0323 1.58823 15.0794 2.15421 14.4754C2.71719 13.8734 3.66615 13.8404 4.27012 14.4044L6.90801 16.8663C7.053 17.0023 7.265 17.0373 7.44799 16.9593C7.63098 16.8803 7.74898 16.7003 7.74898 16.5013V4.50081C7.74898 4.06083 7.94097 3.64385 8.27695 3.35786C8.61794 3.06687 9.05192 2.94788 9.5049 3.02187C10.2139 3.13687 10.7489 3.81884 10.7489 4.60781V10.5006C10.7489 10.7766 10.9728 11.0005 11.2488 11.0005C11.5248 11.0005 11.7488 10.7766 11.7488 10.5006V2.5009C11.7488 1.67393 12.4218 1.00096 13.2487 1.00096C14.0757 1.00096 14.7487 1.67393 14.7487 2.5009V10.5006C14.7487 10.7766 14.9727 11.0005 15.2487 11.0005C15.5247 11.0005 15.7486 10.7766 15.7486 10.5006V3.50085C15.7486 2.67389 16.4216 2.00092 17.2486 2.00092C18.0755 2.00092 18.7485 2.67389 18.7485 3.50085V10.5006C18.7485 10.7766 18.9725 11.0005 19.2485 11.0005C19.5245 11.0005 19.7485 10.7766 19.7485 10.5006V5.60777C19.7485 4.8188 20.2835 4.13683 20.9924 4.02183C21.4444 3.94684 21.8794 4.06683 22.2204 4.35782C22.5564 4.64381 22.7484 5.06079 22.7484 5.50077L22.7474 19.5002ZM17.2476 13.0005C16.3056 13.0005 15.6436 13.5204 15.2477 13.9704C14.8517 13.5204 14.1897 13.0005 13.2477 13.0005C11.8688 13.0005 10.7479 14.2384 10.7479 15.7613C10.7479 17.7053 12.9788 19.8372 14.3097 20.9351C14.5807 21.1591 14.9147 21.2711 15.2477 21.2711C15.5806 21.2711 15.9146 21.1591 16.1856 20.9351C17.5156 19.8372 19.7475 17.7063 19.7475 15.7613C19.7475 14.2394 18.6265 13.0005 17.2476 13.0005ZM15.5497 20.1632C15.3717 20.3102 15.1237 20.3102 14.9457 20.1632C12.9428 18.5112 11.7478 16.8653 11.7478 15.7613C11.7478 14.7904 12.4208 14.0004 13.2477 14.0004C14.2477 14.0004 14.7967 15.0494 14.8007 15.0574C14.8847 15.2254 15.0577 15.3314 15.2457 15.3324H15.2487C15.4367 15.3324 15.6076 15.2264 15.6936 15.0594C15.6986 15.0494 16.2476 14.0004 17.2476 14.0004C18.0745 14.0004 18.7475 14.7904 18.7475 15.7613C18.7475 16.8653 17.5526 18.5112 15.5497 20.1632Z" fill="url(#paint0_linear_15132_897)"/>
<defs>
<linearGradient id="paint0_linear_15132_897" x1="0.75" y1="12" x2="23.7463" y2="12" gradientUnits="userSpaceOnUse">
<stop stop-color="#57D7FF"/>
<stop offset="0.317708" stop-color="#C557FF"/>
<stop offset="0.692708" stop-color="#7555FF"/>
<stop offset="1" stop-color="#8281FD"/>
</linearGradient>
</defs>
</svg>
