<svg width="22" height="24" viewBox="0 0 22 24" fill="none" xmlns="http://www.w3.org/2000/svg">
<path d="M19.6634 7.30235H18.4487V3.21997C18.4487 1.83182 17.3193 0.702503 15.9311 0.702503C15.1459 0.702503 14.4437 1.06404 13.9817 1.62912C13.6219 0.67812 12.7022 0 11.6267 0C10.5436 0 9.61833 0.687446 9.26376 1.64884C8.80166 1.08926 8.10281 0.732055 7.3221 0.732055C5.93395 0.732055 4.80463 1.86137 4.80463 3.24953V3.28116C4.34815 2.82057 3.71565 2.53478 3.01747 2.53478C1.62932 2.53478 0.5 3.6641 0.5 5.05225V12.8984C0.5 16.0135 1.56555 19.0624 3.50317 21.4992V23.6348C3.50317 23.8365 3.66666 24 3.86835 24C4.07005 24 4.23354 23.8365 4.23354 23.6348V21.3707C4.23354 21.2869 4.20472 21.2057 4.15202 21.1407C2.268 18.817 1.23037 15.8899 1.23037 12.8983V11.0045C1.68685 11.4651 2.31929 11.7509 3.01747 11.7509C3.95628 11.7509 4.77614 11.234 5.20892 10.4702C5.65793 11.1626 6.43712 11.622 7.32204 11.622C8.23287 11.622 9.03223 11.1358 9.47428 10.4093C9.91637 11.1357 10.7157 11.6218 11.6264 11.6218C11.8897 11.6218 12.1457 11.5811 12.3917 11.5024C12.8757 12.2035 13.6844 12.664 14.5989 12.664H15.385V12.7797H14.6546C11.9904 12.7797 9.82294 14.9472 9.82294 17.6113C9.82294 17.813 9.98643 17.9765 10.1881 17.9765C10.3898 17.9765 10.5533 17.813 10.5533 17.6113C10.5533 15.3499 12.3932 13.51 14.6546 13.51H15.7502C15.9519 13.51 16.1154 13.3465 16.1154 13.1449V12.664H18.3248C18.5265 12.664 18.69 12.5006 18.69 12.2989C18.69 12.0972 18.5265 11.9337 18.3248 11.9337H14.5989C13.5233 11.9337 12.6483 11.0586 12.6483 9.98314C12.6483 8.90764 13.5233 8.0326 14.5989 8.0326H19.6633C20.3711 8.0326 20.9469 8.60842 20.9469 9.31614V14.4209C20.9469 16.4689 19.9505 18.4003 18.2816 19.5873L18.2653 19.599C17.0512 20.4626 16.3263 21.8676 16.3263 23.3575C16.3263 23.5592 16.4898 23.7227 16.6915 23.7227C16.8932 23.7227 17.0567 23.5592 17.0567 23.3575C17.0567 22.1036 17.6667 20.921 18.6886 20.1941L18.705 20.1825C20.5661 18.8586 21.6772 16.7048 21.6772 14.4209V9.31614C21.6773 8.20576 20.7739 7.30235 19.6634 7.30235ZM4.80469 9.23356C4.80469 10.219 4.00296 11.0207 3.01753 11.0207C2.03215 11.0207 1.23043 10.2189 1.23043 9.23356V5.0523C1.23043 4.06687 2.03215 3.2652 3.01753 3.2652C4.00296 3.2652 4.80469 4.06687 4.80469 5.0523V9.23356ZM7.3221 10.8917C6.33672 10.8917 5.535 10.0901 5.535 9.10462V3.24958C5.535 2.26415 6.33672 1.46248 7.3221 1.46248C8.30748 1.46248 9.1092 2.26415 9.1092 3.24958L9.10898 3.24964V9.10439C9.10898 9.10591 9.10909 9.10737 9.10909 9.10883C9.10679 10.0923 8.30608 10.8917 7.3221 10.8917ZM11.918 9.98325C11.918 10.2823 11.968 10.5697 12.0587 10.8385C11.9186 10.8733 11.7742 10.8916 11.6265 10.8916C10.6426 10.8916 9.84188 10.0922 9.8394 9.10883C9.8394 9.10743 9.83952 9.10602 9.83952 9.10462V2.51747C9.83952 1.53203 10.6412 0.73037 11.6266 0.73037C12.612 0.73037 13.4137 1.53203 13.4137 2.51747V7.57938C12.5285 8.01766 11.918 8.93034 11.918 9.98325ZM14.1441 7.34173V3.21997C14.1441 2.23454 14.9458 1.43287 15.9312 1.43287C16.9166 1.43287 17.7183 2.23454 17.7183 3.21997V7.30235H14.5991C14.4439 7.30235 14.2921 7.31628 14.1441 7.34173Z" fill="url(#paint0_linear_15132_887)"/>
<defs>
<linearGradient id="paint0_linear_15132_887" x1="0.5" y1="12" x2="21.6772" y2="12" gradientUnits="userSpaceOnUse">
<stop stop-color="#57D7FF"/>
<stop offset="0.317708" stop-color="#C557FF"/>
<stop offset="0.692708" stop-color="#7555FF"/>
<stop offset="1" stop-color="#8281FD"/>
</linearGradient>
</defs>
</svg>
