<svg width="943" height="580" viewBox="0 0 943 580" fill="none" xmlns="http://www.w3.org/2000/svg">
<path d="M2.74766 579.578L0.267578 577.028L10.1409 566.896L12.6209 569.446L2.74766 579.578ZM22.4942 559.326L20.0142 556.776L29.8875 546.644L32.3675 549.194L22.4942 559.326ZM42.2408 539.063L39.7607 536.512L49.634 526.38L52.1141 528.931L42.2408 539.063ZM268.175 526.874C263.92 526.874 259.641 526.509 255.445 525.792L256.021 522.243C260.488 523.007 265.072 523.348 269.609 523.265L269.679 526.874C269.174 526.874 268.68 526.885 268.175 526.885V526.874ZM283.854 525.228L283.137 521.702C287.592 520.762 291.965 519.386 296.161 517.612L297.501 520.95C293.116 522.795 288.521 524.241 283.854 525.228ZM241.646 522.066C237.18 520.386 232.842 518.27 228.764 515.778L230.562 512.687C234.464 515.073 238.59 517.094 242.857 518.693L241.646 522.078V522.066ZM61.9874 518.811L59.5073 516.26L69.3806 506.128L71.8607 508.679L61.9874 518.811ZM310.136 514.133L308.22 511.112C312.005 508.585 315.602 505.658 318.893 502.437L321.314 505.047C317.858 508.432 314.097 511.488 310.136 514.133ZM217.245 507.127C215.787 505.799 214.353 504.4 212.978 502.954C211.098 500.98 209.135 499.076 207.125 497.277L209.429 494.55C211.509 496.408 213.554 498.382 215.494 500.427C216.798 501.803 218.173 503.143 219.572 504.412L217.245 507.115V507.127ZM81.7575 498.688L79.395 496.02C82.9094 492.752 86.6706 489.731 90.5847 487.028L92.5476 490.025C88.7746 492.623 85.1544 495.538 81.7692 498.688H81.7575ZM330.694 494.01L327.849 491.906C330.506 488.133 332.833 484.078 334.749 479.87L337.934 481.398C335.924 485.817 333.479 490.06 330.706 494.022L330.694 494.01ZM196.158 488.862C192.327 486.346 188.272 484.089 184.122 482.162L185.568 478.883C189.882 480.881 194.078 483.208 198.063 485.829L196.17 488.862H196.158ZM104.431 483.055L102.915 479.799C107.181 477.707 111.624 475.921 116.149 474.487L117.184 477.93C112.823 479.317 108.533 481.033 104.431 483.043V483.055ZM171.264 477.343C166.879 476.062 162.378 475.098 157.852 474.475L158.323 470.902C163.012 471.548 167.69 472.547 172.227 473.875L171.264 477.343ZM130.536 474.78L129.996 471.219C134.662 470.467 139.422 470.067 144.147 470.02L144.183 473.629C139.622 473.676 135.026 474.075 130.536 474.792V474.78ZM342.753 467.622L339.356 466.729C340.485 462.227 341.214 457.584 341.519 452.93L345.022 453.177C344.704 458.043 343.94 462.909 342.753 467.634V467.622ZM341.167 438.966C340.638 434.335 339.674 429.739 338.322 425.308L341.672 424.239C343.094 428.893 344.093 433.7 344.646 438.555L341.155 438.978L341.167 438.966ZM333.068 412.414C330.941 408.312 328.414 404.398 325.569 400.754L328.308 398.497C331.293 402.306 333.926 406.42 336.159 410.71L333.056 412.402L333.068 412.414ZM566.724 405.315C564.338 405.315 561.929 405.221 559.543 405.033L559.813 401.436C564.362 401.789 568.957 401.8 573.494 401.436L573.753 405.033C571.414 405.209 569.051 405.303 566.724 405.303V405.315ZM587.811 402.846L587.023 399.332C591.466 398.274 595.862 396.864 600.07 395.136L601.375 398.486C596.991 400.284 592.43 401.753 587.811 402.846ZM545.485 402.811C540.877 401.706 536.305 400.237 531.921 398.427L533.226 395.089C537.445 396.828 541.841 398.251 546.272 399.308L545.473 402.823L545.485 402.811ZM614.128 392.045L612.341 388.941C616.243 386.567 620.016 383.864 623.554 380.89L625.788 383.676C622.12 386.755 618.206 389.576 614.14 392.045H614.128ZM519.168 391.974C515.113 389.506 511.187 386.685 507.531 383.593L509.765 380.808C513.291 383.782 517.052 386.497 520.966 388.871L519.168 391.974ZM316.225 390.34L306.563 380.009L309.102 377.517L318.763 387.848L316.225 390.34ZM636.131 373.755L633.592 371.264C636.754 367.867 639.681 364.211 642.302 360.415L645.17 362.495C642.455 366.433 639.41 370.229 636.143 373.744L636.131 373.755ZM497.27 373.614L487.526 363.353L490.042 360.838L499.786 371.099L497.27 373.614ZM296.901 369.665L292.917 365.41C290.966 363.4 289.073 361.238 287.345 358.993L290.096 356.759C291.741 358.898 293.54 360.955 295.42 362.895L299.428 367.185L296.889 369.677L296.901 369.665ZM477.782 353.092L468.027 342.831L470.542 340.316L480.298 350.577L477.782 353.092ZM652.504 350.013L649.366 348.39C651.423 344.218 653.186 339.857 654.62 335.426L657.958 336.554C656.477 341.162 654.632 345.687 652.504 350.013ZM279.635 346.651C277.472 342.302 275.732 337.706 274.463 332.993L277.848 332.029C279.059 336.507 280.716 340.88 282.773 345.029L279.646 346.663L279.635 346.651ZM458.271 332.558L448.515 322.297L451.03 319.781L460.786 330.043L458.271 332.558ZM661.402 322.403L657.946 321.791C658.722 317.184 659.181 312.482 659.286 307.816L662.801 307.898C662.683 312.741 662.213 317.63 661.402 322.403ZM272.006 318.547C271.877 316.749 271.818 314.915 271.807 313.105C271.807 310.037 271.995 306.934 272.359 303.902L275.85 304.349C275.497 307.24 275.321 310.19 275.321 313.105C275.321 314.833 275.38 316.573 275.509 318.289L272.006 318.547ZM438.771 312.036L429.027 301.774L431.542 299.259L441.286 309.52L438.771 312.036ZM658.616 293.782C658.052 289.139 657.159 284.508 655.936 280.006L659.322 279.042C660.591 283.709 661.52 288.516 662.107 293.335L658.616 293.782ZM419.283 291.513L409.539 281.252L412.054 278.737L421.798 288.998L419.283 291.513ZM278.871 290.738L275.533 289.597C277.049 284.955 279.012 280.465 281.386 276.221L284.43 278.02C282.174 282.04 280.305 286.318 278.859 290.738H278.871ZM399.795 270.979L393.131 263.962C392.131 262.904 391.085 261.87 390.027 260.894L392.39 258.226C393.495 259.249 394.588 260.342 395.646 261.447L402.31 268.464L399.795 270.979ZM651.305 266.795C649.448 262.528 647.262 258.379 644.794 254.441L647.756 252.49C650.306 256.569 652.587 260.894 654.514 265.314L651.305 266.783V266.795ZM292.364 266.689L289.72 264.315C290.754 263.104 291.835 261.917 292.952 260.777C295.209 258.461 297.63 256.287 300.145 254.3L302.285 257.157C299.887 259.037 297.583 261.106 295.432 263.316C294.374 264.409 293.328 265.537 292.352 266.689H292.364ZM379.12 252.596C375.229 250.21 371.092 248.224 366.814 246.684L367.977 243.287C372.479 244.909 376.828 247.001 380.918 249.505L379.12 252.596ZM313.85 249.81L312.311 246.578C316.589 244.439 321.091 242.723 325.71 241.489L326.592 244.979C322.196 246.155 317.917 247.777 313.85 249.822V249.81ZM353.602 243.381C349.124 242.734 344.54 242.535 340.015 242.805L339.815 239.208C344.563 238.926 349.383 239.138 354.096 239.808L353.602 243.381ZM636.578 243.216C635.179 241.583 633.722 239.972 632.217 238.444L626.963 233.061L629.42 230.487L634.697 235.894C636.26 237.492 637.777 239.15 639.222 240.854L636.578 243.228V243.216ZM617.043 222.917L607.158 212.797L609.638 210.247L619.523 220.367L617.043 222.917ZM597.284 202.536C594.087 198.892 591.243 194.92 588.81 190.735L591.831 188.89C594.134 192.874 596.85 196.647 599.894 200.127L597.284 202.536ZM582.757 177.465C581.17 172.869 580.03 168.074 579.348 163.231L582.827 162.714C583.474 167.321 584.567 171.882 586.071 176.254L582.757 177.453V177.465ZM582.192 148.785L578.678 148.597C578.925 143.719 579.63 138.842 580.794 134.105L584.202 134.986C583.097 139.488 582.416 144.131 582.192 148.785ZM779.329 130.567L779.235 126.958C783.796 126.829 788.38 126.359 792.87 125.583L793.457 129.133C788.803 129.944 784.054 130.426 779.329 130.555V130.567ZM765.142 129.944C760.441 129.403 755.751 128.51 751.178 127.288L752.06 123.797C756.468 124.972 761.005 125.83 765.53 126.359L765.13 129.944H765.142ZM807.256 125.689L806.187 122.257C810.536 120.835 814.814 119.072 818.905 117.026L820.444 120.27C816.201 122.386 811.77 124.208 807.256 125.689ZM737.72 122.645C733.36 120.776 729.093 118.578 725.038 116.086L726.836 112.995C730.75 115.393 734.864 117.52 739.072 119.318L737.72 122.645ZM588.798 121.857L585.625 120.317C587.67 115.91 590.138 111.678 592.994 107.764L595.815 109.915C593.112 113.653 590.749 117.673 588.81 121.869L588.798 121.857ZM832.727 112.983L830.764 109.997C834.526 107.388 838.157 104.461 841.543 101.323L843.905 103.991C840.391 107.247 836.641 110.28 832.739 112.983H832.727ZM713.378 107.753C710.604 105.449 707.912 102.957 705.373 100.348L702.999 97.9262L705.456 95.3521L707.854 97.8087C710.298 100.324 712.908 102.734 715.588 104.955L713.378 107.753ZM604.948 99.4542L602.468 96.9036L602.867 96.4922C606.112 93.1541 609.661 90.1334 613.399 87.4887L615.397 90.4507C611.836 92.9661 608.462 95.8575 605.359 99.0311L604.96 99.4425L604.948 99.4542ZM853.919 93.8946L851.439 91.344L861.313 81.2122L863.793 83.7627L853.919 93.8946ZM692.409 89.1931C688.612 86.6542 684.546 84.4915 680.338 82.7754L681.63 79.4256C686.062 81.2357 690.328 83.5042 694.313 86.1723L692.397 89.1931H692.409ZM627.269 83.6922L625.87 80.3894C630.242 78.45 634.815 76.9337 639.469 75.8994L640.21 79.4256C635.779 80.4129 631.43 81.8469 627.269 83.704V83.6922ZM667.267 78.9436C663.212 78.1914 659.063 77.8035 654.926 77.8035C654.526 77.8035 654.126 77.8035 653.715 77.8035L653.656 74.1951C654.079 74.1951 654.503 74.1951 654.926 74.1951C659.263 74.1951 663.635 74.5947 667.89 75.394L667.267 78.9436ZM873.666 73.6426L871.186 71.092L881.059 60.9602L883.539 63.5107L873.666 73.6426ZM893.413 53.3789L890.933 50.8283L900.806 40.6964L903.286 43.247L893.413 53.3789ZM913.159 33.1269L910.679 30.5763L920.552 20.4444L923.033 22.995L913.159 33.1269ZM932.906 12.8749L930.426 10.3243L940.299 0.192383L942.779 2.74298L932.906 12.8749Z" fill="white"/>
</svg>
