<svg width="24" height="24" viewBox="0 0 24 24" fill="none" xmlns="http://www.w3.org/2000/svg">
<path d="M7.04025 8.88003H3.25025C2.84025 8.88003 2.50025 9.22003 2.50025 9.63003V21C2.50025 21.41 2.84025 21.75 3.25025 21.75H7.04025C7.45025 21.75 7.79025 21.41 7.79025 21V9.63003C7.79025 9.22003 7.45025 8.88003 7.04025 8.88003ZM6.29025 20.25H4.00025V10.38H6.29025V20.25ZM5.29025 2.25002C4.49025 2.23002 3.75025 2.51002 3.17025 3.06002C2.60025 3.60002 2.27026 4.34003 2.24026 5.13003C2.22026 5.92003 2.50026 6.67002 3.05026 7.25002C3.59026 7.82002 4.33025 8.15002 5.12025 8.18002C5.14025 8.18002 5.15025 8.18002 5.17025 8.18002C6.80025 8.18002 8.14025 6.86003 8.17025 5.22003C8.17025 3.61003 6.91025 2.31002 5.29025 2.26002V2.25002ZM5.17025 6.67002H5.16026C4.77026 6.66002 4.41025 6.50003 4.15025 6.21003C3.88025 5.93003 3.74025 5.56002 3.75025 5.17002C3.76025 4.78002 3.92026 4.42002 4.21026 4.15002C4.49026 3.88002 4.85025 3.75002 5.25025 3.75002C6.05025 3.77002 6.67025 4.41002 6.67025 5.20002C6.66025 6.02002 5.99025 6.67002 5.17025 6.67002ZM21.7003 14.13C21.7003 10.17 19.1202 8.76002 16.7302 8.76002C15.7702 8.72002 14.8203 9.00002 14.0303 9.51002C13.9703 9.15002 13.6602 8.88003 13.2902 8.88003H9.63026C9.22026 8.88003 8.88026 9.22003 8.88026 9.63003V21C8.88026 21.41 9.22026 21.75 9.63026 21.75H13.4203C13.8303 21.75 14.1703 21.41 14.1703 21V15.01C14.1703 15.01 14.1703 14.91 14.1703 14.86C14.1403 14.47 14.2703 14.1 14.5303 13.81C14.7803 13.52 15.1403 13.34 15.4703 13.32C15.7703 13.32 16.4603 13.32 16.4603 15.01V21C16.4603 21.41 16.8003 21.75 17.2103 21.75H21.0003C21.2003 21.75 21.3903 21.67 21.5303 21.53C21.6703 21.39 21.7503 21.2 21.7503 21L21.7003 14.13ZM17.9603 20.25V15.01C17.9603 12.14 16.2303 11.82 15.4203 11.82C14.6303 11.87 13.9202 12.23 13.4002 12.82C12.8802 13.41 12.6303 14.17 12.6703 14.9C12.6703 14.99 12.6703 15.07 12.6703 15.09V20.24H10.3803V10.37H12.5402V11.26C12.5402 11.59 12.7603 11.88 13.0803 11.98C13.4003 12.08 13.7403 11.95 13.9203 11.67C14.5203 10.75 15.5803 10.21 16.7003 10.24C17.7503 10.24 20.1903 10.62 20.1903 14.12L20.2302 20.24H17.9503L17.9603 20.25Z" fill="#F9FAFB"/>
</svg>
