<svg width="25" height="24" viewBox="0 0 25 24" fill="none" xmlns="http://www.w3.org/2000/svg">
<path d="M24.02 10.96C24.02 9.4 23.22 7.94 21.91 7.07C21.91 6.97 21.93 6.88 21.93 6.78C21.93 4.93 20.55 3.4 18.76 3.17C18.53 1.39 17 0 15.15 0C13.82 0 12.65 0.72 12.01 1.8C11.38 0.72 10.21 0 8.87 0C7.02 0 5.49 1.38 5.26 3.17C3.48 3.4 2.09 4.93 2.09 6.78C2.09 6.88 2.09 6.98 2.11 7.07C0.8 7.94 0 9.4 0 10.96C0 11.9 0.28 12.79 0.82 13.57C0.28 14.35 0 15.25 0 16.18C0 17.82 0.87 19.34 2.29 20.18C2.91 22.44 4.94 24 7.3 24C9.37 24 11.17 22.78 12 21.02C12.84 22.78 14.63 24 16.7 24C19.06 24 21.08 22.44 21.71 20.18C23.13 19.33 24 17.82 24 16.18C24 15.25 23.72 14.35 23.18 13.57C23.72 12.79 24 11.89 24 10.96H24.02ZM7.32 23.01C5.36 23.01 3.68 21.67 3.23 19.75C3.2 19.61 3.11 19.49 2.98 19.42C1.77 18.77 1.02 17.54 1.02 16.19C1.02 15.36 1.31 14.56 1.85 13.89C2 13.71 2 13.45 1.85 13.26C1.31 12.59 1.02 11.79 1.02 10.96C1.02 9.64 1.74 8.42 2.91 7.76C3.1 7.66 3.19 7.45 3.16 7.24C3.13 7.09 3.11 6.94 3.11 6.78C3.11 5.33 4.29 4.14 5.75 4.14C6.03 4.14 6.25 3.92 6.25 3.64C6.25 2.19 7.43 1 8.89 1C10.35 1 11.53 2.18 11.53 3.64V18.8C11.53 21.12 9.64 23 7.33 23L7.32 23.01ZM22.19 13.89C22.73 14.56 23.02 15.36 23.02 16.19C23.02 17.54 22.27 18.77 21.06 19.42C20.93 19.49 20.84 19.61 20.81 19.75C20.37 21.67 18.69 23.01 16.72 23.01C14.4 23.01 12.52 21.12 12.52 18.81V3.65C12.52 2.2 13.7 1.01 15.16 1.01C16.62 1.01 17.8 2.19 17.8 3.65C17.8 3.93 18.02 4.15 18.3 4.15C19.75 4.15 20.94 5.33 20.94 6.79C20.94 6.95 20.92 7.1 20.89 7.25C20.85 7.46 20.95 7.67 21.14 7.77C22.31 8.43 23.03 9.65 23.03 10.97C23.03 11.8 22.74 12.6 22.2 13.27C22.05 13.45 22.05 13.71 22.2 13.9L22.19 13.89Z" fill="url(#paint0_linear_15132_785)"/>
<defs>
<linearGradient id="paint0_linear_15132_785" x1="0" y1="12" x2="24.02" y2="12" gradientUnits="userSpaceOnUse">
<stop stop-color="#57D7FF"/>
<stop offset="0.317708" stop-color="#C557FF"/>
<stop offset="0.692708" stop-color="#7555FF"/>
<stop offset="1" stop-color="#8281FD"/>
</linearGradient>
</defs>
</svg>
