<svg width="994" height="640" viewBox="0 0 994 640" fill="none" xmlns="http://www.w3.org/2000/svg">
<g filter="url(#filter0_d_15071_3466)">
<path d="M993.083 0.0352731C992.096 0.199828 991.12 0.552446 990.156 0.811032C988.358 1.3047 986.56 1.79836 984.761 2.28027C980.835 3.33812 976.898 4.33721 972.96 5.33629C965.085 7.34621 957.21 9.34438 949.335 11.3896C941.436 13.4465 933.514 15.3976 925.604 17.3723C921.572 18.3831 917.552 19.394 913.544 20.4753C911.523 21.0278 909.489 21.5567 907.444 22.0621C905.904 22.4382 904.024 22.5558 902.601 23.2022C903.154 23.7664 903.624 24.3189 904.165 24.7655C907.244 27.2926 910.382 29.7609 913.427 32.335C916.494 34.9209 919.562 37.5185 922.571 40.1632C922.83 40.3982 923.018 40.5745 923.124 40.7509L887.18 77.6229C880.104 84.7693 873.04 91.9274 865.929 99.0386C864.495 100.473 863.026 101.883 861.58 103.317C860.887 103.999 859.464 104.916 859.265 105.903C845.959 117.598 829.21 123.992 811.497 123.992H811.473C791.809 123.992 773.32 116.117 759.427 101.848L757.628 100.002C739.527 81.4194 715.514 71.1935 689.938 71.1935C689.82 71.1935 689.703 71.1935 689.585 71.1935C663.903 71.2875 639.654 81.7133 621.295 100.531L618.415 103.482C600.173 122.194 590.135 147.065 590.147 173.523C590.147 199.981 600.22 224.841 618.474 243.541L650.644 276.476C663.879 290.016 671.061 308.023 670.885 327.182C670.696 346.494 663.056 364.56 649.363 378.053L647.635 379.757C621.459 405.534 579.568 404.817 554.239 378.171C520.27 342.427 479.037 299.02 447.407 265.721C429.435 246.797 405.34 236.277 379.587 236.101C353.775 235.913 329.598 246.127 311.379 264.816C274.19 302.969 274.119 365.006 311.179 403.242L339.318 433.32C358.042 453.337 357.725 485.59 338.589 505.219C329.116 514.927 316.563 520.264 303.187 520.264C303.069 520.264 302.952 520.264 302.834 520.264C289.329 520.17 276.705 514.645 267.278 504.713C244.429 480.63 213.798 467.23 181.04 467.007C180.758 467.007 180.476 467.007 180.182 467.007C147.741 467.007 117.275 479.948 94.3077 503.503L15.6152 584.534L51.2179 621.065L129.91 540.034C143.357 526.235 161.199 518.665 180.194 518.665C180.358 518.665 180.523 518.665 180.699 518.665C199.881 518.795 217.818 526.634 231.194 540.739C250.082 560.65 275.4 571.722 302.493 571.911C302.728 571.911 302.963 571.911 303.198 571.911C330.021 571.911 355.21 561.214 374.204 541.738C392.893 522.568 403.342 497.073 403.612 469.957C403.882 442.841 393.962 417.135 375.65 397.565L347.346 367.31L346.982 366.922C338.448 358.165 333.735 346.517 333.735 334.129C333.735 321.74 338.437 310.092 346.982 301.335C355.597 292.496 367.069 287.689 379.246 287.748C391.435 287.83 402.825 292.802 411.334 301.758C442.964 335.057 484.209 378.476 518.178 414.22C539.805 436.987 568.79 449.811 599.773 450.34C630.733 450.833 660.141 439.032 682.497 417.017L684.225 415.313C707.78 392.123 720.921 360.998 721.238 327.676C721.556 294.506 709.12 263.335 686.223 239.898L654.053 206.963C645.32 198.03 640.512 186.135 640.512 173.488C640.512 160.841 645.308 148.946 654.029 140.001L656.909 137.051C665.795 127.93 677.467 122.887 689.773 122.84C689.832 122.84 689.879 122.84 689.938 122.84C702.044 122.84 713.434 127.683 722.002 136.498L723.801 138.344C747.203 162.38 778.339 175.627 811.461 175.639H811.508C842.809 175.639 872.347 163.803 895.255 142.211C895.913 142.152 896.536 141.27 896.971 140.847C898.217 139.637 899.404 138.379 900.627 137.145C906.128 131.55 911.664 125.967 917.258 120.466C928.284 109.605 939.191 98.5684 950.052 87.5432C952.92 84.64 955.764 81.7133 958.632 78.8101C959.314 78.1166 960.007 77.4231 960.689 76.7296C961.242 76.1654 961.912 75.1898 962.652 74.8725C963.933 74.3318 965.602 76.4122 966.484 77.141C972.631 82.2775 978.72 87.4374 984.561 92.9383C984.973 93.3261 985.76 94.3487 986.277 93.9844C986.701 93.6788 986.548 91.9392 986.56 91.4808C986.654 89.4238 986.759 87.3787 986.924 85.3217C987.253 81.1843 987.653 77.047 987.958 72.9096C988.57 64.7994 989.263 56.6892 989.886 48.579C991.097 32.8875 992.354 17.196 993.882 1.53977C993.976 0.552446 994.294 -0.176297 993.083 0.0352731Z" fill="url(#paint0_linear_15071_3466)"/>
</g>
<defs>
<filter id="filter0_d_15071_3466" x="0.585234" y="-0.00146484" width="993.405" height="639.127" filterUnits="userSpaceOnUse" color-interpolation-filters="sRGB">
<feFlood flood-opacity="0" result="BackgroundImageFix"/>
<feColorMatrix in="SourceAlpha" type="matrix" values="0 0 0 0 0 0 0 0 0 0 0 0 0 0 0 0 0 0 127 0" result="hardAlpha"/>
<feOffset dx="-10.09" dy="13.12"/>
<feGaussianBlur stdDeviation="2.47"/>
<feColorMatrix type="matrix" values="0 0 0 0 0.613467 0 0 0 0 0.536962 0 0 0 0 0.820833 0 0 0 0.1 0"/>
<feBlend mode="normal" in2="BackgroundImageFix" result="effect1_dropShadow_15071_3466"/>
<feBlend mode="normal" in="SourceGraphic" in2="effect1_dropShadow_15071_3466" result="shape"/>
</filter>
<linearGradient id="paint0_linear_15071_3466" x1="15.6152" y1="310.527" x2="994" y2="310.527" gradientUnits="userSpaceOnUse">
<stop stop-color="#8E7AFF"/>
<stop offset="1" stop-color="#9E94FF"/>
</linearGradient>
</defs>
</svg>
