<svg width="21" height="20" viewBox="0 0 21 20" fill="none" xmlns="http://www.w3.org/2000/svg">
<path d="M15.0518 19.7514C14.5928 19.7514 14.1309 19.6894 13.6749 19.5644C7.50986 17.8724 2.62885 12.9944 0.935851 6.83344C0.550851 5.43244 0.761798 3.97243 1.5318 2.72443C2.3048 1.47043 3.57586 0.585427 5.01886 0.297427C5.97886 0.105427 6.92785 0.533434 7.41485 1.35443L8.97784 3.99442C9.73684 5.27642 9.35971 6.92742 8.11871 7.75342L6.98785 8.50543C8.04485 10.6754 9.8227 12.4584 11.9837 13.5144L12.7459 12.3774C13.5769 11.1384 15.2278 10.7674 16.5088 11.5304L19.1519 13.1064C19.9699 13.5944 20.3928 14.5494 20.2068 15.4814C19.9188 16.9244 19.0338 18.1954 17.7808 18.9684C16.9388 19.4864 16.0018 19.7514 15.0518 19.7514ZM5.47784 1.74942C5.42884 1.74942 5.37887 1.75444 5.33087 1.76444C4.27687 1.97544 3.36387 2.61042 2.80987 3.51142C2.26087 4.40142 2.10985 5.44043 2.38385 6.43543C3.93685 12.0884 8.41584 16.5654 14.0718 18.1174C15.0678 18.3904 16.1037 18.2384 16.9927 17.6904C17.8927 17.1354 18.5289 16.2214 18.7359 15.1854C18.7979 14.8744 18.6569 14.5554 18.3829 14.3924L15.7408 12.8164C15.1458 12.4624 14.3778 12.6354 13.9918 13.2104L12.8768 14.8754C12.6768 15.1734 12.2909 15.2874 11.9649 15.1494C9.0019 13.9104 6.59089 11.4944 5.35089 8.52042C5.21289 8.18842 5.32875 7.80642 5.62775 7.60742L7.28888 6.50241C7.86488 6.11941 8.03983 5.35242 7.68683 4.75742L6.12384 2.11841C5.98684 1.88641 5.73884 1.74942 5.47784 1.74942Z" fill="#F9FAFB"/>
</svg>
