<svg width="30" height="30" viewBox="0 0 30 30" fill="none" xmlns="http://www.w3.org/2000/svg">
<path d="M15 1.875C7.7625 1.875 1.875 7.7625 1.875 15C1.875 22.2375 7.7625 28.125 15 28.125C22.2375 28.125 28.125 22.2375 28.125 15C28.125 7.7625 22.2375 1.875 15 1.875ZM15 26.875C8.4525 26.875 3.125 21.5475 3.125 15C3.125 8.4525 8.4525 3.125 15 3.125C21.5475 3.125 26.875 8.4525 26.875 15C26.875 21.5475 21.5475 26.875 15 26.875ZM15.9375 19.375C15.9375 19.8937 15.5199 20.3125 15.0049 20.3125C14.4911 20.3125 14.0625 19.8937 14.0625 19.375C14.0625 18.8563 14.4713 18.4375 14.9863 18.4375H15.0049C15.5199 18.4375 15.9375 18.8563 15.9375 19.375ZM14.375 15.0888V9.375C14.375 9.03 14.655 8.75 15 8.75C15.345 8.75 15.625 9.03 15.625 9.375V15.0888C15.625 15.4338 15.345 15.7138 15 15.7138C14.655 15.7138 14.375 15.4351 14.375 15.0888Z" fill="url(#paint0_linear_15132_822)"/>
<defs>
<linearGradient id="paint0_linear_15132_822" x1="1.875" y1="15" x2="28.125" y2="15" gradientUnits="userSpaceOnUse">
<stop stop-color="#57D7FF"/>
<stop offset="0.317708" stop-color="#C557FF"/>
<stop offset="0.692708" stop-color="#7555FF"/>
<stop offset="1" stop-color="#8281FD"/>
</linearGradient>
</defs>
</svg>
