<svg width="105" height="100" viewBox="0 0 105 100" fill="none" xmlns="http://www.w3.org/2000/svg">
<g clip-path="url(#clip0_15207_921)">
<path d="M0.0151349 47.7778C0.0151349 38.6272 0.0382456 29.4765 0.000112982 20.3258C-0.0114424 17.5768 0.862142 15.3443 3.19055 13.7693C4.32528 13.002 5.56286 12.5202 6.93448 12.519C16.485 12.5063 26.0355 12.5005 35.5848 12.5329C36.3972 12.5352 36.5497 12.2336 36.7473 11.5241C37.2291 9.80233 38.0068 8.19383 39.0572 6.72168C40.4519 4.76536 42.1979 3.18921 44.2837 2.03598C46.4179 0.856182 48.7209 0.154772 51.188 0.0230411C53.3708 -0.0936679 55.4854 0.233349 57.5088 0.996002C60.3479 2.06603 62.7133 3.80973 64.5887 6.22133C65.7639 7.73161 66.5739 9.41985 67.2384 11.1901C67.3886 11.5911 67.2488 12.1885 67.5931 12.4069C68.0438 12.6935 68.6562 12.5051 69.197 12.5051C78.4609 12.5121 87.7249 12.5051 96.9888 12.5144C99.6569 12.5167 102.427 14.3482 103.436 16.8765C103.833 17.8737 103.997 18.8559 103.997 19.8844C104.005 38.4723 103.99 57.0591 104.016 75.647C104.02 78.7161 102.674 80.9232 100.054 82.3803C99.0514 82.9384 97.9005 83.0609 96.7507 83.0609C86.7843 83.0575 76.8178 83.0563 66.8513 83.0505C65.5941 83.0505 65.5917 83.039 65.5917 84.2569C65.5917 86.5449 65.6218 88.8328 65.579 91.1196C65.5675 91.769 65.7882 91.9054 66.3764 91.8915C67.5457 91.8626 68.7175 91.8904 69.888 91.9123C72.1344 91.9562 73.7903 93.0656 75.081 94.8185C75.9442 95.9914 76.3729 97.311 76.3914 98.7635C76.4029 99.6417 76.1464 99.9225 75.2844 99.9907C75.103 100.006 74.9204 99.9976 74.7378 99.9976C59.8014 99.9953 44.8638 99.993 29.9273 99.9907C29.7193 99.9907 29.5113 99.9861 29.3033 99.9907C27.674 100.018 27.5099 99.6613 27.674 98.1476C28.0241 94.9271 30.2925 92.5837 33.2125 91.9828C34.5876 91.6997 36.0655 91.8569 37.4938 91.9031C38.2298 91.9262 38.4667 91.7506 38.4471 90.974C38.3904 88.6872 38.4263 86.3993 38.4263 84.1113C38.4263 83.4088 38.0611 83.0567 37.3308 83.0552C33.3754 83.054 29.42 83.054 25.4646 83.054C19.4535 83.054 13.4425 83.0263 7.43136 83.0667C4.45008 83.0864 2.26612 81.791 0.796277 79.2742C0.194243 78.2423 0.00704619 77.0626 0.00820173 75.855C0.0162905 66.4963 0.0128239 57.1377 0.0116683 47.779L0.0151349 47.7778ZM51.983 67.2705V67.2729C68.3766 67.2729 84.7713 67.2694 101.165 67.2867C101.791 67.2867 101.999 67.1631 101.999 66.4894C101.978 50.788 101.984 35.0866 101.982 19.3852C101.982 18.3394 101.577 17.415 100.97 16.6003C99.8591 15.1132 98.3176 14.5331 96.4884 14.5423C92.3505 14.562 88.2137 14.5481 84.0757 14.5481C78.9497 14.5481 73.8226 14.5481 68.6967 14.5481C68.276 14.5481 67.9121 14.4811 67.9167 15.1582C67.9363 18.3267 68.0426 21.4929 67.8046 24.6625C67.6486 26.7425 67.1482 28.7358 66.4041 30.6389C65.4797 33.0043 64.0549 35.0901 62.1136 36.791C61.054 37.7201 59.9493 38.5994 58.6504 39.1287C58.0588 39.369 57.9329 39.6302 57.9421 40.1871C57.9687 41.7979 57.9063 43.4122 57.9629 45.0219C58.0137 46.4628 57.5411 47.69 56.6456 48.7681C54.7748 51.0203 51.8293 51.6061 49.3426 50.3258C47.2661 49.2569 46.0412 47.4543 46.0782 44.9768C46.1036 43.314 46.0782 41.6489 46.0886 39.9861C46.0909 39.6544 46.0551 39.4118 45.6877 39.2546C42.4522 37.8691 40.1434 35.439 38.5048 32.4323C36.8825 29.4557 36.1464 26.182 36.1002 22.7825C36.0667 20.2877 36.0724 17.7905 36.1083 15.2957C36.1164 14.7214 35.9904 14.5366 35.393 14.5377C25.9731 14.555 16.5532 14.5516 7.13323 14.5504C4.19702 14.5504 2.02692 17.0995 2.0327 19.8035C2.06159 35.3489 2.05119 50.8943 2.03154 66.4397C2.03154 67.1203 2.18407 67.2925 2.88317 67.2914C19.2513 67.2682 35.6183 67.2729 51.9865 67.2729L51.983 67.2705ZM52.0258 69.3066C47.2638 69.3066 42.503 69.3066 37.741 69.3066C26.136 69.3066 14.531 69.3112 2.92708 69.287C2.20834 69.2858 2.01074 69.473 2.02808 70.1871C2.07661 72.2139 2.0431 74.2419 2.04772 76.2687C2.04772 76.5264 2.03848 76.7956 2.10434 77.0406C2.78495 79.5782 4.86491 81.1485 7.52149 81.1474C36.9241 81.1451 66.3255 81.1427 95.7281 81.1451C96.7427 81.1451 97.7214 81.0954 98.7048 80.7221C100.619 79.9953 101.862 78.3648 101.962 76.3727C102.065 74.3505 101.992 72.3191 101.982 70.2911C101.976 69.2546 102.192 69.3066 100.971 69.3066C84.6569 69.3055 68.3419 69.3066 52.0281 69.3066H52.0258ZM66.0551 19.6718C66.0551 18.2551 66.0516 17.2682 66.0551 16.2803C66.0597 14.9768 65.8194 13.6919 65.482 12.4589C64.9885 10.654 64.175 8.9819 62.9883 7.48086C60.326 4.11595 56.8848 2.28558 52.6139 2.06372C49.8441 1.92043 47.2742 2.59411 44.888 4.05932C40.8772 6.52292 38.7383 10.1467 38.1224 14.7249C37.7884 17.2047 37.9051 19.7122 38.0103 22.1978C38.1455 25.3697 38.7082 28.4561 40.2578 31.3242C42.3724 35.238 45.4924 37.6484 49.9042 38.4561C53.0704 39.0362 55.9719 38.3949 58.6712 36.806C62.6521 34.4626 64.6465 30.7106 65.5548 26.3611C66.0401 24.0351 66.2296 21.6385 66.0563 19.6706L66.0551 19.6718ZM52.0327 83.0575V83.0494C48.4448 83.0494 44.858 83.0494 41.27 83.0494C40.8887 83.0494 40.4958 82.9558 40.5028 83.5983C40.5293 86.1693 40.5143 88.7404 40.5062 91.3115C40.5051 91.7286 40.638 91.8973 41.0944 91.8973C48.3477 91.8823 55.601 91.88 62.8543 91.8904C63.3743 91.8904 63.5176 91.7043 63.5152 91.2075C63.5014 88.7658 63.5025 86.3253 63.5314 83.8837C63.5384 83.277 63.3962 83.0332 62.7179 83.0401C59.1566 83.0748 55.5952 83.0563 52.0327 83.0563V83.0575ZM29.7216 98.0066C30.0371 98.0066 30.2948 98.0066 30.5525 98.0066C44.6246 98.0066 58.6967 98.0078 72.7688 98.0089C73.1328 98.0089 73.4979 97.987 73.8607 98.0112C74.3068 98.0401 74.2964 97.8587 74.1901 97.504C73.5083 95.2287 71.5185 93.8143 69.1866 93.8074C57.741 93.7751 46.2966 93.7912 34.851 93.797C34.0722 93.797 33.3119 93.9726 32.6174 94.3205C31.1244 95.0681 30.1295 96.2363 29.7216 98.0055V98.0066ZM56.0412 42.9281C56.0412 42.0961 56.0193 41.3947 56.0482 40.6956C56.0701 40.1594 55.8876 40.1236 55.4045 40.2426C53.1316 40.8042 50.8413 40.8296 48.573 40.2357C48.075 40.1051 48.0669 40.253 48.0704 40.6436C48.0842 41.9932 48.0831 43.3429 48.0704 44.6926C48.0519 46.4987 49.004 48.1672 50.9754 48.8086C52.7272 49.3783 55.1734 48.2608 55.7789 46.1867C56.1083 45.0589 56.0043 43.9311 56.0412 42.9292V42.9281Z" fill="url(#paint0_linear_15207_921)"/>
<path d="M51.9922 63.8376C43.432 63.8376 34.8718 63.8376 26.3116 63.8376C25.0208 63.8376 24.7805 63.5232 24.9838 62.2591C25.468 59.2559 25.9695 56.2538 26.382 53.2401C26.6513 51.2723 26.9691 49.3148 27.288 47.3562C27.437 46.4421 27.5526 45.5235 27.7282 44.6106C28.113 42.6069 29.4049 41.2884 30.9649 40.1433C32.6208 38.9265 34.539 38.2609 36.4352 37.5688C37.4417 37.2013 38.5105 36.9922 39.5621 36.7599C40.1422 36.6316 40.5374 36.9159 40.691 37.5006C40.8389 38.0657 40.5269 38.6827 39.9053 38.7913C38.3257 39.0652 36.8004 39.5066 35.3247 40.1179C33.3418 40.9395 31.4283 41.8847 30.1768 43.7347C29.8336 44.2408 29.6233 44.8429 29.5378 45.4553C29.16 48.1361 28.7301 50.8101 28.3488 53.4886C28.0183 55.8101 27.4856 58.1049 27.3388 60.453C27.3354 60.505 27.3331 60.557 27.325 60.6078C27.1794 61.476 27.5407 61.9109 28.4089 61.9124C44.3067 61.9136 60.2046 61.9147 76.1012 61.9159C77.0476 61.9159 77.0095 61.9182 76.8651 61.0088C76.4733 58.5383 76.1613 56.055 75.728 53.5926C75.4911 52.2452 75.2924 50.8933 75.0786 49.5436C74.8683 48.2193 74.6973 46.8893 74.4985 45.5628C74.2894 44.1669 73.596 43.046 72.4856 42.1944C70.9279 40.9996 69.1727 40.2173 67.3111 39.5933C66.181 39.2143 65.0266 39.0074 63.8849 38.7151C63.7601 38.6827 63.6376 38.6388 63.514 38.5984C62.9258 38.41 62.4347 38.1119 62.5942 37.3954C62.7479 36.7044 63.3337 36.4514 64.1184 36.6316C66.7229 37.2302 69.2905 37.9698 71.6571 39.2177C73.5972 40.2404 75.2854 41.6282 76.1093 43.7509C76.4398 44.6014 76.5577 45.5501 76.6698 46.4664C76.8882 48.2575 77.2221 50.0289 77.5075 51.8084C77.838 53.8676 78.0922 55.9395 78.4031 58.0033C78.618 59.4292 78.8514 60.8528 79.1149 62.2695C79.3333 63.4424 79.0305 63.841 77.8299 63.841C69.2177 63.841 60.6055 63.841 51.9933 63.841L51.9922 63.8376Z" fill="url(#paint1_linear_15207_921)"/>
<path d="M51.9313 76.3126C49.6422 76.3126 47.3543 76.3149 45.0652 76.3126C44.3464 76.3126 43.7802 75.8631 43.7548 75.29C43.7294 74.7088 44.2621 74.287 45.0744 74.2858C49.7035 74.28 54.3337 74.28 58.9628 74.2858C59.7543 74.2858 60.3078 74.7296 60.2789 75.3015C60.25 75.8516 59.6503 76.3149 58.9547 76.3161C56.6136 76.3184 54.2736 76.3161 51.9325 76.3161L51.9313 76.3126Z" fill="url(#paint2_linear_15207_921)"/>
</g>
<defs>
<linearGradient id="paint0_linear_15207_921" x1="0" y1="49.9999" x2="104.016" y2="49.9999" gradientUnits="userSpaceOnUse">
<stop stop-color="#6288A1"/>
<stop offset="0.520833" stop-color="#B377D3"/>
<stop offset="1" stop-color="#B86B85"/>
</linearGradient>
<linearGradient id="paint1_linear_15207_921" x1="24.9199" y1="50.2082" x2="79.1804" y2="50.2082" gradientUnits="userSpaceOnUse">
<stop stop-color="#6288A1"/>
<stop offset="0.520833" stop-color="#B377D3"/>
<stop offset="1" stop-color="#B86B85"/>
</linearGradient>
<linearGradient id="paint2_linear_15207_921" x1="43.7539" y1="75.2993" x2="60.28" y2="75.2993" gradientUnits="userSpaceOnUse">
<stop stop-color="#6288A1"/>
<stop offset="0.520833" stop-color="#B377D3"/>
<stop offset="1" stop-color="#B86B85"/>
</linearGradient>
<clipPath id="clip0_15207_921">
<rect width="104.017" height="100" fill="white"/>
</clipPath>
</defs>
</svg>
