<svg width="101" height="100" viewBox="0 0 101 100" fill="none" xmlns="http://www.w3.org/2000/svg">
<g clip-path="url(#clip0_15207_931)">
<path d="M49.9784 100C22.3837 100.102 -0.188509 77.4424 0.000198103 49.5864C0.188905 22.3401 22.3402 -0.159563 50.2978 0.000112257C62.8105 0.0726917 73.9006 4.25327 83.2053 12.6289C94.9196 23.182 100.552 36.4931 99.9857 52.2428C99.0567 77.6021 78.0231 100.029 49.9929 100H49.9784ZM8.78232 51.1832C8.78232 51.1832 8.78232 51.1832 8.78232 51.1686C7.2146 51.1686 5.64688 51.1686 4.07916 51.1686C3.54208 51.1686 2.84531 51.009 2.48242 51.2848C2.03242 51.6186 2.51145 52.3009 2.48242 52.838C2.48242 52.867 2.48242 52.896 2.48242 52.9106C2.52596 56.0024 3.06305 59.0363 3.84691 62.0265C4.73238 65.4232 5.95171 68.7038 7.5775 71.8248C8.65167 73.886 9.82746 75.9037 11.221 77.7908C13.0064 80.215 14.9225 82.523 17.129 84.5842C19.3789 86.689 21.7595 88.6197 24.3724 90.2599C26.1143 91.3486 27.9433 92.3067 29.8013 93.2067C32.9077 94.7018 36.1303 95.776 39.4689 96.5598C41.0221 96.9227 42.6189 97.126 44.2011 97.3727C45.5656 97.5905 46.9446 97.6485 48.3236 97.6921C48.6575 97.6921 48.8462 97.6485 48.8462 97.2276C48.8317 93.7873 48.8172 90.3325 48.8317 86.8923C48.8317 86.2681 48.7591 85.6439 48.8897 85.0197C49.0784 84.1633 50.1236 83.7568 50.7623 84.3229C51.1252 84.6423 51.2123 85.1358 51.1978 85.6149C51.1687 89.4471 51.2994 93.2938 51.1397 97.126C51.1252 97.605 51.2994 97.6921 51.7203 97.6921C52.5042 97.6921 53.2735 97.576 54.0574 97.5469C56.1332 97.4598 58.1654 97.0389 60.1976 96.6324C62.4911 96.1679 64.7266 95.4711 66.9185 94.6437C69.0233 93.8454 71.07 92.9164 73.0297 91.8131C75.3377 90.5212 77.5296 89.0842 79.6054 87.4293C81.6957 85.76 83.6553 83.9746 85.4262 81.9859C87.444 79.7214 89.273 77.3263 90.8262 74.7134C92.51 71.9119 93.9035 68.9796 95.0067 65.9168C95.8051 63.7104 96.4438 61.4604 96.8357 59.1524C97.2422 56.7573 97.6631 54.3476 97.6777 51.8944C97.6777 51.3283 97.489 51.1977 96.9664 51.1977C93.2648 51.2267 89.5488 51.2267 85.8472 51.2267C85.5133 51.2267 85.165 51.2122 84.8456 51.1106C84.0327 50.8928 83.8005 49.9638 84.3521 49.3251C84.7585 48.8461 85.2956 48.8316 85.8472 48.8316C89.6068 48.8316 93.3664 48.8316 97.1261 48.8606C97.5761 48.8606 97.7212 48.759 97.6922 48.309C97.6051 46.7268 97.4744 45.1591 97.2567 43.5768C96.8793 40.9204 96.2987 38.3221 95.5148 35.7528C94.4842 32.3415 93.0471 29.119 91.2907 26.0416C89.752 23.3562 87.8649 20.9465 85.8762 18.595C83.1182 15.3579 79.9102 12.6435 76.4409 10.2774C72.1877 7.3887 67.4846 5.38551 62.5637 3.97747C59.0654 2.97587 55.4654 2.59846 51.8365 2.3662C51.3574 2.33717 51.1978 2.46781 51.1978 2.96135C51.2268 6.22743 51.2413 9.49351 51.2413 12.7596C51.2413 13.5434 51.2994 14.3273 51.1542 15.0966C51.0816 15.4595 50.922 15.7063 50.5736 15.8515C49.63 16.2434 48.8752 15.6773 48.8607 14.4725C48.8462 12.9047 48.8752 11.337 48.8607 9.76931C48.8607 7.54838 48.8607 5.32745 48.8317 3.10651C48.8317 2.75813 48.9042 2.32266 48.3091 2.3662C46.8865 2.46781 45.435 2.49685 44.0269 2.70007C41.5447 3.03393 39.106 3.54199 36.6964 4.23875C34.1126 4.97906 31.6013 5.95163 29.2062 7.12742C25.4175 8.97093 21.9482 11.279 18.7547 14.0515C16.1419 16.316 13.8193 18.8563 11.7436 21.5998C10.0452 23.8497 8.60812 26.2884 7.33073 28.8142C5.37108 32.6609 4.09368 36.7398 3.17918 40.9494C2.65661 43.3591 2.56951 45.8413 2.39532 48.2945C2.36629 48.6864 2.4679 48.8461 2.90338 48.8461C6.32913 48.8171 9.74037 48.8171 13.1661 48.8171C13.8193 48.8171 14.4725 48.73 15.1112 48.9042C15.6919 49.0784 15.9677 49.5283 15.9677 50.0509C15.9677 50.5445 15.7499 51.0235 15.1258 51.0961C14.8209 51.1396 14.5016 51.1832 14.1967 51.1832C12.3968 51.1832 10.5968 51.1832 8.78232 51.1832Z" fill="url(#paint0_linear_15207_931)"/>
<path d="M49.9634 76.1648C46.5376 76.1648 43.1119 76.1648 39.7006 76.1648C35.9991 76.1648 33.3717 74.3503 31.5427 71.2585C30.5556 69.5746 30.3088 67.7456 30.3524 65.815C30.4104 63.5215 30.3524 61.2135 30.4104 58.9199C30.454 57.178 31.3685 55.9006 32.7185 54.899C33.7491 54.1442 34.9249 53.7378 36.1587 53.3749C37.799 52.8958 39.4974 52.6491 41.0941 52.0394C41.7183 51.8072 42.2119 51.9523 42.7054 52.4313C44.1425 53.8103 45.7828 54.87 47.786 55.2329C51.1246 55.8426 54.173 55.2619 56.7423 52.9104C57.5697 52.1555 58.3245 51.9233 59.5148 52.2862C61.3728 52.8668 63.3325 53.1281 65.176 53.7668C67.2082 54.4781 68.8776 55.6684 69.5018 57.8893C69.6759 58.499 69.6324 59.1377 69.6324 59.7473C69.6469 62.3312 69.6324 64.915 69.6034 67.4988C69.5743 69.923 68.4711 71.8681 66.8018 73.5084C64.9147 75.3664 62.6502 76.2084 59.9938 76.1648C56.6552 76.1068 53.302 76.1648 49.9634 76.1503V76.1648ZM50.0069 73.8278C53.4036 73.8278 56.8003 73.7987 60.1971 73.8278C61.6777 73.8423 63.0131 73.4794 64.218 72.652C65.9454 71.4762 67.1211 69.8649 67.2228 67.7456C67.3534 64.9876 67.2953 62.2151 67.2953 59.4425C67.2953 58.7748 67.2663 58.0925 66.7873 57.5264C66.0615 56.67 65.1325 56.1184 64.0728 55.8281C62.4325 55.3635 60.7922 54.9571 59.1374 54.5507C58.8181 54.4781 58.5422 54.5071 58.2229 54.7829C57.0471 55.8571 55.6536 56.67 54.1584 57.149C49.6005 58.5861 45.4344 57.7732 41.7474 54.6813C41.457 54.449 41.2829 54.3765 40.9345 54.4926C39.8893 54.8555 38.7716 55.0152 37.7265 55.349C36.7103 55.6684 35.6216 55.8135 34.6636 56.3942C33.5168 57.0909 32.704 57.9329 32.7185 59.4135C32.762 61.9683 32.7185 64.5376 32.7475 67.0924C32.7475 67.6875 32.8781 68.2537 33.0088 68.8343C33.6185 71.5778 36.8555 73.9149 39.7296 73.8278C43.1409 73.7262 46.5666 73.7987 49.9924 73.7987L50.0069 73.8278Z" fill="url(#paint1_linear_15207_931)"/>
<path d="M62.5342 38.5542C62.6358 45.5944 56.8584 50.7911 50.6456 51.0669C42.9232 51.4153 37.7265 45.2605 37.4652 39.1348C37.1458 31.5285 43.2135 26.2012 49.5424 25.9834C56.8004 25.7367 62.7083 31.7317 62.5196 38.5397L62.5342 38.5542ZM50.0069 48.7298C55.552 48.8315 60.11 44.1719 60.2261 38.7139C60.3423 32.864 55.3633 28.0592 49.4989 28.335C44.4619 28.5673 39.8023 32.864 39.7877 38.4961C39.7877 44.1719 44.3893 48.8169 50.0069 48.7444V48.7298Z" fill="url(#paint2_linear_15207_931)"/>
<path d="M20.3077 48.7444C19.6013 48.8992 19.5045 49.3202 20.0174 50.0073C20.2351 50.0073 20.2061 49.775 20.3222 49.6879C20.5255 49.5573 20.5109 49.0928 20.8593 49.2669C21.1061 49.3976 21.1932 49.7169 21.1642 50.0218C21.1496 50.196 21.0625 50.3702 21.0335 50.5443C21.0045 50.675 20.9755 50.8201 20.8448 50.8492C20.6561 50.8782 20.6271 50.6895 20.54 50.5879C20.3513 50.3847 20.2351 49.8476 19.8142 50.3121C19.64 50.5008 19.3642 50.6895 19.4513 50.9653C19.5674 51.2992 19.9593 51.0814 20.2787 51.2411C19.8722 51.7927 19.2626 52.025 18.7981 52.4459C18.1594 53.0121 17.4626 53.5056 16.7804 54.0427C16.1707 54.5217 15.2997 54.5798 14.9368 54.1588C14.4723 53.6072 14.603 52.8959 15.3143 52.2717C16.0836 51.6185 16.8384 50.9653 17.6513 50.3702C18.0578 50.0798 18.1158 49.9637 17.6803 49.6734C16.8384 49.0782 16.04 48.425 15.2126 47.7863C14.6756 47.3799 14.5304 46.4944 14.9368 45.9864C15.3143 45.4928 16.04 45.4638 16.6207 45.9138C17.8255 46.8428 19.0303 47.7573 20.3222 48.7589L20.3077 48.7444Z" fill="url(#paint3_linear_15207_931)"/>
<path d="M48.7442 79.7649C48.8023 79.9681 48.8023 80.0842 48.8458 80.1568C48.962 80.3165 48.7732 80.6504 49.049 80.6794C49.441 80.7375 49.499 80.302 49.7313 80.1133C50.0506 79.8375 49.6006 79.8375 49.5281 79.6923C49.441 79.5181 49.1216 79.4455 49.2523 79.1842C49.3539 78.9665 49.6006 78.981 49.8039 78.9665C50.1668 78.952 50.5297 78.9375 50.878 79.1697C50.7619 79.5471 50.1377 79.6342 50.2248 80.0117C50.2829 80.2875 50.5587 80.6649 51.0377 80.6649C51.0668 80.3746 51.0958 80.0988 51.1248 79.7649C51.8506 79.9826 51.9813 80.7374 52.4167 81.202C53.0119 81.8407 53.4909 82.581 54.0425 83.2632C54.6231 83.9745 54.507 84.8454 53.7957 85.2519C53.2151 85.5858 52.7796 85.3245 52.4312 84.9035C51.749 84.1051 51.0668 83.2922 50.4426 82.4358C50.0506 81.8987 49.8039 82.0874 49.499 82.4794C48.9184 83.2342 48.3378 83.989 47.7426 84.7293C47.1475 85.4406 46.6104 85.5567 46.0878 85.1358C45.4491 84.6277 45.4056 83.989 45.9862 83.2487C46.8862 82.1019 47.7862 80.9552 48.7442 79.7359V79.7649Z" fill="url(#paint4_linear_15207_931)"/>
<path d="M51.3138 20.2353C51.009 19.2772 50.9509 19.2482 50.3993 19.7127C50.0945 19.974 50.08 20.1627 50.4138 20.3659C50.6025 20.482 50.9364 20.5401 50.8058 20.8159C50.7332 20.9756 50.4284 21.0772 50.2106 21.1207C49.8477 21.1933 49.3687 21.1933 49.2526 20.8159C49.1074 20.3514 49.7606 20.4095 49.9638 20.0466C49.688 19.7998 49.4268 19.3788 49.0348 19.4224C48.73 19.4514 48.8461 19.9595 48.6719 20.2208C47.7284 18.9724 46.7704 17.7385 45.8413 16.4902C45.4059 15.9095 45.4784 15.2418 46.001 14.8644C46.5236 14.487 47.2929 14.6467 47.7139 15.1983C48.3526 16.0547 49.0203 16.8821 49.659 17.724C49.8477 17.9708 50.0074 18.0869 50.2542 17.7531C50.9364 16.8821 51.6332 16.0257 52.3154 15.1547C52.7219 14.6467 53.5638 14.5015 54.0428 14.8644C54.4493 15.1692 54.5364 16.0257 54.1735 16.5047C53.2299 17.7385 52.2719 18.9434 51.2703 20.2208L51.3138 20.2353Z" fill="url(#paint5_linear_15207_931)"/>
<path d="M79.8224 51.154C79.9676 51.1395 80.0692 51.1395 80.1708 51.096C80.345 51.0379 80.6644 51.1976 80.6934 50.8927C80.7079 50.5879 80.374 50.4428 80.1999 50.2395C79.9821 50.0073 79.866 50.2686 79.6918 50.3411C79.4741 50.4428 79.5321 50.8782 79.2273 50.7621C78.995 50.675 79.0096 50.3702 79.0241 50.1379C79.0531 49.8331 78.9079 49.4702 79.2273 49.267C79.5031 49.0783 79.4741 49.5137 79.6773 49.5718C79.8515 49.6153 79.9095 50.0363 80.1418 49.8041C80.345 49.6008 80.7805 49.4847 80.7224 49.1218C80.6498 48.6573 80.1418 48.9766 79.8079 48.7299C80.824 47.9315 81.8256 47.1476 82.8272 46.3638C83.045 46.1896 83.2772 46.0154 83.5095 45.8412C84.1191 45.3912 84.7869 45.4783 85.2659 46.088C85.6288 46.5525 85.5417 47.1912 84.9756 47.6412C84.2208 48.2509 83.4224 48.846 82.6385 49.4121C82.145 49.775 81.9418 50.0363 82.595 50.4863C83.4224 51.0524 84.1917 51.7056 84.9466 52.3734C85.5998 52.9395 85.6578 53.433 85.2224 53.9846C84.7578 54.5653 84.1191 54.5508 83.6111 54.1879C82.3482 53.2879 81.1434 52.3153 79.9241 51.3573C79.895 51.3282 79.895 51.2702 79.866 51.1395L79.8224 51.154Z" fill="url(#paint6_linear_15207_931)"/>
</g>
<defs>
<linearGradient id="paint0_linear_15207_931" x1="-0.000976563" y1="49.9999" x2="100.024" y2="49.9999" gradientUnits="userSpaceOnUse">
<stop stop-color="#6288A1"/>
<stop offset="0.520833" stop-color="#B377D3"/>
<stop offset="1" stop-color="#B86B85"/>
</linearGradient>
<linearGradient id="paint1_linear_15207_931" x1="30.3477" y1="64.0487" x2="69.6381" y2="64.0487" gradientUnits="userSpaceOnUse">
<stop stop-color="#6288A1"/>
<stop offset="0.520833" stop-color="#B377D3"/>
<stop offset="1" stop-color="#B86B85"/>
</linearGradient>
<linearGradient id="paint2_linear_15207_931" x1="37.4531" y1="38.5286" x2="62.5355" y2="38.5286" gradientUnits="userSpaceOnUse">
<stop stop-color="#6288A1"/>
<stop offset="0.520833" stop-color="#B377D3"/>
<stop offset="1" stop-color="#B86B85"/>
</linearGradient>
<linearGradient id="paint3_linear_15207_931" x1="14.6641" y1="50.0183" x2="21.1695" y2="50.0183" gradientUnits="userSpaceOnUse">
<stop stop-color="#6288A1"/>
<stop offset="0.520833" stop-color="#B377D3"/>
<stop offset="1" stop-color="#B86B85"/>
</linearGradient>
<linearGradient id="paint4_linear_15207_931" x1="45.5781" y1="82.1817" x2="54.4131" y2="82.1817" gradientUnits="userSpaceOnUse">
<stop stop-color="#6288A1"/>
<stop offset="0.520833" stop-color="#B377D3"/>
<stop offset="1" stop-color="#B86B85"/>
</linearGradient>
<linearGradient id="paint5_linear_15207_931" x1="45.5566" y1="17.9085" x2="54.4024" y2="17.9085" gradientUnits="userSpaceOnUse">
<stop stop-color="#6288A1"/>
<stop offset="0.520833" stop-color="#B377D3"/>
<stop offset="1" stop-color="#B86B85"/>
</linearGradient>
<linearGradient id="paint6_linear_15207_931" x1="79.0156" y1="50.0005" x2="85.5024" y2="50.0005" gradientUnits="userSpaceOnUse">
<stop stop-color="#6288A1"/>
<stop offset="0.520833" stop-color="#B377D3"/>
<stop offset="1" stop-color="#B86B85"/>
</linearGradient>
<clipPath id="clip0_15207_931">
<rect width="100.015" height="100" fill="white"/>
</clipPath>
</defs>
</svg>
