<svg width="102" height="100" viewBox="0 0 102 100" fill="none" xmlns="http://www.w3.org/2000/svg">
<g clip-path="url(#clip0_15207_945)">
<path d="M62.2923 93.8448C61.6955 93.9914 61.0926 94.1055 60.4918 94.2338C60.6323 93.8611 60.7708 93.4884 60.9114 93.1177C61.0662 92.3559 60.7708 91.8304 60.0946 91.4658C59.3899 91.0869 58.8786 91.3762 58.2839 91.7815C56.7522 92.8264 55.1675 93.7939 53.6053 94.7899C53.3975 94.9019 53.1898 95.0139 52.982 95.1239C52.3302 95.2726 51.6805 95.4193 50.9716 95.5822V80.0799C50.9716 79.7398 50.9716 79.4017 50.9716 79.0615C50.9411 78.4505 50.9126 77.8394 50.882 77.2304C50.8515 76.8903 50.8189 76.5501 50.7883 76.212C50.7659 76.0083 50.7435 75.8046 50.7211 75.601C50.7904 68.0953 50.8576 60.5916 50.9268 53.0859C50.9309 52.5787 50.9554 52.0715 50.9716 51.5664C50.9411 51.2955 50.9126 51.0246 50.882 50.7517C50.9105 50.6845 50.9411 50.6152 50.9696 50.548C50.9411 49.9369 50.9146 49.3259 50.8861 48.7148L50.9716 47.4928C50.9411 47.3563 50.9126 47.2198 50.882 47.0854C50.882 40.8405 50.882 34.5935 50.88 28.3486C50.9105 27.8985 50.9391 27.4483 50.9676 27.0247C51.4788 26.9228 51.9351 26.8312 52.3913 26.7395C54.7642 26.5827 57.1392 26.4259 59.5121 26.269C59.8135 26.2731 60.1211 26.324 60.4123 26.2772C62.4227 25.9492 64.429 25.6009 66.4373 25.2588C67.0483 25.1223 67.6594 24.9858 68.2704 24.8494C68.9487 27.3852 69.6636 29.9129 70.2909 32.463C70.6331 33.8603 70.8266 35.2942 71.0853 36.7139C71.1097 36.9135 71.1322 37.1131 71.1566 37.3107C71.4234 37.9176 71.6902 38.5266 71.9571 39.1336C73.3116 39.5532 74.1528 38.9381 74.1752 37.5001C74.1813 37.1701 74.1528 36.8381 74.1405 36.5061C74.0957 36.1619 74.053 35.8197 74.0081 35.4755C73.8737 34.6607 73.7393 33.846 73.6028 33.0313C73.5376 32.6911 73.4725 32.351 73.4073 32.0108C73.2403 31.2002 73.0753 30.3916 72.9083 29.5809L72.7107 28.7682C72.507 27.9535 72.3033 27.1367 72.0976 26.322L71.9102 25.7089C71.7534 25.218 71.5986 24.7292 71.4356 24.2179C72.2707 23.9593 73.0203 23.7291 73.7678 23.4989C74.3116 23.3584 74.8555 23.2199 75.3973 23.0794C76.8862 22.5213 78.3751 21.9632 79.8661 21.4051L79.8599 21.4112L80.0759 21.2666C80.6828 21.0323 81.2918 20.7961 81.8988 20.5618C82.3815 20.3032 82.8582 20.0343 83.349 19.7899C84.5161 19.2053 84.8094 19.3255 85.4062 20.5944C85.6038 20.8001 85.8034 21.0059 86.001 21.2116C86.4145 21.8206 86.8259 22.4316 87.2394 23.0407C87.3229 23.1221 87.4044 23.2036 87.4879 23.2871C87.8728 23.8819 88.2578 24.4787 88.6448 25.0734C89.2497 26.0979 89.9728 27.0715 90.4372 28.1551C91.5982 30.8641 92.6207 33.6322 93.7491 36.3554C93.9772 36.9033 94.3296 37.553 94.8082 37.7975C95.1973 37.995 96.0772 37.8341 96.346 37.5082C96.6841 37.0968 96.8145 36.3147 96.6964 35.7647C96.4153 34.4408 95.9387 33.1596 95.5415 31.8601C95.3969 31.5098 95.2502 31.1594 95.1056 30.8071C94.8469 30.2001 94.5882 29.5931 94.3296 28.9862L93.9303 28.1511C93.5841 27.4708 93.2378 26.7925 92.8916 26.1122L92.7001 25.7293C92.2439 24.9899 91.7856 24.2505 91.3293 23.5112C89.763 21.3623 88.3291 19.0974 86.5896 17.0992C84.8766 15.1296 82.8907 13.3922 80.9619 11.6222C78.3018 9.18006 75.2486 7.2797 72.0691 5.61561C66.0971 2.49112 59.6852 0.837219 52.9942 0.201729L50.1427 0.00619418C49.8025 0.00415735 49.4624 0.00212053 49.1242 -0.00195312C47.5274 0.144698 45.9346 0.346344 44.3357 0.429854C41.0197 0.600947 37.8199 1.36272 34.6607 2.29355C31.192 3.31807 27.9739 4.90883 24.8107 6.66458C21.4601 8.5242 18.4354 10.7749 15.6694 13.4024C15.3842 13.6733 15.0319 13.8749 14.71 14.1092C14.4432 14.376 14.1784 14.6428 13.9116 14.9096C13.7018 15.205 13.5104 15.5105 13.2822 15.7896C11.7953 17.6146 10.3003 19.4355 8.80936 21.2564C8.64641 21.5049 8.46513 21.7452 8.32255 22.006C7.04954 24.3198 5.78467 26.6377 4.51776 28.9536C4.03707 30.1044 3.55842 31.2531 3.07773 32.4039C3.07773 32.4039 3.07977 32.4039 3.0818 32.4039C3.02884 32.4752 2.97792 32.5465 2.92497 32.6178C2.63574 33.567 2.34447 34.5182 2.05524 35.4673C2.01043 35.673 1.96562 35.8788 1.92285 36.0865L1.71102 36.4939C0.62539 40.6348 -0.0426884 44.8306 0.00212174 49.1222C0.0815579 50.7333 0.0469319 52.3608 0.268946 53.9536C0.637611 56.6035 0.994056 59.2778 1.68454 61.8544C2.43409 64.655 3.55842 67.3538 4.5198 70.0975L5.34879 71.898C5.4934 72.177 5.64006 72.4561 5.78467 72.7351C6.18185 73.4175 6.57903 74.0998 6.97621 74.7842C7.04343 74.9125 7.10861 75.0408 7.17582 75.1691C7.29599 75.2812 7.4345 75.3789 7.53023 75.5073C9.19432 77.76 10.6771 80.1797 12.5612 82.2288C14.6958 84.5467 17.1033 86.6405 19.5475 88.6407C23.56 91.9241 28.1511 94.2155 33.015 95.9733C38.0887 97.8085 43.3498 98.6171 48.7169 98.8554C49.666 98.8391 50.6152 98.8208 51.5644 98.8045L52.7905 98.6476C54.1165 98.501 55.4567 98.4399 56.7623 98.1894C58.9397 97.7718 61.1028 97.2687 63.2537 96.7289C64.1255 96.511 64.5858 95.6189 64.376 94.8632C64.1458 94.0302 63.2619 93.6045 62.2944 93.8428L62.2923 93.8448ZM47.0956 72.1587C43.356 72.3909 39.6204 72.7025 35.8828 72.9857C35.2046 73.1221 34.5243 73.2566 33.846 73.393C33.7095 73.393 33.5751 73.391 33.4387 73.389C32.6911 73.5275 31.9457 73.6639 31.1981 73.8024C30.9048 73.8432 30.6115 73.8839 30.3182 73.9246C28.1898 68.5515 26.6214 56.3876 26.7762 50.8861H30.5871C31.1981 50.8861 31.8092 50.8861 32.4202 50.8841C33.1678 50.8841 33.9132 50.8841 34.6607 50.8861C34.7259 50.7843 34.7891 50.6804 34.8522 50.5765C34.7891 50.6804 34.7259 50.7822 34.6607 50.8861C35.2718 50.8861 35.8828 50.8861 36.4959 50.8841C37.2414 50.8841 37.9889 50.8841 38.7344 50.8861C39.3454 50.8861 39.9565 50.8861 40.5696 50.8841C41.3151 50.8841 42.0626 50.8841 42.808 50.8861C42.8732 50.7843 42.9364 50.6804 42.9995 50.5765C42.9364 50.6804 42.8732 50.7822 42.808 50.8861C43.4191 50.8861 44.0301 50.8861 44.6432 50.8841C45.458 50.8841 46.2727 50.8841 47.0854 50.8861C47.3461 50.9126 47.6068 50.9391 47.8675 50.9655C47.8838 51.5725 47.9001 52.1795 47.9164 52.7844C47.9001 53.3934 47.8716 54.0004 47.8716 54.6094C47.8675 60.0966 47.8696 65.5818 47.8716 71.069C47.8716 71.6128 47.9673 72.1017 47.0996 72.1546L47.0956 72.1587ZM26.6845 46.4743C26.764 45.8124 26.8617 45.1524 26.9228 44.4884C27.1367 42.1624 27.263 39.8261 27.5624 37.5123C27.872 35.1251 28.3425 32.7584 28.7417 30.3834C29.0065 29.365 29.2713 28.3466 29.5341 27.3282C29.754 26.5196 29.974 25.7109 30.194 24.9023C31.8866 25.2241 33.5792 25.546 35.2698 25.8678C35.7871 25.935 36.3024 26.0022 36.8198 26.0674C37.6406 26.1427 38.4615 26.2079 39.2803 26.2955C40.3883 26.4157 41.4963 26.5521 42.6023 26.6805C43.2134 26.6744 43.8244 26.6662 44.4355 26.6601C45.183 26.7355 45.9285 26.8088 46.676 26.8841C47.0772 26.9106 47.4765 26.9351 47.8777 26.9615C47.8899 27.5583 47.9001 28.1551 47.9123 28.7499C47.9123 29.2937 47.9123 29.8355 47.9123 30.3793C48.059 30.2571 48.2036 30.1329 48.3482 30.0107C48.2036 30.1349 48.059 30.2592 47.9123 30.3793V47.8125C47.4052 47.8533 47.0406 47.8818 46.678 47.9103C46.1342 47.9103 45.5924 47.9103 45.0486 47.9103C44.301 47.9103 43.5556 47.9103 42.808 47.9103C42.197 47.9103 41.586 47.9103 40.9749 47.9103C40.2274 47.9103 39.4819 47.9103 38.7344 47.9103C38.1234 47.9103 37.5123 47.9103 36.9013 47.9103C36.1537 47.9103 35.4083 47.9103 34.6607 47.9103C34.0497 47.9103 33.4387 47.9103 32.8276 47.9103C30.7969 47.892 28.7662 47.8716 26.7355 47.8533C26.7171 47.3909 26.7008 46.9306 26.6825 46.4682L26.6845 46.4743ZM68.4578 7.2023C68.5943 7.26544 68.7287 7.32858 68.8652 7.39376L68.855 7.38154C68.9303 7.43246 69.0057 7.48338 69.0811 7.5343C72.3115 9.16784 75.4441 10.9582 78.2285 13.2904C79.5667 14.4127 80.8498 15.6001 82.2512 16.8406C78.701 18.798 75.0082 19.9141 71.3256 21.0527C70.9957 21.1036 70.6657 21.1525 70.3358 21.2034C70.181 20.7329 70.0282 20.2624 69.8734 19.7919C68.0443 14.9972 65.7264 10.4897 62.1966 6.69106C61.5244 5.96798 60.838 5.25713 60.1577 4.54221C62.4614 5.25509 64.765 5.96391 67.0666 6.68495C67.5392 6.83363 67.9954 7.02713 68.4578 7.20026V7.2023ZM50.9248 4.58905C50.9248 4.1878 50.9248 3.78654 50.9248 3.34251C53.2936 3.59915 55.2001 4.72348 57.0577 5.96595C57.1819 6.03316 57.3062 6.09834 57.4304 6.16556C57.9844 6.70939 58.5405 7.25526 59.0945 7.79909C59.2982 8.00277 59.5019 8.20646 59.7056 8.41014C60.8034 9.82981 61.9033 11.2474 63.0011 12.6671C63.0582 12.7384 63.1152 12.8117 63.1722 12.883C64.3964 15.3211 65.6205 17.7612 66.8467 20.1993C66.9241 20.4722 67.0035 20.7431 67.0809 21.0161C67.144 21.3236 67.2092 21.6312 67.2724 21.9387C66.8304 22.0406 66.3904 22.1567 65.9464 22.2422C64.5451 22.5111 63.1437 22.7698 61.7424 23.0305C59.3695 23.2525 56.9945 23.4745 54.6216 23.6965C54.0106 23.7658 53.3996 23.833 52.7885 23.9022C52.1795 23.89 51.5705 23.8778 50.9635 23.8635C50.937 23.4562 50.9085 23.0508 50.882 22.6435C50.8963 16.6247 50.9105 10.6079 50.9248 4.58905ZM45.1972 3.92505C46.012 3.59508 46.9 3.44843 47.8309 3.19586V23.613C47.3441 23.7026 46.8084 23.8004 46.2727 23.8982L44.8469 23.6945C42.8773 23.558 40.9097 23.4236 38.9401 23.2871C38.3963 23.2199 37.8545 23.1527 37.3107 23.0855C35.5447 22.8146 33.7808 22.5416 32.0149 22.2707C31.7644 22.118 31.5159 21.9632 31.023 21.6597C32.685 18.5067 34.1739 15.2763 36.0295 12.272C38.2598 8.65456 41.1256 5.57691 45.1993 3.92708L45.1972 3.92505ZM16.7285 16.4515C17.9506 15.3679 19.0994 14.1886 20.405 13.217C22.2463 11.8463 24.1996 10.6303 26.1061 9.34911C26.2446 9.23913 26.3851 9.12914 26.5236 9.01915C28.6541 8.05573 30.7562 7.02306 32.9233 6.1513C34.5385 5.50155 36.2332 5.05345 37.9013 4.54424C38.0317 4.50351 38.6203 4.2489 38.3148 4.88847C37.7628 5.43841 37.2109 5.98835 36.6589 6.53829C34.5121 8.55068 32.9885 11.0254 31.6503 13.5918C30.4404 15.9118 29.4444 18.3458 28.4179 20.7574C28.1775 21.3216 27.9168 21.2503 27.5013 21.1036C24.4583 20.0282 21.4112 18.9589 18.3661 17.8875C18.1482 17.8121 17.9282 17.7469 17.7082 17.6757C17.3844 17.5086 17.0605 17.3396 16.7367 17.1705C16.2214 16.9383 16.4495 16.7 16.7265 16.4515H16.7285ZM3.33437 44.8449C3.4688 43.8265 3.60323 42.8081 3.73766 41.7896C3.81099 41.313 3.88227 40.8384 3.9556 40.3618C4.28964 39.0725 4.62368 37.7832 4.95772 36.4939C5.1614 35.8828 5.36508 35.2718 5.56877 34.6607C5.76227 33.9845 5.95576 33.3083 6.14926 32.6321C6.60755 31.6727 7.06583 30.7134 7.52412 29.754C7.62392 29.4261 7.72373 29.0982 7.8215 28.7702C8.06795 28.422 8.31644 28.0757 8.5629 27.7274C8.7177 27.3261 8.87046 26.9249 9.02526 26.5236C9.09044 26.3872 9.15765 26.2507 9.22283 26.1142C9.75852 25.2995 10.2962 24.4848 10.8319 23.67C11.8198 22.3196 12.7852 20.9509 13.822 19.6392C13.9625 19.4599 14.5023 19.4538 14.7854 19.5597C15.3313 19.7654 15.8283 20.1097 16.3436 20.3969C16.476 20.462 16.6084 20.5272 16.7408 20.5944C17.4862 20.8837 18.2317 21.1749 18.9772 21.4642C19.2909 21.6067 19.6045 21.7513 19.9182 21.8919C20.348 22.0141 20.7798 22.1363 21.2096 22.2606C21.4132 22.3318 21.6149 22.4011 21.8186 22.4724C21.8226 22.5233 21.8287 22.5763 21.8369 22.6272C22.1058 22.7107 22.3767 22.7942 22.6455 22.8777L25.0266 23.6008C25.7191 23.78 26.4116 23.9593 27.1612 24.1548C26.8841 25.3871 26.6173 26.5623 26.3525 27.7376C26.1489 28.4851 25.9452 29.2306 25.7415 29.9781C25.5358 30.9965 25.33 32.0149 25.1223 33.0333C24.5398 37.9563 23.9552 42.8793 23.3666 47.8553C23.1771 47.8675 22.8085 47.894 22.4418 47.9184C21.8308 47.9184 21.2197 47.9184 20.6087 47.9184C19.8612 47.9184 19.1157 47.9184 18.3682 47.9184C17.7571 47.9184 17.1461 47.9184 16.535 47.9184C15.7875 47.9184 15.042 47.9184 14.2945 47.9184C13.6835 47.9184 13.0724 47.9184 12.4614 47.9184C11.7139 47.9184 10.9684 47.9184 10.2209 47.9184C9.60983 47.9184 8.99878 47.9184 8.38773 47.9184H3.00848C3.12661 46.8084 3.23049 45.8266 3.33437 44.8449ZM13.6896 78.9352C13.4004 78.5116 13.1234 78.0777 12.8402 77.648C12.7119 77.5156 12.5816 77.3832 12.4532 77.2528C10.229 74.4176 8.48143 71.3033 6.9864 68.0321C5.29379 64.3292 4.29982 60.4184 3.54009 56.4507C3.20401 54.6909 3.19179 52.8679 3.01662 50.8902H6.14926C6.76031 50.8902 7.37136 50.8902 7.9824 50.8881C8.72992 50.8881 9.4754 50.8881 10.2229 50.8902C10.834 50.8902 11.445 50.8902 12.0581 50.8881C12.8036 50.8881 13.5511 50.8881 14.2966 50.8902C14.3617 50.7883 14.4249 50.6845 14.488 50.5806C14.4249 50.6845 14.3617 50.7863 14.2966 50.8902C14.9076 50.8902 15.5187 50.8902 16.1317 50.8881C16.8772 50.8881 17.6247 50.8881 18.3702 50.8902C18.9813 50.8902 19.5923 50.8902 20.2054 50.8881C20.9529 50.8881 21.6984 50.8881 22.4459 50.8902C22.8533 50.9105 23.2627 50.9309 23.67 50.9513C23.8737 53.7886 24.055 56.6279 24.2872 59.4611C24.4379 61.3147 24.662 63.1621 24.8534 65.0115C24.9227 65.2824 24.9899 65.5553 25.0592 65.8262L25.5174 68.2623C25.5806 68.5311 25.6458 68.8 25.7089 69.0689C25.9126 69.8877 26.1163 70.7065 26.3199 71.5253C26.3872 71.7941 26.4544 72.063 26.5216 72.3318C26.764 73.0916 27.0064 73.8513 27.2508 74.6192C25.8576 75.0306 24.6375 75.3932 23.4154 75.7537C22.8879 75.8983 22.3583 76.0409 21.8308 76.1855C20.2034 76.8129 18.578 77.4422 16.9506 78.0696C16.2703 78.4036 15.5899 78.7397 14.9096 79.0737C14.433 79.6441 14.0379 79.4444 13.6896 78.9352ZM29.7092 91.3945C29.4628 91.2825 29.2143 91.1684 28.9678 91.0564C26.3301 89.3719 23.6619 87.7323 21.071 85.9806C19.8306 85.1414 18.7368 84.0843 17.5759 83.127C17.2988 82.85 17.0239 82.575 16.7469 82.298C16.7937 82.0414 16.7652 81.6177 16.9017 81.5546C20.5231 79.8824 24.2587 78.5218 28.147 77.6031C28.2936 77.8863 28.4403 78.1674 28.5869 78.4505C30.3081 83.1698 32.6524 87.549 35.8034 91.4658C36.5978 92.4537 37.6304 93.248 38.4798 94.2379C35.3777 93.7531 32.571 92.4903 29.7113 91.3945H29.7092ZM47.8716 94.0078C47.8716 94.4783 47.8716 94.9467 47.8716 95.407C44.796 95.8124 38.3454 91.0034 36.2597 86.8157C36.1252 86.612 35.9928 86.4063 35.8584 86.2026C35.449 85.5223 35.0396 84.8441 34.6302 84.1638C34.5202 83.956 34.4082 83.7483 34.2982 83.5405C33.9479 82.8622 33.5955 82.1819 33.2452 81.5037C33.1678 81.3122 33.0924 81.1208 33.015 80.9293C32.408 79.6013 31.801 78.2753 31.1615 76.8801C32.0516 76.7008 32.8459 76.542 33.6423 76.3811C35.0681 76.1998 36.4939 76.0185 37.9197 75.8352C38.327 75.768 38.7344 75.6987 39.1438 75.6315L42.4007 75.4278C42.808 75.3647 43.2174 75.2995 43.6248 75.2364C44.6432 75.2323 45.6596 75.2282 46.678 75.2241C47.0732 75.3952 47.9347 74.6375 47.8268 75.8026C47.8553 76.4136 47.8859 77.0227 47.9144 77.6337C47.9144 78.2448 47.9144 78.8558 47.9144 79.4668C47.9001 84.3125 47.8859 89.1601 47.8716 94.0057V94.0078Z" fill="url(#paint0_linear_15207_945)"/>
<path d="M101.686 48.7147C101.672 48.1403 101.664 47.5679 101.641 46.9956C101.595 45.7898 101.627 44.5738 101.464 43.3843C101.324 42.3679 100.344 41.8791 99.4396 42.2885C98.0627 42.9138 96.7164 43.6083 95.3558 44.2723C95.2784 44.3233 95.199 44.3762 95.1216 44.4271C94.9932 44.4597 94.8629 44.4842 94.7407 44.5269C92.4615 45.3172 90.2067 45.9466 87.6994 45.7042C84.4812 45.3926 81.8191 43.8324 79.0164 42.5186C78.4746 42.2661 77.6965 42.2355 77.1181 42.4066C76.2076 42.6755 75.3705 43.1928 74.5109 43.6206C72.6533 44.5432 70.7632 45.3641 68.6795 45.6248C67.7975 45.6248 66.9136 45.6268 66.0316 45.6289C64.0477 45.7939 62.2614 45.0932 60.5098 44.311C59.2693 43.7591 58.0778 43.091 56.8455 42.5166C55.1855 41.7446 54.2608 42.3394 54.2547 44.14C54.2547 44.4434 54.2262 44.7449 54.2119 45.0484C54.2119 45.9996 54.2119 46.9487 54.2119 47.8999C54.2119 48.2401 54.2119 48.5782 54.214 48.9183C54.2282 53.931 54.2302 58.9436 54.2669 63.9562C54.2812 66.0399 54.3402 68.1256 54.438 70.2052C54.4808 71.1238 54.6722 72.0363 54.7965 72.9529C54.9757 73.513 55.155 74.0731 55.3362 74.6333C55.4462 75.0895 55.5562 75.5437 55.6642 76C55.7151 76.0081 55.768 76.0142 55.819 76.0183C55.8862 76.222 55.9534 76.4257 56.0206 76.6294C56.0899 76.833 56.1591 77.0367 56.2284 77.2404C56.5054 77.9166 56.7824 78.5949 57.0594 79.2711L57.2488 79.6826C57.6582 80.4973 58.0676 81.312 58.475 82.1268C58.6827 82.471 58.8905 82.8152 59.0983 83.1574C60.025 84.4365 60.9497 85.7156 61.8765 86.9948C62.0435 86.8868 62.2105 86.7809 62.3796 86.673C62.2126 86.7809 62.0455 86.8868 61.8765 86.9948C62.0354 87.2086 62.1963 87.4245 62.3551 87.6384C64.392 89.4715 66.4288 91.3047 68.4677 93.1399C68.6021 93.2091 68.7386 93.2804 68.873 93.3497C70.2316 94.4333 71.5901 95.5168 72.9487 96.6025C73.0851 96.6717 73.2196 96.7389 73.356 96.8082C74.4519 97.7064 75.5477 98.6047 76.6455 99.5029C76.9775 99.6679 77.3095 99.8329 77.6436 99.9979C77.9165 99.949 78.1915 99.9001 78.4644 99.8512C78.664 99.7494 78.884 99.676 79.0571 99.5437C80.4951 98.4356 81.925 97.3154 83.3569 96.1992C85.5383 94.4984 87.7218 92.7977 89.9032 91.0969C91.2516 89.7404 92.5979 88.3818 93.9463 87.0253L97.3702 82.1186C97.7389 81.4118 98.1503 80.7234 98.4701 79.9922C99.1036 78.5399 99.6841 77.0652 100.287 75.6008C100.281 75.4663 100.238 75.3197 100.275 75.1975C101.442 71.3255 101.648 67.3435 101.65 63.335C101.652 59.7502 101.676 56.1674 101.692 52.5826C101.692 51.6314 101.692 50.6822 101.694 49.731C101.694 49.3909 101.694 49.0528 101.692 48.7126L101.686 48.7147ZM78.0183 99.4601C78.053 99.4601 78.0917 99.4724 78.1304 99.4948C78.0917 99.4724 78.053 99.4622 78.0183 99.4601ZM98.5434 49.5314L98.5394 52.5826C98.5394 52.9227 98.5414 53.2629 98.5434 53.6051L98.5394 60.7299C98.5394 61.07 98.5394 61.4122 98.5414 61.7524C98.5414 62.7688 98.5394 63.7872 98.5373 64.8036C98.5373 65.1437 98.5373 65.4859 98.5394 65.826C98.4864 66.8444 98.4334 67.8608 98.3784 68.8792C98.3092 69.2866 98.2399 69.694 98.1727 70.1034C97.9039 71.3927 97.633 72.682 97.3641 73.9713C97.1726 74.5905 96.9832 75.2077 96.7918 75.8269C95.918 77.7394 95.0849 79.6744 94.15 81.5585C93.6978 82.4669 93.0542 83.2816 92.4981 84.1391C92.3515 84.3449 92.2048 84.5485 92.0582 84.7543L91.4838 85.3755C91.2007 85.7116 90.9155 86.0476 90.6324 86.3837C90.2332 86.785 89.834 87.1862 89.4368 87.5854C89.2351 87.726 89.0315 87.8645 88.8298 88.005C87.1515 89.3229 85.469 90.6366 83.7968 91.9605C83.6155 92.1031 83.4872 92.3129 83.3345 92.4901C82.1164 93.3823 80.8964 94.2764 79.6783 95.1685C79.6376 95.1991 79.5989 95.2317 79.5582 95.2622C79.5398 95.1604 79.5235 95.0565 79.5052 94.9547C79.5052 94.0707 79.5072 93.1867 79.5093 92.3027C79.5093 91.8954 79.5073 91.488 79.5052 91.0786C79.5052 90.1294 79.5072 89.1782 79.5093 88.2291C79.5093 87.8176 79.5073 87.4062 79.5052 86.9927L79.436 87.0172C79.2465 86.5976 79.0571 86.18 78.8677 85.7604C78.7903 85.6444 78.7129 85.5283 78.6375 85.4122C78.3707 85.3877 78.1059 85.3653 77.8391 85.3409C76.5172 85.5995 76.3583 85.8603 76.45 87.614V89.4471C76.45 90.1946 76.45 90.9401 76.45 91.6876V93.5208C76.45 94.0279 76.45 94.5331 76.45 95.2276C76.0222 95.0239 75.7188 94.8793 75.4132 94.7347L74.3887 93.8915C72.8876 92.6857 71.3885 91.4819 69.8873 90.2761C69.6144 90.0765 69.3415 89.8748 69.0685 89.6752C68.875 89.5958 68.6815 89.5164 68.488 89.4369C68.3414 89.2781 68.1947 89.1212 68.0501 88.9623C65.1558 86.5752 62.8195 83.7236 60.9538 80.4769C60.8214 80.2712 60.6911 80.0655 60.5587 79.8598C60.4772 79.5929 60.3957 79.3282 60.3142 79.0613L59.9558 78.2425C59.86 78.1081 59.7623 77.9716 59.6665 77.8372C59.5627 77.6254 59.4608 77.4156 59.3569 77.2038C59.1451 76.664 58.9312 76.1263 58.7194 75.5865C58.3487 73.9122 57.9678 72.242 57.6175 70.5637C57.5319 70.1482 57.5523 69.7103 57.5258 69.2805C57.4973 69.0809 57.4688 68.8813 57.4403 68.6817C57.4138 67.592 57.3873 66.5023 57.3608 65.4126C57.3608 65.0704 57.3588 64.7302 57.3568 64.388L57.3608 61.3389C57.3608 60.9967 57.3588 60.6566 57.3568 60.3144L57.3608 57.2653C57.3608 56.9231 57.3588 56.5829 57.3568 56.2407L57.3608 53.1916C57.3608 52.8494 57.3588 52.5093 57.3568 52.1671C57.3568 51.1507 57.3588 50.1343 57.3608 49.118V46.1992C58.1898 46.5964 58.9455 46.9589 59.7012 47.3215C60.0413 47.4518 60.3835 47.5802 60.7236 47.7105C60.9945 47.7818 61.2654 47.851 61.5343 47.9223C61.5384 47.9733 61.5445 48.0262 61.5526 48.0771L62.3613 48.3358L65.0091 48.7411L65.83 48.8919C66.5103 48.8389 67.1906 48.7839 67.8688 48.731L68.4717 48.6515C68.6754 48.6821 68.8791 48.7126 69.0828 48.7411C69.4901 48.6739 69.8975 48.6067 70.3069 48.5395C71.7999 47.9957 73.2929 47.4498 74.7879 46.906C75.2645 46.6677 75.7412 46.4273 76.3868 46.1055V47.0913L76.4561 47.0669C76.4561 47.4783 76.4561 47.8897 76.4561 48.3012C76.4561 48.5049 76.4561 48.7086 76.4561 48.9122C76.4316 49.3196 76.4092 49.727 76.3848 50.1343C76.4072 50.338 76.4316 50.5417 76.454 50.7454C76.4316 50.9491 76.4092 51.1527 76.3848 51.3564C76.397 52.9716 76.395 54.5868 76.4255 56.202C76.4459 57.2897 76.8859 57.693 77.9552 57.6706C79.1101 57.6461 79.3993 57.2673 79.5113 55.6338C79.5113 55.2264 79.5093 54.819 79.5073 54.4096C79.5073 53.4605 79.5093 52.5093 79.5113 51.5601C79.5113 51.1527 79.5093 50.7454 79.5073 50.336C79.4848 49.9286 79.4624 49.5212 79.438 49.1139C79.4624 48.5721 79.4869 48.0283 79.5093 47.4865C79.4848 47.2828 79.4624 47.0791 79.438 46.8754C79.4686 46.6839 79.4991 46.4905 79.546 46.1829C79.8331 46.3642 80.0613 46.5088 80.2894 46.6534C81.041 46.9956 81.7926 47.3378 82.5442 47.682C82.8477 47.7757 83.1532 47.8694 83.4567 47.9631C83.6848 48.016 83.9149 48.069 84.1431 48.124C84.3488 48.1668 84.5565 48.2116 84.7623 48.2543C85.0332 48.3501 85.3041 48.4458 85.577 48.5415C85.8499 48.6108 86.1208 48.678 86.3938 48.7473C86.8663 48.7432 87.3388 48.7391 87.8114 48.735C87.9499 48.7839 88.0884 48.8328 88.2269 48.8817C88.565 48.9041 88.9011 48.9265 89.2392 48.9489C89.6486 48.8796 90.058 48.8104 90.4674 48.7411C91.1457 48.6515 91.8239 48.5619 92.5042 48.4743C92.8464 48.3521 93.1906 48.2279 93.5328 48.1057C93.7263 48.0975 93.9219 48.0894 94.1154 48.0812L94.1093 48.0894C94.1826 48.0384 94.2579 47.9875 94.3313 47.9366C94.8079 47.7981 95.2865 47.6576 95.7632 47.519C96.5657 47.1626 97.3682 46.8041 98.1707 46.4477C98.301 46.4619 98.4314 46.4762 98.5597 46.4884C98.5516 47.1606 98.5434 47.8348 98.5373 48.5069L98.5414 49.5294L98.5434 49.5314Z" fill="url(#paint1_linear_15207_945)"/>
<path d="M94.7308 57.3183C94.3907 57.0332 94.0485 56.748 93.7084 56.4629C93.3784 56.1818 93.0505 55.9007 92.7205 55.6176C92.7144 55.5646 92.7083 55.5117 92.7022 55.4587C92.4985 55.255 92.2968 55.0514 92.0931 54.8456C91.8997 54.699 91.7062 54.5523 91.5127 54.4077C90.9627 54.2651 90.4107 54.1226 89.8608 53.98C88.7039 55.1369 87.547 56.2938 86.39 57.4507C86.0621 57.797 85.7342 58.1453 85.4083 58.4916C85.1537 58.7604 84.9052 59.0333 84.6445 59.2981C81.9009 62.0784 79.1552 64.8566 76.4096 67.6349C76.1509 67.9139 75.8902 68.193 75.6315 68.472C74.8107 69.2114 73.9898 69.9507 73.167 70.6901C72.9592 70.4314 72.7514 70.1728 72.5417 69.9161C72.0671 69.5067 71.5925 69.0953 71.1179 68.6859C70.79 68.4414 70.46 68.197 70.1321 67.9526C69.9936 67.8508 69.8571 67.751 69.7186 67.6491C69.5088 67.4414 69.3011 67.2336 69.0913 67.0259C68.1951 66.4657 67.2418 66.4657 66.7408 67.0686C65.5044 68.5514 64.2192 70.0037 63.0949 71.568C62.714 72.0975 62.5795 72.9571 62.6732 73.617C62.7343 74.0488 63.4106 74.3951 63.8118 74.778C64.0053 74.9308 64.1968 75.0835 64.3903 75.2383C64.4758 75.2933 64.5614 75.3463 64.6469 75.4013C64.7019 75.4624 64.7569 75.5235 64.8099 75.5866C66.9791 77.432 69.1463 79.2774 71.3155 81.1227C71.5966 81.3508 71.896 81.5627 72.1567 81.8132C73.2423 82.85 74.1895 82.8561 75.2445 81.7643C76.2772 80.697 77.2569 79.5788 78.2957 78.5176C82.461 74.2647 86.6406 70.0241 90.8181 65.7834C92.3885 64.1906 93.9772 62.6161 95.5435 61.0172C96.4601 60.0823 96.4479 59.1515 95.5496 58.2064C95.2726 57.9151 95.0017 57.6137 94.7288 57.3163L94.7308 57.3183ZM87.4268 64.8281C82.9111 69.4354 78.3975 74.0427 73.8737 78.6439C73.7454 78.7743 73.5336 78.8211 73.3625 78.9087L72.9938 78.5482C72.9103 78.4565 72.8268 78.3649 72.7453 78.2732C72.2015 77.7966 71.6597 77.3179 71.1159 76.8413C70.9794 76.7089 70.8429 76.5765 70.7065 76.4441C70.0975 75.992 69.4599 75.5744 68.8856 75.0815C67.9934 74.3177 67.142 73.503 66.2031 72.6455C66.8508 71.845 67.474 71.0771 68.1482 70.244C69.2461 71.1912 70.2828 72.0833 71.3196 72.9775C71.5151 73.1099 71.7086 73.2422 71.9041 73.3767C72.1261 73.6394 72.3482 73.9042 72.5702 74.167C72.7005 74.2342 72.8288 74.3014 72.9592 74.3686C73.8106 74.4888 74.4216 74.1018 74.996 73.5111C79.638 68.7551 84.2921 64.0134 88.9524 59.2757C89.4982 58.7217 90.0971 58.2186 90.6714 57.6931C91.0157 58.0883 91.3599 58.4834 91.7041 58.8786C91.977 59.123 92.2479 59.3694 92.5474 59.6363C90.8201 61.3879 89.1235 63.109 87.4268 64.8281Z" fill="url(#paint2_linear_15207_945)"/>
</g>
<defs>
<linearGradient id="paint0_linear_15207_945" x1="0" y1="49.4267" x2="96.739" y2="49.4267" gradientUnits="userSpaceOnUse">
<stop stop-color="#6288A1"/>
<stop offset="0.520833" stop-color="#B377D3"/>
<stop offset="1" stop-color="#B86B85"/>
</linearGradient>
<linearGradient id="paint1_linear_15207_945" x1="54.2119" y1="71.0708" x2="101.694" y2="71.0708" gradientUnits="userSpaceOnUse">
<stop stop-color="#6288A1"/>
<stop offset="0.520833" stop-color="#B377D3"/>
<stop offset="1" stop-color="#B86B85"/>
</linearGradient>
<linearGradient id="paint2_linear_15207_945" x1="62.6445" y1="68.2835" x2="96.2271" y2="68.2835" gradientUnits="userSpaceOnUse">
<stop stop-color="#6288A1"/>
<stop offset="0.520833" stop-color="#B377D3"/>
<stop offset="1" stop-color="#B86B85"/>
</linearGradient>
<clipPath id="clip0_15207_945">
<rect width="101.689" height="100" fill="white"/>
</clipPath>
</defs>
</svg>
