<svg width="107" height="100" viewBox="0 0 107 100" fill="none" xmlns="http://www.w3.org/2000/svg">
<path fill-rule="evenodd" clip-rule="evenodd" d="M38.5634 8.71586C38.5634 6.30049 38.5634 3.88226 38.5606 1.46689L38.6158 0.946079L38.6717 0.418703L40.1927 0C40.2511 0.0583907 40.3095 0.117493 40.3679 0.176596L40.368 0.176716L40.3688 0.177551L40.3688 0.177563C40.4269 0.236343 40.485 0.29512 40.543 0.353192C40.5641 0.460143 40.5909 0.567387 40.6179 0.674736L40.6179 0.674928C40.6749 0.90201 40.7319 1.12956 40.7339 1.3558C40.7421 2.47095 40.7411 3.5861 40.74 4.70125C40.7389 5.89609 40.7378 7.09093 40.7481 8.28577C40.7538 8.995 40.5117 9.45073 39.8765 9.82671C39.3394 10.1444 39.0661 9.88547 38.7898 9.62381C38.6895 9.52885 38.5889 9.43354 38.4751 9.36528L38.5221 9.03915L38.5691 8.71301L38.5634 8.71586ZM60.3475 5.70234C60.1119 6.1351 59.8767 6.56804 59.6414 7.00098L59.6414 7.00107L59.6413 7.00115L59.6413 7.00123L59.6412 7.00132L59.6412 7.0014L59.6412 7.00148L59.6411 7.00157L59.6411 7.00165L59.641 7.00173L59.641 7.00181L59.6409 7.0019L59.6409 7.00198L59.6408 7.00206L59.6408 7.00215L59.6407 7.00223L59.6407 7.00231L59.6406 7.0024L59.6406 7.00248L59.6406 7.00256L59.6405 7.00264L59.6405 7.00273L59.6404 7.00281L59.6404 7.00289L59.6403 7.00298L59.6403 7.00306L59.6402 7.00314L59.6402 7.00322L59.6401 7.00331L59.6401 7.00339L59.6401 7.00347L59.64 7.00356L59.64 7.00364L59.6399 7.00372L59.6399 7.00381L59.6398 7.00389L59.6398 7.00397L59.6397 7.00405L59.6397 7.00414L59.6396 7.00422L59.6396 7.0043L59.6395 7.00439L59.6395 7.00447L59.6395 7.00455L59.6394 7.00464L59.6394 7.00472L59.6393 7.0048L59.6393 7.00488L59.6392 7.00497L59.6392 7.00505L59.6391 7.00513L59.6391 7.00522L59.639 7.0053L59.639 7.00538L59.639 7.00547L59.6389 7.00555C58.9336 8.30358 58.2283 9.60161 57.5134 10.8948C57.0719 11.6924 56.6048 12.4785 56.1377 13.2618C55.7617 13.8941 55.2034 14.3926 54.4999 13.9397C53.9103 13.5637 53.9046 12.883 54.2777 12.2335C54.9097 11.1361 55.5347 10.0348 56.1596 8.93372C56.7317 7.92567 57.3037 6.91777 57.8809 5.91312C58.3005 5.18319 58.8928 5.2598 59.4841 5.33628C59.6635 5.35948 59.8428 5.38267 60.0171 5.38333C60.1252 5.48588 60.2333 5.59112 60.3387 5.69381L60.3389 5.69396L60.3475 5.70234ZM20.5564 5.30076L20.5564 5.30069H20.562L20.5564 5.30076ZM19.4427 6.90999C18.9649 6.07956 19.3503 5.31729 20.5564 5.30076C20.5919 5.32973 20.6455 5.3646 20.709 5.40596L20.7091 5.40599C20.8954 5.52731 21.1675 5.70451 21.3225 5.95295C21.9632 6.99163 22.5706 8.05294 23.1778 9.11383C23.4048 9.51046 23.6317 9.90703 23.8604 10.3023C23.8894 10.3517 23.9167 10.4081 23.9443 10.465C24.0169 10.6148 24.0915 10.7688 24.2051 10.8122C24.9781 11.1055 25.0223 11.73 25.0653 12.3368C25.0807 12.555 25.096 12.771 25.145 12.9684C25.2105 13.2361 24.7662 13.7972 24.4329 13.9453C24.1737 14.0593 23.567 13.8457 23.3876 13.5865C22.8594 12.8287 22.3957 12.0238 21.9324 11.2196L21.9323 11.2195C21.8035 10.996 21.6748 10.7725 21.5447 10.5501C20.9245 9.48721 20.3108 8.41988 19.6979 7.35395L19.6978 7.35366L19.4427 6.90999ZM27.5408 17.8415L27.5408 17.8415C28.666 17.304 29.7909 16.7666 30.9756 16.4576C33.1799 15.8852 35.4753 15.626 37.7451 15.3697L37.7461 15.3695C39.4294 15.1787 41.1413 15.1189 42.836 15.1673C43.5432 15.1867 44.2472 15.3889 44.9466 15.5899C45.1712 15.6544 45.3952 15.7187 45.6188 15.7769C45.9275 15.8574 46.2378 15.9344 46.5482 16.0115L46.5483 16.0115L46.5484 16.0115L46.5484 16.0116L46.5485 16.0116L46.5486 16.0116L46.5486 16.0116L46.5487 16.0116L46.5488 16.0116L46.5488 16.0117L46.5489 16.0117L46.549 16.0117L46.549 16.0117L46.5491 16.0117L46.5492 16.0117L46.5492 16.0118L46.5493 16.0118L46.5494 16.0118L46.5495 16.0118L46.5495 16.0118L46.5496 16.0118L46.5497 16.0119L46.5497 16.0119L46.5498 16.0119L46.5499 16.0119L46.5499 16.0119L46.55 16.0119L46.5501 16.012L46.5501 16.012L46.5502 16.012L46.5503 16.012L46.5503 16.012L46.5504 16.0121L46.5505 16.0121L46.5506 16.0121L46.5506 16.0121L46.5507 16.0121L46.5508 16.0121L46.5508 16.0122L46.5509 16.0122L46.551 16.0122L46.551 16.0122L46.5511 16.0122L46.5512 16.0122L46.5512 16.0123L46.5513 16.0123L46.5514 16.0123L46.5514 16.0123L46.5515 16.0123L46.5516 16.0123L46.5517 16.0124L46.5517 16.0124L46.5518 16.0124L46.5519 16.0124L46.5519 16.0124L46.552 16.0124L46.5521 16.0125L46.5521 16.0125L46.5522 16.0125L46.5523 16.0125L46.5523 16.0125L46.5524 16.0125L46.5525 16.0126L46.5525 16.0126C47.5583 16.2623 48.5657 16.5124 49.5267 16.882C50.5045 17.2584 51.4447 17.7308 52.3843 18.203C52.7886 18.4061 53.1928 18.6093 53.5998 18.8046C53.5004 18.8355 53.401 18.866 53.3016 18.8965C52.9881 18.9928 52.6751 19.0889 52.3636 19.1948C52.0636 19.2955 51.7661 19.4037 51.4686 19.512C51.3199 19.5661 51.1711 19.6202 51.0221 19.6734C50.961 19.6587 50.8986 19.6462 50.836 19.6336L50.836 19.6336C50.6914 19.6045 50.5457 19.5752 50.4125 19.5196C46.4619 17.8818 42.3774 17.2352 38.085 17.4374C34.8555 17.5884 31.8026 18.249 28.8266 19.4278L28.8278 19.4284C27.9719 19.9667 27.1153 20.5043 26.2587 21.0419L26.256 21.0436L26.2534 21.0453C25.3985 21.5818 24.5436 22.1183 23.6895 22.6555C23.6497 22.6853 23.6099 22.7144 23.5702 22.7436L23.5698 22.7438C23.53 22.773 23.4901 22.8022 23.4502 22.8321C23.3776 22.886 23.305 22.9403 23.2323 22.9947C23.1053 23.0898 22.9778 23.1851 22.8492 23.2793L20.4851 22.8207C22.0545 21.0348 23.9287 19.642 26.0251 18.5397V18.5425L26.0252 18.5426C26.5339 18.3226 27.0372 18.0821 27.5404 17.8417L27.5404 17.8417L27.5404 17.8417L27.5404 17.8417L27.5405 17.8417L27.5405 17.8417L27.5405 17.8417L27.5405 17.8417L27.5406 17.8416L27.5406 17.8416L27.5406 17.8416L27.5406 17.8416L27.5406 17.8416L27.5407 17.8416L27.5407 17.8416L27.5407 17.8416L27.5407 17.8416L27.5408 17.8415ZM63.0276 29.2238L63.0277 29.2241C62.6669 29.261 62.3061 29.2987 61.9453 29.3363C61.5835 29.3741 61.2218 29.4118 60.8601 29.4488C61.002 29.8435 61.1464 30.2374 61.2908 30.6313L61.2909 30.6316L61.2911 30.6321L61.2913 30.6327L61.2915 30.6332L61.2917 30.6338L61.2919 30.6344L61.2921 30.6349L61.2923 30.6355L61.2925 30.6361L61.2927 30.6366C61.7042 31.7589 62.1156 32.8811 62.4694 34.0204C62.5568 34.3061 62.4958 34.6368 62.4346 34.9683C62.4061 35.1227 62.3775 35.2772 62.364 35.4274C62.4493 35.4719 62.533 35.5222 62.6166 35.5724C62.8008 35.6831 62.9845 35.7934 63.1843 35.8405C63.5422 35.9269 63.9115 35.9722 64.2801 36.0174L64.2799 36.0177L64.2797 36.0177L64.2795 36.0176L64.2793 36.0176L64.2792 36.0176L64.279 36.0176L64.2788 36.0176L64.2786 36.0175L64.2784 36.0175L64.2782 36.0175L64.2781 36.0175L64.2779 36.0174L64.2777 36.0174L64.2775 36.0174L64.2773 36.0174C63.9087 35.9722 63.5395 35.9269 63.1816 35.8404C62.9817 35.7934 62.7981 35.683 62.6139 35.5724C62.5303 35.5221 62.4466 35.4718 62.3613 35.4274C59.5927 37.4241 57.7099 40.1385 56.1548 43.115L56.1574 43.1153C56.051 43.3271 55.9349 43.5359 55.8189 43.7446C55.5588 44.2124 55.2988 44.6799 55.1492 45.1801C54.7527 46.5147 54.409 47.8655 54.0654 49.2155C53.9305 49.746 53.7955 50.2763 53.6574 50.8055H53.6537C53.6261 50.8635 53.5931 50.9207 53.5602 50.9778C53.4879 51.103 53.4159 51.2279 53.4002 51.361C53.0897 53.8931 53.104 56.4167 53.6366 58.9233H55.7045C55.6644 58.5564 55.6127 58.1889 55.5609 57.8213L55.5609 57.8212C55.447 57.0129 55.333 56.2036 55.3428 55.397C55.3547 54.3278 55.4669 53.2586 55.579 52.1894C55.6273 51.7291 55.6756 51.2687 55.7159 50.8084H55.716C55.8264 50.4 55.9301 49.9894 56.0338 49.5789L56.0338 49.5788C56.267 48.6553 56.5002 47.7322 56.8097 46.835C57.0944 46.0123 57.4603 45.2194 57.8263 44.4264L57.8265 44.4258C57.9914 44.0687 58.1562 43.7114 58.3136 43.3515L58.3111 43.3512C58.6527 42.9078 58.9883 42.4597 59.3237 42.0118C60.0958 40.9809 60.8671 39.951 61.709 38.9821C62.341 38.2556 63.06 37.6067 63.7797 36.9573C64.1012 36.6672 64.4228 36.3769 64.7368 36.0797V36.0768C64.5981 36.057 64.4585 36.0396 64.3188 36.0223L64.3186 36.0222L64.3185 36.0222L64.3183 36.0222L64.2801 36.0174C64.4336 36.0363 64.587 36.0551 64.7395 36.0769C65.2375 35.8126 65.7322 35.5409 66.2271 35.2691C67.3484 34.6533 68.47 34.0373 69.63 33.5077C71.6438 32.5877 73.8057 32.2373 76.0131 31.9582C78.7219 31.6192 81.2968 31.9838 83.8916 32.619C86.6516 33.2941 89.2407 34.3109 91.5251 36.0341C91.5771 36.0746 91.6514 36.0851 91.7257 36.0956C91.7612 36.1006 91.7967 36.1056 91.8298 36.1139C92.2585 36.0228 92.6865 35.9316 93.1144 35.8405L94.399 35.567C84.9483 28.1813 74.9849 27.8993 64.6996 33.4906C64.4245 32.7881 64.1571 32.106 63.894 31.435L63.8866 31.4161L63.8854 31.4129C63.5958 30.6741 63.3114 29.9487 63.0277 29.2241L63.0305 29.2238H63.0276ZM26.9081 78.7902L26.7372 72.1707H26.7371C26.6485 71.8601 26.5574 71.5498 26.4662 71.2395L26.4661 71.2394C26.2288 70.4317 25.9913 69.6238 25.8 68.8069C25.7075 68.4135 25.6939 68.0038 25.6802 67.5937C25.6741 67.4108 25.668 67.2279 25.6549 67.0463L25.652 67.0466C25.1413 65.867 24.6294 64.6873 24.1178 63.5085L24.1159 63.5041L24.0631 63.3825C23.7912 62.756 23.5195 62.1297 23.248 61.5038L23.248 61.5038L23.248 61.501C22.6798 60.5767 22.1123 59.6524 21.5447 58.7281C20.9772 57.8038 20.4097 56.8796 19.8414 55.9553C19.9398 55.9104 20.0371 55.8635 20.1343 55.8166C20.358 55.7086 20.5813 55.6009 20.8156 55.5195C21.0291 55.4431 21.2534 55.3936 21.4773 55.3443C21.579 55.3218 21.6806 55.2994 21.7812 55.2745C23.0025 57.2703 24.2267 59.2689 25.451 61.2647L25.4526 61.2645C25.8312 62.1924 26.2098 63.1196 26.5883 64.0469L26.5931 64.0584C26.9702 64.9821 27.3473 65.9058 27.7245 66.8302L27.7254 66.8301C27.9049 67.7202 28.0836 68.6103 28.2623 69.5004C28.4411 70.3905 28.6198 71.2806 28.7993 72.1707H28.7994L28.8032 72.2411C28.8275 72.6988 28.8518 73.1541 28.8735 73.612H38.5635C38.5948 72.9341 38.6204 72.3388 38.6461 71.7435H38.6459V64.4832V64.4803V57.0063H38.6495C39.0518 55.151 38.0038 54.0382 36.9545 52.9238C36.6275 52.5766 36.3004 52.2293 36.017 51.8593C35.847 51.6381 35.6751 51.4168 35.5044 51.1971L35.5037 51.1963L35.3904 51.0504C36.2022 50.9678 37.0111 50.8852 37.8229 50.7998L37.8631 50.8311C38.4593 51.2964 39.0582 51.7638 39.7825 52.3293C40.2286 51.8607 40.9237 51.1261 41.6211 50.3893L41.6214 50.3889L41.6297 50.3802L41.6347 50.3748L41.637 50.3724L41.6383 50.3711L41.6367 50.3697C41.9245 50.0474 42.2101 49.7225 42.4956 49.3976L42.4961 49.397C43.3433 48.4331 44.1907 47.4689 45.1002 46.5701C45.3309 46.3422 46.382 46.4618 46.419 46.5985C46.5643 47.1198 46.6668 47.8746 46.3905 48.2506C45.8002 49.0472 45.1146 49.7721 44.4284 50.4977L44.4282 50.4978C44.1579 50.7837 43.8874 51.0697 43.6226 51.3602L43.6249 51.3609H43.622C43.4635 51.5346 43.3081 51.7115 43.1527 51.8884C42.8419 52.2423 42.5311 52.5961 42.195 52.9246C41.0386 54.0497 40.4974 55.3884 40.6826 57.0034H40.6796V64.4803V64.4832V71.7463H40.6769L40.8051 73.6148H50.3356C50.352 73.3355 50.3679 73.0702 50.3834 72.813C50.4055 72.4459 50.4266 72.0952 50.4467 71.7435H50.4474C50.6609 70.7825 50.8738 69.8215 51.0866 68.8605L51.0881 68.8538L51.093 68.8317C51.3036 67.8806 51.5143 66.9296 51.7256 65.9786H51.7285C51.8423 65.6741 51.9512 65.3673 52.0601 65.0604C52.3109 64.3539 52.5617 63.647 52.8735 62.9679C52.9434 62.8159 53.0158 62.6648 53.088 62.5139L53.0883 62.5134L53.0888 62.5123L53.0889 62.512L53.0891 62.5118L53.0892 62.5115L53.0893 62.5113L53.0894 62.511L53.0895 62.5108C53.6316 61.3784 54.1671 60.26 53.6397 58.929H55.7076L55.7767 59.1035L55.84 59.2636L55.9241 59.4764L55.9725 59.5983C56.8241 61.7887 57.6758 63.9762 58.5303 66.1665L58.5264 66.1669C59.9474 68.4983 61.724 70.5253 63.771 72.3217C63.3566 72.4072 62.9414 72.4933 62.5263 72.5795C62.1112 72.6657 61.6961 72.7518 61.2817 72.8372L54.9757 63.7561L54.9471 63.6971C54.5644 64.4795 54.1986 65.2252 53.8329 65.9708L53.8316 65.9734L53.8277 65.9814C53.5036 66.8747 53.3572 67.8083 53.2109 68.7418C53.0512 69.7604 52.8916 70.7788 52.5011 71.7445C52.9589 72.2939 53.0013 72.8205 52.5145 73.4012C52.3636 73.5807 52.3579 73.9167 52.3579 74.1788C52.3579 75.407 52.3725 76.6353 52.387 77.8635C52.3907 78.1705 52.3943 78.4775 52.3978 78.7845C51.7284 78.7845 51.0562 78.7874 50.3868 78.7902C50.3823 78.6222 50.3713 78.4536 50.3603 78.2851L50.3603 78.285C50.3364 77.9196 50.3126 77.5548 50.3555 77.198C50.4808 76.1498 50.1447 75.7966 49.0253 75.8052C44.4465 75.8463 39.8661 75.8414 35.2865 75.8366H35.2863H35.2861H35.2858H35.2856H35.2854H35.2852H35.285H35.2848H35.2846H35.2844H35.2842H35.284H35.2838H35.2836H35.2834H35.2832H35.283H35.2828H35.2826H35.2823H35.2821H35.2819H35.2817H35.2815H35.2813H35.2811H35.2809H35.2807H35.2805H35.2803H35.2801H35.2799H35.2797H35.2795H35.2793H35.279H35.2788H35.2786H35.2784H35.2782H35.278H35.2778H35.2776H35.2774H35.2772H35.277H35.2768H35.2766H35.2764H35.2762H35.276H35.2758H35.2755H35.2753H35.2751H35.2749H35.2747H35.2745H35.2743H35.2741H35.2739H35.2737H35.2735H35.2733H35.2731C33.5043 75.8347 31.7357 75.8329 29.9672 75.8337C29.7337 75.8337 29.4989 75.8468 29.2203 75.8623H29.2202H29.2202H29.2201C29.0875 75.8697 28.945 75.8776 28.788 75.8849V78.7902H26.9081ZM54.9757 63.7561L61.279 72.8348C61.0841 72.6443 60.881 72.46 60.6778 72.2756L60.6777 72.2755L60.6776 72.2754C60.2166 71.8569 59.7555 71.4385 59.3903 70.9488C58.6183 69.9129 57.8983 68.839 57.178 67.7647L57.1775 67.764L57.1771 67.7634L57.1767 67.7627L57.1762 67.7621L57.1758 67.7614L57.1753 67.7607L57.1749 67.7601L57.1744 67.7594L57.174 67.7587L57.1735 67.7581L57.1731 67.7574L57.1726 67.7567L57.1722 67.7561L57.1717 67.7554L57.1713 67.7548L57.1709 67.7541C56.8677 67.3019 56.5644 66.8496 56.2571 66.4001L56.2573 66.4001C55.8482 65.5542 55.4391 64.7111 54.9883 63.782L54.9829 63.7708L54.9814 63.7677L54.9785 63.7618L54.9757 63.7561ZM61.2817 72.8372C61.6954 72.752 62.1098 72.666 62.5241 72.58L62.5263 72.5795L62.5413 72.5764C62.9515 72.4913 63.3616 72.4062 63.771 72.3217C64.6238 72.8171 65.4765 73.3129 66.3295 73.8088L66.3697 73.8322C67.7397 74.6287 69.1101 75.4254 70.4816 76.2211C70.3009 76.2433 70.1186 76.2604 69.9362 76.2774H69.9361C69.509 76.3174 69.0812 76.3575 68.6701 76.4632C68.3356 76.5493 68.0212 76.7093 67.7067 76.8693C67.5633 76.9423 67.4198 77.0153 67.2744 77.0813C66.0225 76.8922 65.1222 76.1304 64.2234 75.3698C63.8768 75.0766 63.5305 74.7835 63.1643 74.5235C62.6929 74.1897 62.273 73.784 61.8523 73.3776L61.8522 73.3775C61.6638 73.1954 61.4752 73.0132 61.2817 72.8372ZM28.7879 78.7932H26.908V78.796C26.8824 79.8556 26.8596 80.918 26.8368 81.9804V81.9803C26.7758 82.1858 26.7158 82.3921 26.6556 82.5989C26.6089 82.759 26.5622 82.9194 26.515 83.0798V83.0799C27.3189 83.9467 28.3828 83.8107 29.3461 83.6876L29.4658 83.6723C30.9982 83.4786 31.9069 84.1081 32.5022 85.4155L32.5039 85.4153C32.5946 85.563 32.6828 85.7121 32.771 85.861L32.7711 85.8611C32.9647 86.1882 33.158 86.5148 33.3767 86.8254C35.1284 89.3205 37.5495 90.4912 40.5573 90.0725C43.3857 89.6794 45.5163 88.1926 46.5958 85.4326H46.5956C46.6671 85.1976 46.7391 84.9626 46.8127 84.7224C46.9121 84.3977 47.0145 84.0634 47.1226 83.7065C47.498 83.7065 47.8756 83.7079 48.2546 83.7092L48.2589 83.7093C49.1007 83.7123 49.9495 83.7154 50.7969 83.7037C51.6799 83.6923 52.4404 83.4388 52.4603 82.3792C52.4765 81.5349 52.4512 80.6878 52.426 79.8409L52.426 79.8406C52.4156 79.4904 52.4052 79.1402 52.3977 78.7903C51.7283 78.7931 51.0561 78.796 50.3868 78.796C50.344 79.6704 50.2985 80.5449 50.25 81.4649H28.7879V78.7932ZM34.8094 85.199L34.8083 85.1991C34.6377 84.7358 34.47 84.2722 34.2738 83.7293H44.9465C44.7305 84.3574 44.5485 84.8778 44.3666 85.398L44.3665 85.3982L44.3664 85.3985L44.3654 85.4013L44.3627 85.3984C42.4572 88.1129 39.3554 88.5885 37.4327 87.5261C36.7457 87.1453 36.1709 86.5588 35.5966 85.9728L35.5965 85.9728L35.5965 85.9727L35.5965 85.9727L35.5964 85.9726L35.5964 85.9726L35.5963 85.9725L35.5963 85.9725L35.5962 85.9725L35.5962 85.9724L35.5961 85.9724L35.5961 85.9723L35.596 85.9723L35.596 85.9722L35.596 85.9722L35.5959 85.9721L35.5959 85.9721L35.5958 85.972L35.5958 85.972L35.5957 85.9719L35.5957 85.9719L35.5956 85.9719L35.5956 85.9718L35.5955 85.9718L35.5955 85.9717L35.5954 85.9717L35.5954 85.9716L35.5954 85.9716L35.5953 85.9715L35.5953 85.9715L35.5952 85.9714L35.5952 85.9714L35.5951 85.9714L35.5951 85.9713L35.595 85.9713L35.595 85.9712L35.5949 85.9712L35.5949 85.9711L35.5949 85.9711L35.5948 85.971L35.5948 85.971L35.5947 85.9709L35.5947 85.9709L35.5946 85.9708L35.5946 85.9708L35.5945 85.9708L35.5945 85.9707L35.5944 85.9707L35.5944 85.9706L35.5943 85.9706L35.5943 85.9705L35.5943 85.9705L35.5942 85.9704L35.5942 85.9704L35.5941 85.9703L35.5941 85.9703L35.594 85.9703L35.594 85.9702L35.5939 85.9702L35.5939 85.9701C35.3357 85.7067 35.0777 85.4434 34.8094 85.199ZM87.7682 80.1033L87.7681 80.1034H87.7567C87.8695 80.4417 88.0647 80.7581 88.2601 81.0749C88.7014 81.79 89.1439 82.5072 88.6425 83.4843C88.5627 83.641 88.7336 83.9657 88.8533 84.1736C89.0973 84.5987 89.3603 85.0113 89.6234 85.4241L89.6235 85.4242L89.6235 85.4243L89.6236 85.4244L89.6237 85.4245L89.6237 85.4247L89.6238 85.4248L89.6239 85.4249L89.6239 85.425L89.624 85.4251L89.6241 85.4252L89.6241 85.4253L89.6242 85.4255L89.6243 85.4256L89.6243 85.4257L89.6244 85.4258L89.6245 85.4259L89.6245 85.426L89.6246 85.4261L89.6247 85.4263L89.6248 85.4264L89.6248 85.4265L89.6249 85.4266L89.625 85.4267L89.625 85.4268L89.6251 85.4269L89.6252 85.4271L89.6252 85.4272L89.6253 85.4273L89.6254 85.4274L89.6254 85.4275L89.6255 85.4276L89.6256 85.4277L89.6256 85.4279L89.6257 85.428L89.6258 85.4281L89.6259 85.4282L89.6259 85.4283L89.626 85.4284L89.6261 85.4285L89.6261 85.4287L89.6262 85.4288L89.6263 85.4289L89.6263 85.429L89.6264 85.4291L89.6265 85.4292L89.6265 85.4293L89.6266 85.4295L89.6267 85.4296L89.6267 85.4297L89.6268 85.4298L89.6269 85.4299L89.627 85.43L89.627 85.4301L89.6271 85.4303L89.6272 85.4304L89.6272 85.4305L89.6273 85.4306L89.6274 85.4307L89.6274 85.4308L89.6275 85.4309L89.6277 85.4313C89.7192 85.5749 89.8107 85.7185 89.9015 85.8627C90.2749 85.7251 90.6492 85.5884 91.024 85.4517L91.0283 85.4501C91.3039 85.3495 91.5796 85.2489 91.8554 85.1477C91.7568 84.9629 91.6582 84.7775 91.5544 84.5822L91.5461 84.5666C91.4122 84.3149 91.2694 84.0463 91.1063 83.7407C92.1523 83.1389 93.189 82.5434 94.2269 81.9471L94.2554 81.9307L94.3003 81.905L94.3141 81.8971C95.2369 81.367 96.1609 80.8362 97.0935 80.2999C97.9138 81.6821 98.6899 82.9923 99.4653 84.3016L99.4716 84.3123L99.487 84.3382L99.4975 84.3559L101.83 84.1337C101.831 84.1097 101.836 84.0841 101.84 84.0587C101.849 84.0088 101.858 83.9598 101.839 83.9258L101.603 83.498C100.603 81.6781 99.6023 79.8592 98.5774 78.0526C98.5208 77.951 98.373 77.899 98.2251 77.8469C98.1588 77.8236 98.0924 77.8002 98.0342 77.7723L98.0363 77.7706V77.7677C97.9078 77.7434 97.77 77.7305 97.6322 77.7176C97.3181 77.6881 97.0041 77.6586 96.8002 77.4943C96.6 77.3325 96.4819 77.076 96.3618 76.8152C96.2768 76.6305 96.1907 76.4436 96.0738 76.2866C94.5927 74.2956 94.5158 73.8598 95.4985 72.6094L93.0803 72.1565L86.0563 76.1727C86.1487 76.2233 86.2394 76.2823 86.33 76.3411C86.53 76.471 86.7294 76.6006 86.945 76.6398C87.5303 76.7459 88.123 76.8081 88.7166 76.8705C88.9521 76.8952 89.1877 76.9199 89.423 76.9474C90.3316 76.4404 91.2402 75.9334 92.146 75.4236C92.5818 75.1786 92.9008 75.059 93.2198 75.6685C93.5878 76.3712 94.0193 77.0394 94.4509 77.7077L94.4509 77.7077L94.451 77.7078L94.451 77.7079L94.451 77.7079L94.4511 77.708L94.4511 77.7081L94.4512 77.7081L94.4512 77.7082L94.4513 77.7083L94.4513 77.7083L94.4514 77.7084L94.4514 77.7085L94.4515 77.7085L94.4515 77.7086L94.4515 77.7087L94.4516 77.7088L94.4516 77.7088L94.4517 77.7089L94.4517 77.709L94.4518 77.709L94.4518 77.7091L94.4519 77.7092L94.4519 77.7092L94.452 77.7093L94.452 77.7094L94.452 77.7094L94.4521 77.7095L94.4521 77.7096L94.4522 77.7096L94.4522 77.7097L94.4523 77.7098L94.4523 77.7099L94.4524 77.7099L94.4524 77.71L94.4525 77.7101L94.4525 77.7101L94.4526 77.7102L94.4526 77.7103L94.4526 77.7103L94.4527 77.7104L94.4527 77.7105L94.4528 77.7105L94.4528 77.7106L94.4529 77.7107L94.4529 77.7107L94.453 77.7108L94.453 77.7109L94.4531 77.711L94.4531 77.711L94.4531 77.7111L94.4532 77.7112L94.4532 77.7112L94.4533 77.7113L94.4533 77.7114L94.4534 77.7114L94.4534 77.7115L94.4535 77.7116L94.4536 77.7118C94.6421 78.0037 94.8307 78.2956 95.0139 78.5904L95.0085 78.5909C94.9773 78.6532 94.9512 78.7238 94.925 78.7945C94.8674 78.9502 94.8097 79.1062 94.698 79.1748C93.684 79.8071 92.6615 80.4423 91.5934 80.9721C91.3512 81.0946 90.8357 80.9037 90.5737 80.6958C90.3378 80.5075 90.164 80.2421 89.99 79.9761C89.9138 79.8598 89.8376 79.7434 89.7562 79.6334L89.7552 79.6336C89.5427 79.1874 89.3314 78.7411 89.1128 78.2794L89.1101 78.2736C88.9812 78.0013 88.8497 77.7236 88.7139 77.4374C88.8436 77.3497 88.9874 77.2513 89.1371 77.1487L89.1373 77.1486C89.2309 77.0845 89.3268 77.0188 89.4232 76.9531C89.1867 76.9254 88.9496 76.9005 88.7124 76.8756L88.7112 76.8755H88.7111C88.1199 76.8133 87.5282 76.7512 86.9451 76.6455C86.7277 76.6063 86.5291 76.4769 86.3299 76.3471L86.3298 76.347C86.2394 76.2881 86.1489 76.2291 86.0564 76.1784C83.53 76.9304 80.9921 77.5399 78.3119 77.537C75.6117 77.5342 73.0225 77.0756 70.4818 76.224C70.3011 76.246 70.1194 76.263 69.9378 76.28C69.5097 76.3201 69.0823 76.3601 68.6703 76.4661C68.3305 76.5515 68.0114 76.7147 67.6919 76.878L67.6917 76.8781C67.5534 76.9488 67.4149 77.0196 67.2746 77.0842C67.6297 77.2292 67.9832 77.3773 68.3364 77.5252C70.3972 78.3885 72.4483 79.2478 74.7486 79.4739C78.0384 79.7986 81.2627 79.7246 84.45 78.8387L84.4851 78.829C86.5862 78.2434 86.5899 78.2423 87.7682 80.1033ZM95.648 78.5359C96.0924 78.5001 96.5363 78.4644 96.9746 78.3965C96.5368 78.4632 96.093 78.4994 95.6497 78.5356L95.648 78.5359ZM103.226 99.583C105.151 98.6829 106.433 97.0452 106.735 94.8178H104.482C104.243 96.6806 102.918 97.4411 101.372 97.7857C100.38 98.005 98.8053 97.0167 98.1445 95.8944C97.7936 95.2973 97.4321 94.7041 97.0708 94.1113L97.0688 94.1079C96.9 93.8309 96.7313 93.554 96.5637 93.2768C95.8548 93.363 95.1485 93.4492 94.4424 93.5354L94.4413 93.5355L94.3904 93.5417C94.4809 93.7181 94.5688 93.8956 94.6566 94.0731C94.8482 94.46 95.0395 94.8464 95.2563 95.2194C95.3591 95.3953 95.4602 95.5725 95.5612 95.7496C96.2978 97.0404 97.033 98.3286 98.398 99.1301C99.9503 100.042 101.671 100.309 103.226 99.583ZM93.1115 35.8432L91.8269 36.1167H91.8298C94.208 38.1075 96.3042 40.3547 98.0245 42.9408L98.022 42.9413C98.2504 43.5122 98.4792 44.0828 98.708 44.6534L98.7081 44.6535L98.7081 44.6536L98.7082 44.6537L98.7082 44.6538L98.7083 44.6539L98.7083 44.6539L98.7083 44.654L98.7084 44.6541C99.2615 46.0335 99.8146 47.4126 100.36 48.7946C100.404 48.9028 100.408 49.0272 100.412 49.151V49.1512C100.413 49.2057 100.415 49.2601 100.42 49.313H100.418L101.058 55.0809H101.061C100.956 56.0066 100.85 56.9324 100.744 57.8581L100.74 57.8874C100.635 58.8032 100.53 59.7191 100.426 60.635L100.426 60.635C100.022 61.5949 99.6171 62.5541 99.2126 63.5133C98.8081 64.4724 98.4037 65.4316 97.9993 66.3915L95.5209 69.2962L93.0803 72.1565L95.4985 72.6094C97.4667 70.9289 99.0304 68.935 100.193 66.625L100.192 66.6251C100.961 64.6996 101.728 62.7741 102.494 60.8487H102.494C102.601 59.8873 102.707 58.926 102.813 57.9647L102.816 57.9344C102.921 56.9832 103.026 56.032 103.132 55.0808H103.129L103.138 54.7935V54.7933C103.2 52.8668 103.261 50.9413 102.542 49.0908L102.542 49.0909C102.194 46.7167 101.306 44.5416 100.11 42.4804L100.113 42.4798C98.6686 39.7967 96.7431 37.5095 94.3961 35.5698C93.9674 35.6609 93.5395 35.7521 93.1115 35.8432ZM3.68044 40.7755C4.03827 40.7775 4.3961 40.7795 4.75393 40.7795V40.7823V40.7852H8.48239C9.2201 40.788 9.78692 40.4719 9.77837 39.7114C9.76983 38.9566 9.19731 38.6489 8.46245 38.6489C7.94777 38.6496 7.43296 38.6506 6.91808 38.6516H6.91751H6.91694H6.91637H6.9158H6.91523H6.91466H6.91409H6.91352H6.91295H6.91238H6.91181H6.91125H6.91068H6.91011H6.90954H6.90897H6.9084H6.90783H6.90726H6.90669H6.90612H6.90555H6.90498H6.90441H6.90384H6.90327H6.90271H6.90214H6.90157H6.901H6.90043H6.89986H6.89929H6.89872H6.89815H6.89758H6.89701H6.89644H6.89587H6.8953H6.89473H6.89417H6.8936H6.89303H6.89246H6.89189H6.89132H6.89075H6.89018H6.88961H6.88904H6.88847H6.88677H6.8862H6.88563H6.88506H6.88449H6.88393H6.88336H6.88279H6.88222H6.88166H6.88109H6.88052H6.87995H6.87938H6.87882H6.87825H6.87768H6.87711H6.87654H6.87598H6.87541H6.87484H6.87427H6.8737H6.87314H6.87257H6.872H6.87143H6.87086H6.8703H6.86973H6.86916H6.86859H6.86803H6.86746H6.86689H6.86632H6.86575H6.86519H6.86462H6.86405H6.86348H6.86291H6.86235H6.86178H6.86121H6.86064H6.86007H6.85951H6.85894H6.85837H6.8578C4.94226 38.6552 3.02573 38.6589 1.11093 38.6432C0.418788 38.6376 0.00578097 38.8939 8.43292e-05 39.6003C-0.00561231 40.3295 0.276372 40.8108 1.13087 40.788C1.98072 40.766 2.83058 40.7707 3.68044 40.7755ZM96.5609 93.274C95.8374 93.3623 95.114 93.4506 94.3876 93.5389L93.177 91.4622C92.0882 89.5948 90.9998 87.7281 89.9129 85.8598C90.1877 85.7591 90.4624 85.6588 90.737 85.5586L90.7397 85.5576C91.116 85.4203 91.4919 85.2831 91.8669 85.1449C91.8935 85.2076 91.9175 85.2715 91.9416 85.3355C91.9897 85.4633 92.0378 85.5912 92.1061 85.7089C93.5864 88.231 95.0723 90.7502 96.5582 93.2694L96.5609 93.274ZM51.0247 19.6734C51.1738 19.6202 51.3225 19.5661 51.4713 19.512C51.7688 19.4037 52.0663 19.2955 52.3663 19.1948C52.6777 19.0889 52.9908 18.9928 53.3042 18.8965C53.4036 18.866 53.503 18.8355 53.6025 18.8046C55.7188 19.9582 57.5873 21.4165 59.1595 23.2509C59.1085 23.2956 59.0594 23.3491 59.0105 23.4025L59.0105 23.4025L59.0099 23.4031L59.0098 23.4032C58.9575 23.4603 58.9053 23.5172 58.8509 23.5631C58.9055 23.517 58.958 23.4598 59.0106 23.4024L59.0106 23.4024C59.0596 23.3491 59.1086 23.2956 59.1596 23.2508C60.8544 24.9797 62.0678 27.0191 63.0277 29.2237C62.6659 29.2608 62.3042 29.2985 61.9425 29.3363C61.5807 29.374 61.219 29.4117 60.8572 29.4488C60.7707 29.2819 60.6908 29.1101 60.6109 28.9384C60.433 28.5562 60.2552 28.1743 60.0056 27.848C59.2911 26.9092 58.5476 25.9953 57.8039 25.0813L57.8031 25.0803L57.8026 25.0798L57.8025 25.0797C57.4794 24.6825 57.1562 24.2853 56.8354 23.886L56.8353 23.886L51.0247 19.6734ZM101.839 84.1337L99.5061 84.3559H99.5032C100.063 85.3098 100.622 86.2631 101.18 87.2164L101.205 87.2588C101.776 88.2325 102.347 89.2062 102.918 90.1807C103.158 89.7277 103.521 89.6447 103.906 89.6291C103.522 89.645 103.16 89.7288 102.921 90.1807L102.924 90.1835C103.076 90.5201 103.231 90.8555 103.385 91.1909L103.385 91.191L103.386 91.1911L103.386 91.1912L103.386 91.1913L103.386 91.1914L103.386 91.1915L103.386 91.1916L103.386 91.1917L103.386 91.1918L103.386 91.1919L103.386 91.192L103.386 91.192L103.386 91.1921L103.386 91.1922L103.386 91.1923L103.386 91.1924L103.386 91.1925L103.386 91.1926L103.386 91.1927L103.386 91.1928L103.386 91.1929L103.386 91.193L103.386 91.1931L103.387 91.1931L103.387 91.1932L103.387 91.1933L103.387 91.1934L103.387 91.1935L103.387 91.1936L103.387 91.1937L103.387 91.1938C103.776 92.0382 104.165 92.8823 104.513 93.7439C104.597 93.9523 104.56 94.2086 104.522 94.4655C104.505 94.5844 104.487 94.7033 104.482 94.8177H106.738C106.683 94.5076 106.635 94.1952 106.589 93.8828L106.588 93.8826L106.588 93.8824C106.481 93.1678 106.374 92.4537 106.165 91.77C105.997 91.2164 105.711 90.7004 105.424 90.1842C105.293 89.9488 105.163 89.7134 105.043 89.4743C104.864 89.5784 104.66 89.6104 104.449 89.6204C104.659 89.6102 104.862 89.5779 105.04 89.4743C103.975 87.6941 102.907 85.9139 101.839 84.1337ZM21.7812 55.2689C21.6807 55.2938 21.5791 55.3162 21.4774 55.3386C21.2534 55.388 21.0292 55.4374 20.8156 55.5138C20.5935 55.5936 20.3789 55.6961 20.1643 55.7986C20.057 55.8499 19.9497 55.9012 19.8415 55.9496C19.405 55.1698 18.968 54.3901 18.5309 53.6101L18.5284 53.6056C17.8466 52.3889 17.1645 51.1717 16.4835 49.9535L16.4803 49.9538C16.157 48.9925 15.8344 48.0312 15.5118 47.0699C15.1893 46.1086 14.8667 45.1473 14.5434 44.186H16.6569C16.9775 45.108 17.2973 46.0301 17.6172 46.9521L17.619 46.9573L17.6208 46.9624L17.6252 46.975L17.627 46.9802C17.9452 47.8975 18.2634 48.8148 18.5823 49.732L18.5854 49.7317C19.118 50.6546 19.6507 51.5767 20.1833 52.4989C20.7159 53.421 21.2486 54.3432 21.7812 55.266V55.2689ZM21.564 23.0327C21.2046 22.9632 20.8449 22.8937 20.4852 22.8236C19.7637 23.8138 19.041 24.8029 18.3187 25.7916L18.3166 25.7945L18.31 25.8035L18.3096 25.8041L18.3092 25.8046L18.3088 25.8052L18.3067 25.808C17.893 26.3743 17.4794 26.9404 17.0661 27.5066L17.0642 27.5062V27.509C15.8936 29.275 15.116 31.2005 14.7657 33.294H17.0415C17.329 31.3496 18.2141 29.6385 19.1535 27.9531L19.155 27.9534C19.7702 27.1744 20.3862 26.3961 21.0021 25.6178C21.6181 24.8395 22.234 24.0612 22.8493 23.2821C22.4225 23.1986 21.9948 23.116 21.5668 23.0332L21.564 23.0327ZM14.7684 33.2941H17.0414C17.0458 33.3575 17.059 33.4269 17.0721 33.4961C17.1009 33.6476 17.1295 33.7986 17.067 33.8865L17.0063 33.9709C16.6615 34.4487 16.3362 34.8996 16.7936 35.5158C16.8591 35.6069 16.8705 35.8604 16.8078 35.906C16.1574 36.3868 16.1923 37.0213 16.2271 37.6546C16.2455 37.9892 16.2639 38.3235 16.1812 38.6347H16.1787L16.657 44.1832H14.5435C14.4709 43.2575 14.399 42.3318 14.3271 41.4061C14.2552 40.4813 14.1834 39.5566 14.1108 38.6318H14.1131C14.0024 36.8127 14.1421 35.0249 14.7684 33.2941ZM14.1108 38.6318H14.1106V38.629L14.1108 38.6318ZM7.83711 22.6286C8.16577 22.7959 8.49442 22.9633 8.82125 23.134V23.1312C8.99781 23.097 9.17437 23.0631 9.35094 23.0293L9.35181 23.0291L9.35189 23.0291L9.35197 23.0291L9.35204 23.0291L9.35212 23.0291L9.3522 23.029L9.35227 23.029L9.35235 23.029L9.35243 23.029L9.35251 23.029L9.35258 23.029L9.35266 23.0289L9.35274 23.0289L9.35282 23.0289L9.35289 23.0289L9.35297 23.0289L9.35305 23.0289L9.35312 23.0288L9.3532 23.0288L9.35328 23.0288L9.35336 23.0288L9.35343 23.0288L9.35351 23.0287L9.35359 23.0287L9.35367 23.0287L9.35374 23.0287L9.35382 23.0287L9.3539 23.0287L9.35397 23.0286L9.35405 23.0286C9.70624 22.9611 10.0584 22.8936 10.4106 22.8236C10.6598 22.7737 10.9084 22.7232 11.1569 22.6726C11.4054 22.622 11.6539 22.5715 11.9031 22.5216C11.4135 22.2368 10.9244 21.9512 10.4353 21.6657L10.4353 21.6656L10.4353 21.6656L10.4353 21.6656L10.4352 21.6656L10.4352 21.6656L10.4352 21.6656L10.4352 21.6655L10.4351 21.6655L10.4351 21.6655L10.4351 21.6655L10.4351 21.6655L10.435 21.6655L10.435 21.6654L10.435 21.6654L10.4349 21.6654L10.4349 21.6654L10.4349 21.6654L10.4349 21.6654L10.4348 21.6653L10.4348 21.6653L10.4348 21.6653L10.4348 21.6653L10.4347 21.6653L10.4347 21.6653L10.4347 21.6652L10.4347 21.6652L10.4346 21.6652L10.4346 21.6652L10.4346 21.6652L10.4346 21.6651C9.27068 20.9856 8.1067 20.306 6.93566 19.6363C6.35175 19.303 5.73936 19.1065 5.30357 19.8642C4.96177 20.4538 4.95323 21.0633 5.5884 21.4307C6.32322 21.8577 7.08019 22.2432 7.83711 22.6286ZM67.6905 22.3678C68.107 22.117 68.5218 21.863 68.9366 21.609C70.1331 20.8764 71.3295 20.1438 72.5668 19.4882C72.8573 19.3344 73.5637 19.6477 73.8941 19.9468C74.4068 20.4139 74.1134 20.9722 73.6207 21.2826C72.9101 21.7283 72.1783 22.1371 71.4462 22.546L71.4462 22.5461L71.4461 22.5461L71.446 22.5462L71.4459 22.5462L71.4458 22.5463L71.4457 22.5463L71.4456 22.5464L71.4455 22.5464L71.4454 22.5465L71.4453 22.5465L71.4452 22.5466L71.4451 22.5466L71.4451 22.5467L71.445 22.5467L71.4449 22.5468L71.4448 22.5468L71.4447 22.5469L71.4446 22.5469L71.4445 22.547L71.4444 22.547L71.4443 22.5471L71.4442 22.5471L71.4441 22.5472L71.444 22.5472L71.444 22.5473L71.4439 22.5473L71.4438 22.5474L71.4436 22.5475L71.4434 22.5476L71.4432 22.5477L71.4429 22.5478L71.4427 22.548L71.4425 22.5481L71.4423 22.5482L71.4421 22.5483L71.4419 22.5484L71.4417 22.5485L71.4415 22.5487L71.4413 22.5488L71.4411 22.5489L71.4409 22.549L71.4407 22.5491L71.4405 22.5492L71.4403 22.5493L71.4401 22.5495L71.4399 22.5496L71.4392 22.5499L71.439 22.5501L71.4388 22.5502L71.4386 22.5503L71.4379 22.5507L71.4377 22.5508L71.4375 22.5509L71.4372 22.551C71.1335 22.7207 70.8297 22.8904 70.5274 23.0628C70.3359 23.0392 70.1436 23.0188 69.9513 22.9984L69.9512 22.9984C69.4942 22.95 69.0367 22.9015 68.5877 22.8093C68.371 22.7644 68.1703 22.6446 67.9701 22.525C67.8783 22.4701 67.7865 22.4153 67.6933 22.3678H67.6905ZM67.9576 22.5211C67.8689 22.4678 67.7802 22.4145 67.6903 22.3678C67.4956 22.4687 67.2982 22.5651 67.1008 22.6615L67.1007 22.6615C66.6683 22.8727 66.236 23.0838 65.8332 23.3419C65.2208 23.735 65.1951 24.3303 65.5455 24.9228C65.8873 25.501 66.3886 25.4639 66.9013 25.1677C67.9237 24.5783 68.9421 23.9848 69.9615 23.3907L70.5244 23.0628C70.3338 23.0393 70.1424 23.019 69.951 22.9987L69.9509 22.9987L69.9507 22.9987L69.9506 22.9987L69.9505 22.9986L69.9504 22.9986L69.9503 22.9986L69.9502 22.9986L69.9501 22.9986L69.9499 22.9986L69.9498 22.9986L69.9497 22.9986L69.9496 22.9986L69.9495 22.9985L69.9494 22.9985L69.9492 22.9985L69.9491 22.9985L69.949 22.9985L69.9489 22.9985L69.9488 22.9985L69.9487 22.9985L69.9486 22.9984L69.9484 22.9984L69.9483 22.9984L69.9482 22.9984L69.9481 22.9984C69.4911 22.95 69.0336 22.9015 68.5846 22.8093C68.3645 22.7657 68.161 22.6433 67.9576 22.5211L67.9576 22.5211ZM8.82124 23.1341L10.4106 22.8265C10.688 22.771 10.9654 22.7146 11.2424 22.6584L11.243 22.6582L11.2439 22.658L11.2442 22.658L11.2446 22.6579L11.2452 22.6578L11.2461 22.6576L11.2467 22.6575L11.2473 22.6573L11.2482 22.6572C11.4669 22.6127 11.6853 22.5684 11.9031 22.5245C12.0507 22.6052 12.1999 22.6838 12.3491 22.7624L12.3491 22.7625L12.3493 22.7625L12.3495 22.7627L12.3495 22.7627C12.6955 22.945 13.0418 23.1274 13.37 23.3363C13.9881 23.7322 14.0764 24.2848 13.6577 24.8716C13.2931 25.3843 12.863 25.5694 12.2364 25.1678C11.4363 24.6522 10.6113 24.1748 9.78666 23.6976C9.46334 23.5105 9.14008 23.3234 8.81839 23.1341H8.82124ZM37.8153 50.7975L37.8201 50.797L37.8172 50.7998L37.8153 50.7975ZM37.533 50.4369C37.6266 50.5575 37.7201 50.6782 37.8153 50.7975C37.0052 50.8799 36.1978 50.9623 35.3876 51.0476C35.0847 50.7156 34.7804 50.3846 34.4761 50.0536L34.475 50.0524L34.4747 50.0521C33.798 49.3161 33.1213 48.5801 32.4595 47.8319C32.0266 47.3391 32.2545 46.8036 32.7244 46.6042C33.126 46.4333 33.8467 46.3906 34.1087 46.6356C34.89 47.3634 35.5982 48.173 36.3054 48.9814C36.5031 49.2075 36.7009 49.4335 36.9001 49.6576C37.1226 49.9076 37.3278 50.1722 37.533 50.4369ZM90.5709 67.7046L90.571 67.7046L90.5738 67.7075L90.5698 67.7058L90.5709 67.7046ZM90.5688 67.7038L90.5709 67.7046H90.568L90.5688 67.7038ZM90.5688 67.7038C92.3032 65.9324 93.9348 64.0926 94.7921 61.7032L92.6644 61.481C91.5165 63.6002 90.0553 65.4687 88.2295 67.0495C88.3543 67.0692 88.4798 67.0863 88.6053 67.1034L88.606 67.1035H88.6061C88.9156 67.1457 89.2249 67.1878 89.5227 67.2688C89.7732 67.3379 90.0129 67.4493 90.252 67.5605L90.2521 67.5605L90.2527 67.5608C90.3579 67.6097 90.463 67.6586 90.5688 67.7038ZM90.2551 67.5634C90.3598 67.6121 90.4644 67.6607 90.5698 67.7058C88.3313 69.8983 85.6372 71.2823 82.6355 72.0597C77.5427 73.3756 72.7946 72.4585 68.4224 69.6159C67.6663 69.1241 66.9844 68.5156 66.3027 67.9071L66.3026 67.907L66.3023 67.9068C65.9851 67.6237 65.668 67.3407 65.3434 67.0695C65.422 67.0231 65.4993 66.9712 65.5766 66.9193C65.7515 66.8018 65.9266 66.6841 66.1181 66.6308C66.1357 66.626 66.1532 66.6212 66.1709 66.6166C66.1532 66.6212 66.1356 66.6259 66.1181 66.6307C65.9247 66.684 65.7505 66.8015 65.5765 66.9189C65.4993 66.9709 65.4221 67.023 65.3433 67.0694C63.2697 64.8762 61.857 62.2956 60.9142 59.4473C60.8793 59.3408 60.8918 59.2185 60.9043 59.0966C60.9102 59.0391 60.9161 58.9817 60.917 58.926H60.9171C60.1367 56.3825 59.9658 53.8218 60.7006 51.2356C61.0536 51.237 61.4073 51.2391 61.7609 51.2413H61.7616C61.4077 51.2391 61.0539 51.237 60.7007 51.2356C60.7121 50.3554 60.8972 49.5579 61.1934 48.692C61.5977 47.5188 62.2325 46.5167 62.8689 45.5119L62.8691 45.5116C63.0577 45.2139 63.2464 44.9159 63.4294 44.6132L65.5912 45.049C65.402 45.4057 65.2105 45.7611 65.0191 46.1164L65.0185 46.1173L65.0185 46.1174L65.0184 46.1175L65.0183 46.1176L65.0183 46.1178L65.0182 46.1179L65.0181 46.118L65.0181 46.1182C64.5326 47.019 64.0474 47.9193 63.6003 48.8401C63.3809 49.2902 63.1559 49.8769 63.2699 50.3184C63.4123 50.8767 63.1873 51.0447 62.8227 51.2498V51.247L62.8226 51.247C62.7769 51.6715 62.7205 52.0963 62.6642 52.5211L62.6642 52.5212C62.5311 53.5245 62.3979 54.5284 62.4039 55.5308C62.4099 56.3196 62.5827 57.1069 62.7554 57.8939L62.7554 57.8939C62.8309 58.238 62.9064 58.582 62.9679 58.926H62.9678C63.9704 61.7288 65.4487 64.241 67.5137 66.3943H67.5166C67.3785 66.4162 67.2397 66.4349 67.1008 66.4535L67.0999 66.4537L67.6501 66.48C67.7053 66.5148 67.7608 66.5491 67.8164 66.5834L67.8164 66.5835L67.8165 66.5835L67.8166 66.5836L67.8166 66.5836L67.8167 66.5837L67.8168 66.5837L67.8168 66.5837L67.8169 66.5838L67.817 66.5838L67.817 66.5839L67.8171 66.5839L67.8172 66.584C68.0128 66.7049 68.2088 66.8259 68.3911 66.9669C72.3075 70.0118 76.637 71.1312 81.5589 70.0887C83.8078 69.6116 85.7718 68.6464 87.6475 67.4384C87.8434 67.3123 88.0383 67.1835 88.2325 67.0524C88.3573 67.0721 88.4825 67.0892 88.6077 67.1063L88.6079 67.1063C88.917 67.1485 89.2256 67.1906 89.5256 67.2717C89.7762 67.3407 90.0158 67.4522 90.2549 67.5633L90.2551 67.5634ZM67.6498 66.4799C67.6051 66.4517 67.5607 66.4233 67.5166 66.3944C67.3787 66.4163 67.2398 66.4349 67.1008 66.4535L67.6498 66.4799ZM67.6498 66.4799L87.6475 67.4384L67.6501 66.48L67.6498 66.4799ZM67.901 40.0901C69.5046 38.7343 71.3731 37.8598 73.3812 37.3899C74.4626 37.136 75.5757 37.014 76.689 36.8919C77.2119 36.8346 77.7349 36.7773 78.2547 36.7063C78.3947 36.6868 78.5379 36.6498 78.6809 36.6129C78.9569 36.5416 79.2318 36.4705 79.4795 36.5268C83.6318 37.4581 87.7527 38.4748 90.7804 41.8177C93.0638 43.8597 94.4903 46.434 95.4301 49.3102C94.7208 49.3842 94.0116 49.4583 93.3024 49.5352C93.0729 49.1004 92.8523 48.6601 92.6317 48.2199C92.1212 47.2012 91.611 46.183 90.9924 45.2342C90.5383 44.5384 89.9486 43.9334 89.358 43.3276L89.3579 43.3275C89.0943 43.0571 88.8306 42.7865 88.5786 42.5076C88.1535 42.262 87.7343 42.0014 87.315 41.7407L87.3149 41.7406L87.3148 41.7406L87.3147 41.7405L87.3146 41.7404L87.3144 41.7404L87.3143 41.7403L87.3142 41.7402L87.3141 41.7402L87.314 41.7401L87.3138 41.74L87.3136 41.7399C86.3772 41.1577 85.4403 40.5753 84.4355 40.1584C81.8037 39.0675 79.0323 38.4181 76.1726 39.0818C74.8552 39.3867 73.5646 39.8029 72.2742 40.2191L72.2738 40.2192C71.6839 40.4095 71.094 40.5998 70.5015 40.7794L70.4964 40.7787L65.594 45.049L63.4322 44.6133C64.6114 42.7989 66.0412 41.2295 67.9012 40.0901L67.901 40.0901ZM93.3053 49.538C93.6599 49.5009 94.0146 49.4632 94.3692 49.4255C94.7238 49.3877 95.0784 49.35 95.433 49.313C96.1366 51.472 96.2277 53.6937 96.0824 55.9353H96.0824C96.1564 57.969 95.5469 59.8517 94.7949 61.7032L92.6672 61.481C92.8923 60.5567 93.1166 59.6324 93.3409 58.7081L93.348 58.6786C93.57 57.7642 93.7919 56.8497 94.0145 55.9353H94.0117C94.0174 53.7763 93.9918 51.6201 93.3053 49.538ZM79.2533 56.9923C79.7425 56.489 80.2318 55.9856 80.7243 55.4853L80.7244 55.4852V55.4824C81.3268 54.88 81.9285 54.2776 82.5302 53.6752C83.1312 53.0734 83.7323 52.4717 84.334 51.8699L84.3388 51.8707H84.3417C84.4058 51.8323 84.4706 51.7938 84.5354 51.7554C84.6002 51.7169 84.665 51.6785 84.729 51.64C85.1727 51.1423 85.6193 50.6446 86.0658 50.1469L86.0678 50.1446C86.0706 49.6263 86.0735 49.105 86.0735 48.5838C85.8915 48.6094 85.6949 48.6166 85.4984 48.6239C85.0614 48.6401 84.6244 48.6562 84.3474 48.8743C83.6793 49.4022 83.0924 50.0358 82.506 50.6688C82.2704 50.9231 82.0349 51.1772 81.7943 51.4244L81.7896 51.4236C81.0793 52.1358 80.3677 52.8467 79.6558 53.5581L79.6554 53.5584C79.3004 53.9131 78.9453 54.2679 78.5901 54.6231L78.5881 54.6222L78.5682 54.6443C77.4811 55.8503 76.3933 57.0571 75.1901 58.3905C74.8501 57.7997 74.5262 57.2443 74.2158 56.7119L74.2118 56.7049L74.2098 56.7016L74.2097 56.7014L74.2093 56.7007C73.5212 55.5204 72.899 54.4534 72.3133 53.3661C71.8832 52.5686 71.1967 52.5657 70.6043 52.8335C70.3394 52.9531 70.1201 53.8104 70.2853 54.1209C71.3591 56.1432 72.507 58.1285 73.7004 60.0853C74.421 61.2645 74.8882 61.3442 75.8537 60.4128C77.0116 59.2986 78.1323 58.1456 79.2531 56.9925L79.2532 56.9924L79.2533 56.9923Z" fill="url(#paint0_linear_15207_955)"/>
<defs>
<linearGradient id="paint0_linear_15207_955" x1="0" y1="50" x2="106.738" y2="50" gradientUnits="userSpaceOnUse">
<stop stop-color="#6288A1"/>
<stop offset="0.520833" stop-color="#B377D3"/>
<stop offset="1" stop-color="#B86B85"/>
</linearGradient>
</defs>
</svg>
