<svg width="90" height="56" viewBox="0 0 90 56" fill="none" xmlns="http://www.w3.org/2000/svg">
<rect width="90" height="56" rx="28" fill="#F9FAFB"/>
<path d="M56.8186 11.6159L32.7781 17.6255C27.0342 19.061 27.0911 27.245 32.8551 28.6017L40.3334 30.3617C40.5186 30.4057 40.7147 30.3507 40.8486 30.2151L49.535 21.5287C50.0667 20.997 50.9463 20.997 51.478 21.5287C52.0096 22.0604 52.0096 22.9404 51.478 23.472L42.788 32.162C42.6542 32.2959 42.5976 32.492 42.6416 32.6772L44.3998 40.1481C45.7564 45.9121 53.9401 45.9689 55.3756 40.225L61.3854 16.1845C62.0729 13.4235 59.5741 10.9265 56.8186 11.6159Z" fill="url(#paint0_linear_15207_193)"/>
<defs>
<linearGradient id="paint0_linear_15207_193" x1="28.501" y1="28.0011" x2="61.5006" y2="28.0011" gradientUnits="userSpaceOnUse">
<stop stop-color="#6288A1"/>
<stop offset="0.520833" stop-color="#B377D3"/>
<stop offset="1" stop-color="#B86B85"/>
</linearGradient>
</defs>
</svg>
