<svg width="24" height="24" viewBox="0 0 24 24" fill="none" xmlns="http://www.w3.org/2000/svg">
<path d="M21.6996 16.4898C21.5396 15.9598 21.0095 15.6598 20.9095 15.6198C20.8595 15.5898 20.8196 15.5698 20.7596 15.5398C20.1996 15.2698 19.6996 14.9398 19.2896 14.5798C18.9596 14.2798 18.6796 13.9698 18.4596 13.6398C18.2896 13.3898 18.1796 13.1698 18.1196 12.9998C18.2896 12.8898 18.4795 12.7598 18.6595 12.6498C18.8295 12.5398 18.9696 12.4498 19.0596 12.3898C19.4496 12.1098 19.7295 11.8198 19.9095 11.4798C20.1595 10.9998 20.1996 10.4498 19.9996 9.93981C19.6896 9.10981 18.8496 8.63981 17.8396 8.80981C17.8396 8.30981 17.8396 7.79982 17.7996 7.37982C17.7296 6.62982 17.5796 5.99981 17.3196 5.43981C17.0496 4.83981 16.6996 4.41982 16.4596 4.15982C16.1996 3.86982 15.7595 3.43981 15.0995 3.05981C13.2695 2.00981 10.7695 1.99981 8.90955 3.05981C8.20955 3.45981 7.75956 3.91982 7.54956 4.15982C7.28956 4.45982 6.95959 4.86981 6.69959 5.43981C6.43959 5.99981 6.28954 6.63982 6.21954 7.37982C6.18954 7.75982 6.16957 8.23981 6.17957 8.79981C6.04957 8.77981 5.91955 8.76982 5.78955 8.76982C4.96955 8.76982 4.2996 9.21981 4.0296 9.93981C3.8296 10.4598 3.86957 10.9998 4.11957 11.4798C4.28957 11.8098 4.56954 12.1098 4.96954 12.3898C5.05954 12.4498 5.19956 12.5398 5.41956 12.6798C5.54956 12.7698 5.73955 12.8898 5.90955 12.9998C5.83955 13.1698 5.72957 13.3898 5.55957 13.6398C5.33957 13.9698 5.05955 14.2898 4.72955 14.5798C4.30955 14.9498 3.80958 15.2798 3.25958 15.5398C3.20958 15.5598 3.14958 15.5898 3.12958 15.6098C2.96958 15.6898 2.44956 15.9898 2.29956 16.5098C2.11956 17.1398 2.41958 17.8198 3.06958 18.2398C3.60958 18.5898 4.2296 18.7698 4.6496 18.8798H4.67957C4.77957 19.2998 4.99958 19.6298 5.31958 19.8598C5.75958 20.1598 6.24955 20.1798 6.72955 20.1998C7.11955 20.2098 7.59958 20.2298 8.12958 20.4098C8.33958 20.4798 8.54959 20.6098 8.82959 20.7798C9.50959 21.1998 10.4396 21.7698 11.9996 21.7698C13.5596 21.7698 14.4896 21.1998 15.1996 20.7698C15.4596 20.6098 15.6696 20.4798 15.8696 20.4198C16.3896 20.2498 16.8496 20.2298 17.2696 20.2098C17.7496 20.1898 18.2396 20.1698 18.6796 19.8698C18.9996 19.6498 19.2096 19.3398 19.3196 18.8998L19.4196 18.8698C19.7596 18.7798 20.2196 18.6498 20.7796 18.3398C21.6996 17.8098 21.8496 17.0198 21.6996 16.5098V16.4898ZM20.2195 16.8798C20.2195 16.8798 20.1396 16.9598 20.0496 17.0098C19.6596 17.2298 19.3496 17.3198 18.9896 17.4098L18.6796 17.4998C18.4296 17.5898 18.2496 17.7098 18.1196 17.8798C17.9696 18.0898 17.9296 18.2998 17.8996 18.4598C17.8796 18.5698 17.8595 18.5998 17.8495 18.5998C17.7695 18.6598 17.4796 18.6698 17.2096 18.6798C16.7496 18.6998 16.1295 18.7298 15.4095 18.9598C15.0495 19.0798 14.7496 19.2598 14.3996 19.4798C13.7796 19.8598 13.1496 20.2498 12.0096 20.2498C10.8696 20.2498 10.2396 19.8598 9.61957 19.4798C9.28957 19.2798 8.97956 19.0898 8.60956 18.9598C7.86956 18.7198 7.21955 18.6898 6.78955 18.6798C6.53955 18.6798 6.25957 18.6598 6.17957 18.6098C6.15957 18.5998 6.14957 18.5598 6.11957 18.4398C6.09957 18.3098 6.05959 18.0898 5.88959 17.8698C5.75959 17.7098 5.56957 17.5798 5.30957 17.4898C5.22957 17.4598 5.1296 17.4398 5.0296 17.4098C4.7096 17.3298 4.24959 17.1898 3.88959 16.9598C3.86959 16.9498 3.84959 16.9298 3.82959 16.9198C3.84959 16.9098 3.8896 16.8898 3.8996 16.8798C4.5796 16.5498 5.18954 16.1498 5.71954 15.6898C6.14954 15.3098 6.50956 14.8898 6.79956 14.4598C7.14956 13.9298 7.32956 13.4698 7.41956 13.1598C7.47956 12.9398 7.50959 12.6998 7.38959 12.4098C7.29959 12.1798 7.11956 12.0098 6.98956 11.9198C6.76956 11.7598 6.42956 11.5398 6.16956 11.3698C6.01956 11.2698 5.87957 11.1798 5.80957 11.1298C5.61957 10.9998 5.48957 10.8698 5.42957 10.7598C5.37957 10.6598 5.36956 10.5598 5.41956 10.4498C5.48956 10.2698 5.73954 10.2198 5.96954 10.2698C6.21954 10.3198 6.4496 10.4198 6.5896 10.4598C6.8196 10.5798 7.1196 10.5598 7.3396 10.4298C7.5696 10.2898 7.7196 10.0098 7.7096 9.73982C7.6696 8.76982 7.6696 8.00982 7.7096 7.48982C7.7596 6.91982 7.86957 6.43981 8.05957 6.0398C8.23957 5.64981 8.47957 5.34981 8.67957 5.11981C8.79957 4.98981 9.1196 4.63981 9.6496 4.33981C11.0496 3.54981 12.9695 3.54981 14.3495 4.33981C14.8295 4.60981 15.1396 4.91982 15.3296 5.12982C15.5196 5.33982 15.7596 5.63981 15.9496 6.04981C16.1296 6.44981 16.2496 6.92981 16.2996 7.49981C16.3496 8.13981 16.3396 9.07981 16.2996 9.77981C16.2996 10.0398 16.4496 10.2998 16.6696 10.4398C16.8696 10.5598 17.1395 10.5898 17.3495 10.4998C17.5495 10.4198 17.7796 10.3298 18.0196 10.2798C18.3096 10.2198 18.5096 10.2798 18.5796 10.4598C18.6196 10.5698 18.6196 10.6698 18.5696 10.7698C18.5096 10.8898 18.3796 11.0098 18.1896 11.1398C18.1096 11.1898 17.9796 11.2798 17.7596 11.4198C17.5396 11.5598 17.2096 11.7798 16.9896 11.9298C16.8896 11.9998 16.7096 12.1598 16.5896 12.4098C16.4996 12.6398 16.4896 12.8598 16.5696 13.1598C16.6396 13.3998 16.8096 13.8798 17.1896 14.4498C17.4796 14.8898 17.8396 15.2998 18.2696 15.6898C18.7896 16.1498 19.3996 16.5498 20.0896 16.8798L20.1996 16.8698L20.2195 16.8798Z" fill="#F9FAFB"/>
</svg>
