<svg width="27" height="24" viewBox="0 0 27 24" fill="none" xmlns="http://www.w3.org/2000/svg">
<path d="M24.25 17.4545H23.7045V15.8182C23.7045 13.1127 21.5009 10.9091 18.7955 10.9091H13.8864V6.54545H14.4318C15.6318 6.54545 16.6136 5.56364 16.6136 4.36364V2.18182C16.6136 0.981818 15.6318 0 14.4318 0H12.25C11.05 0 10.0682 0.981818 10.0682 2.18182V4.36364C10.0682 5.56364 11.05 6.54545 12.25 6.54545H12.7955V10.9091H7.88636C5.18091 10.9091 2.97727 13.1127 2.97727 15.8182V17.4545H2.43182C1.23182 17.4545 0.25 18.4364 0.25 19.6364V21.8182C0.25 23.0182 1.23182 24 2.43182 24H4.61364C5.81364 24 6.79545 23.0182 6.79545 21.8182V19.6364C6.79545 18.4364 5.81364 17.4545 4.61364 17.4545H4.06818V15.8182C4.06818 13.7127 5.78091 12 7.88636 12H12.7955V17.4545H12.25C11.05 17.4545 10.0682 18.4364 10.0682 19.6364V21.8182C10.0682 23.0182 11.05 24 12.25 24H14.4318C15.6318 24 16.6136 23.0182 16.6136 21.8182V19.6364C16.6136 18.4364 15.6318 17.4545 14.4318 17.4545H13.8864V12H18.7955C20.9009 12 22.6136 13.7127 22.6136 15.8182V17.4545H22.0682C20.8682 17.4545 19.8864 18.4364 19.8864 19.6364V21.8182C19.8864 23.0182 20.8682 24 22.0682 24H24.25C25.45 24 26.4318 23.0182 26.4318 21.8182V19.6364C26.4318 18.4364 25.45 17.4545 24.25 17.4545ZM11.1591 4.36364V2.18182C11.1591 1.58182 11.65 1.09091 12.25 1.09091H14.4318C15.0318 1.09091 15.5227 1.58182 15.5227 2.18182V4.36364C15.5227 4.96364 15.0318 5.45455 14.4318 5.45455H12.25C11.65 5.45455 11.1591 4.96364 11.1591 4.36364ZM5.70455 19.6364V21.8182C5.70455 22.4182 5.21364 22.9091 4.61364 22.9091H2.43182C1.83182 22.9091 1.34091 22.4182 1.34091 21.8182V19.6364C1.34091 19.0364 1.83182 18.5455 2.43182 18.5455H4.61364C5.21364 18.5455 5.70455 19.0364 5.70455 19.6364ZM15.5227 19.6364V21.8182C15.5227 22.4182 15.0318 22.9091 14.4318 22.9091H12.25C11.65 22.9091 11.1591 22.4182 11.1591 21.8182V19.6364C11.1591 19.0364 11.65 18.5455 12.25 18.5455H14.4318C15.0318 18.5455 15.5227 19.0364 15.5227 19.6364ZM25.3409 21.8182C25.3409 22.4182 24.85 22.9091 24.25 22.9091H22.0682C21.4682 22.9091 20.9773 22.4182 20.9773 21.8182V19.6364C20.9773 19.0364 21.4682 18.5455 22.0682 18.5455H24.25C24.85 18.5455 25.3409 19.0364 25.3409 19.6364V21.8182Z" fill="url(#paint0_linear_15132_795)"/>
<defs>
<linearGradient id="paint0_linear_15132_795" x1="0.25" y1="12" x2="26.4318" y2="12" gradientUnits="userSpaceOnUse">
<stop stop-color="#57D7FF"/>
<stop offset="0.317708" stop-color="#C557FF"/>
<stop offset="0.692708" stop-color="#7555FF"/>
<stop offset="1" stop-color="#8281FD"/>
</linearGradient>
</defs>
</svg>
