<svg width="24" height="24" viewBox="0 0 24 24" fill="none" xmlns="http://www.w3.org/2000/svg">
<g clip-path="url(#clip0_15132_774)">
<path d="M16.642 15.479C16.907 15.401 17.058 15.123 16.98 14.858C16.902 14.593 16.622 14.441 16.359 14.52L8.088 16.962L9.475 14.773C9.622 14.54 9.553 14.231 9.32 14.083C9.088 13.937 8.779 14.003 8.63 14.238C8.63 14.238 6.524 17.563 6.513 17.583C5.965 18.617 5.852 19.803 6.196 20.922C6.773 22.803 8.509 24.016 10.387 24.016C10.815 24.016 11.25 23.953 11.681 23.821L12.854 23.43C13.531 23.204 13.989 22.575 13.993 21.864C14.009 17.934 14.014 16.711 13.895 16.29L16.644 15.478L16.642 15.479ZM12.992 16.58C12.998 16.724 13.009 17.552 12.992 21.86C12.99 22.142 12.807 22.392 12.537 22.482L11.376 22.869C9.592 23.416 7.697 22.412 7.151 20.63C6.903 19.822 6.963 18.969 7.302 18.237L12.991 16.558C12.991 16.565 12.991 16.573 12.993 16.58H12.992ZM8.001 8C8.553 8 9.001 8.448 9.001 9C9.001 9.552 8.553 10 8.001 10C7.449 10 7.001 9.552 7.001 9C7.001 8.448 7.449 8 8.001 8ZM16.001 11C15.449 11 15.001 10.552 15.001 10C15.001 9.448 15.449 9 16.001 9C16.553 9 17.001 9.448 17.001 10C17.001 10.552 16.553 11 16.001 11ZM5.703 6.9C5.482 6.736 5.433 6.427 5.597 6.205C5.632 6.156 6.494 5 8 5C10.007 5 10.926 7.218 10.964 7.313C11.067 7.568 10.943 7.858 10.689 7.962C10.627 7.987 10.563 7.999 10.501 7.999C10.304 7.999 10.117 7.881 10.038 7.688C10.031 7.671 9.33 6 8.001 6C7.013 6 6.428 6.765 6.403 6.797C6.237 7.018 5.926 7.063 5.703 6.9ZM24 12C24 16.822 21.133 21.158 16.696 23.046C16.632 23.073 16.565 23.086 16.5 23.086C16.306 23.086 16.121 22.972 16.04 22.782C15.932 22.528 16.05 22.234 16.304 22.126C20.372 20.395 23 16.42 23 12C23 5.935 18.065 1 12 1C5.935 1 1 5.935 1 12C1 14.748 2.02 17.379 3.869 19.409C4.056 19.613 4.041 19.93 3.837 20.116C3.634 20.303 3.317 20.288 3.131 20.083C1.111 17.869 0 14.998 0 12C0 5.383 5.383 0 12 0C18.617 0 24 5.383 24 12Z" fill="url(#paint0_linear_15132_774)"/>
</g>
<defs>
<linearGradient id="paint0_linear_15132_774" x1="0" y1="12.008" x2="24" y2="12.008" gradientUnits="userSpaceOnUse">
<stop stop-color="#57D7FF"/>
<stop offset="0.317708" stop-color="#C557FF"/>
<stop offset="0.692708" stop-color="#7555FF"/>
<stop offset="1" stop-color="#8281FD"/>
</linearGradient>
<clipPath id="clip0_15132_774">
<rect width="24" height="24" fill="white"/>
</clipPath>
</defs>
</svg>
