<svg width="30" height="30" viewBox="0 0 30 30" fill="none" xmlns="http://www.w3.org/2000/svg">
<path d="M9.42458 7.04091L7.28138 3.52102L8.13606 3.001L10.2803 6.5209L9.42458 7.04091ZM23.0082 14.9765C23.0082 17.304 21.9962 19.5133 20.2317 21.0393C19.4492 21.7146 19.0003 22.6835 19.0003 23.6975V27H10.9846V23.6985C10.9846 22.6896 10.5277 21.7126 9.73018 21.0183C7.66413 19.2188 6.66618 16.5125 7.06396 13.7771C7.57696 10.2492 10.5277 7.40463 14.0807 7.01085C16.3922 6.75435 18.6166 7.46174 20.338 9.00175C22.0343 10.5217 23.0082 12.698 23.0082 14.9755V14.9765ZM17.9984 23.6975C17.9984 23.4581 18.0385 23.2256 18.0755 22.9922H11.9074C11.9455 23.2256 11.9856 23.4601 11.9856 23.6985V25.998H17.9974V23.6975H17.9984ZM22.0062 14.9765C22.0062 12.9846 21.1546 11.0788 19.6696 9.74922C18.1647 8.40258 16.2249 7.78136 14.1899 8.00781C11.0838 8.35148 8.50378 10.8384 8.0559 13.9224C7.70722 16.3181 8.57893 18.6887 10.3875 20.2628C10.9416 20.7447 11.3524 21.3409 11.6239 21.9902H14.4905V16.4283C13.3483 16.1958 12.4866 15.1839 12.4866 13.9745H13.4885C13.4885 14.8031 14.1629 15.4774 14.9915 15.4774C15.8201 15.4774 16.4944 14.8031 16.4944 13.9745H17.4964C17.4964 15.1849 16.6347 16.1958 15.4925 16.4283V21.9902H18.3541C18.6226 21.3439 19.0274 20.7538 19.5745 20.2808C21.1195 18.9462 22.0062 17.0124 22.0062 14.9765ZM22.7036 3.52102L21.8479 3L19.7037 6.51989L20.5594 7.04091L22.7036 3.52102ZM26.5712 7.87154L23.0282 9.47167L23.441 10.3855L26.984 8.78533L26.5712 7.87154ZM3 8.78533L6.54294 10.3855L6.95575 9.47167L3.41281 7.87154L3 8.78533Z" fill="url(#paint0_linear_15132_803)"/>
<defs>
<linearGradient id="paint0_linear_15132_803" x1="3" y1="15" x2="26.984" y2="15" gradientUnits="userSpaceOnUse">
<stop stop-color="#57D7FF"/>
<stop offset="0.317708" stop-color="#C557FF"/>
<stop offset="0.692708" stop-color="#7555FF"/>
<stop offset="1" stop-color="#8281FD"/>
</linearGradient>
</defs>
</svg>
