<svg width="27" height="24" viewBox="0 0 27 24" fill="none" xmlns="http://www.w3.org/2000/svg">
<path fill-rule="evenodd" clip-rule="evenodd" d="M19.148 0C18.9318 0.454293 18.7218 0.894175 18.5118 1.33406H18.5111L18.4909 1.36185L18.4707 1.38964C18.448 1.45456 18.4266 1.5202 18.4053 1.5859L18.4053 1.58592C18.3584 1.73066 18.3113 1.87562 18.249 2.01344C18.1922 2.13869 18.1262 2.26022 18.0602 2.38159C17.9636 2.55946 17.8671 2.737 17.8002 2.92546C17.5508 3.62952 17.3161 4.33895 17.0813 5.04858C16.9912 5.32112 16.901 5.5937 16.81 5.86601L16.8092 5.86755L16.7753 5.88116L16.7752 5.8812C16.7553 5.88913 16.7356 5.89699 16.7159 5.90513L16.7586 5.97216L16.7585 5.97238C16.7303 6.10346 16.7019 6.23434 16.6736 6.36513L16.6733 6.36641L16.6034 6.6895L16.5663 6.7945C16.5583 6.86823 16.5561 6.94471 16.5539 7.02119C16.5492 7.18674 16.5444 7.35235 16.4806 7.49035C16.3213 7.83552 16.2911 8.20022 16.2609 8.56453V8.56454C16.2398 8.81876 16.2188 9.07279 16.1539 9.31987C16.1224 9.43934 16.1298 9.5681 16.1373 9.69768V9.69769V9.6977V9.6977V9.69771V9.69772V9.69773V9.69774V9.69775V9.69776V9.69776V9.69777V9.69778V9.69779V9.6978V9.69781V9.69782V9.69782V9.69783V9.69784V9.69785V9.69786V9.69787V9.69788V9.69788V9.69789V9.6979V9.69791V9.69792C16.1428 9.79379 16.1483 9.89012 16.1381 9.98347C16.1251 10.1036 16.0988 10.2233 16.0726 10.3428C16.0342 10.5183 15.9958 10.6933 15.9995 10.868C16.0062 11.1839 15.9979 11.5 15.9895 11.8161C15.9741 12.4026 15.9586 12.9892 16.0393 13.5746C16.077 13.8497 16.1063 14.1262 16.1356 14.4026L16.1356 14.4026L16.1356 14.4026L16.1356 14.4026L16.1356 14.4026L16.1356 14.4026L16.1356 14.4027L16.1356 14.4027L16.1356 14.4027L16.1356 14.4027L16.1356 14.4027L16.1356 14.4027L16.1356 14.4027L16.1356 14.4028L16.1356 14.4028L16.1356 14.4028L16.1356 14.4028L16.1356 14.4028L16.1356 14.4028L16.1356 14.4028L16.1356 14.4029L16.1356 14.4029L16.1356 14.4029L16.1357 14.4029L16.1357 14.4029L16.1357 14.4029L16.1357 14.4029L16.1357 14.403L16.1357 14.403L16.1357 14.403L16.1357 14.403L16.1357 14.403L16.1357 14.4031L16.1357 14.4031L16.1357 14.4031L16.1357 14.4031L16.1357 14.4032L16.1357 14.4032L16.1357 14.4032L16.1357 14.4033L16.1357 14.4033L16.1357 14.4033L16.1357 14.4033L16.1357 14.4034L16.1357 14.4034L16.1357 14.4034L16.1357 14.4034L16.1357 14.4035L16.1357 14.4035L16.1357 14.4035L16.1357 14.4035L16.1357 14.4036L16.1357 14.4036L16.1357 14.4036L16.1357 14.4036L16.1357 14.4037L16.1357 14.4037C16.171 14.7363 16.2063 15.0689 16.2562 15.3993C16.355 16.0519 16.4661 16.7052 16.6178 17.3476C16.6384 17.4348 16.6567 17.5226 16.6749 17.6105L16.675 17.6107C16.7212 17.833 16.7676 18.0564 16.8532 18.2767C17.0454 18.7721 17.2107 19.2778 17.3762 19.7837L17.3762 19.7837C17.5032 20.172 17.6302 20.5603 17.7693 20.9442C17.8457 21.1547 17.9535 21.3537 18.0615 21.553L18.0616 21.5531L18.0616 21.5532C18.1398 21.6975 18.2181 21.8421 18.2847 21.9914C18.3566 22.1525 18.4165 22.3189 18.4764 22.4854L18.4764 22.4854L18.4764 22.4854L18.4764 22.4854L18.4764 22.4854L18.4764 22.4855L18.4764 22.4855L18.4764 22.4855L18.4764 22.4855L18.4764 22.4855L18.4764 22.4855L18.4764 22.4856L18.4764 22.4856L18.4764 22.4856L18.4764 22.4856L18.4764 22.4856L18.4764 22.4856L18.4765 22.4857L18.4765 22.4857L18.4765 22.4857L18.4765 22.4857L18.4765 22.4857L18.4765 22.4857L18.4765 22.4858L18.4765 22.4858L18.4765 22.4858L18.4765 22.4858L18.4765 22.4858L18.4765 22.4858L18.4765 22.4859L18.4766 22.486C18.5372 22.6546 18.5979 22.8232 18.671 22.9864C18.7762 23.2209 18.897 23.4482 19.0178 23.6752L19.0178 23.6753L19.0179 23.6753L19.0179 23.6754L19.0179 23.6755L19.0179 23.6755L19.018 23.6756L19.018 23.6756L19.018 23.6757L19.0181 23.6757L19.0181 23.6758L19.0181 23.6759L19.0181 23.6759L19.0182 23.676L19.0182 23.676L19.0182 23.6761L19.0183 23.6761L19.0183 23.6762L19.0183 23.6763L19.0183 23.6763L19.0184 23.6764L19.0184 23.6764L19.0184 23.6765L19.0185 23.6765L19.0185 23.6766L19.0185 23.6767L19.0185 23.6767L19.0186 23.6768L19.0186 23.6768L19.0186 23.6769C19.0725 23.7782 19.1264 23.8796 19.1789 23.9815C19.6476 23.7282 20.0888 23.4901 20.5411 23.2465L20.5264 23.2203L20.5122 23.1953C20.5004 23.1744 20.491 23.1579 20.482 23.1408C20.3886 22.9635 20.2927 22.7873 20.1967 22.6112C19.9749 22.2039 19.7531 21.7967 19.5625 21.3751C19.3319 20.8646 19.1596 20.3258 18.9895 19.7913C18.6992 18.8786 18.4171 17.9624 18.1577 17.0408C18.0648 16.7107 17.9989 16.3729 17.9331 16.035C17.9046 15.889 17.8761 15.743 17.8455 15.5976C17.8415 15.5784 17.8424 15.5583 17.8433 15.5381C17.8439 15.5236 17.8446 15.509 17.8434 15.4947C17.834 15.3771 17.8252 15.2594 17.8164 15.1418C17.7933 14.8331 17.7703 14.5247 17.735 14.2176C17.7204 14.0891 17.6935 13.962 17.6666 13.835L17.6666 13.835L17.6666 13.835L17.6666 13.835L17.6666 13.8349L17.6666 13.8349L17.6666 13.8349L17.6666 13.8348L17.6666 13.8348L17.6666 13.8348L17.6666 13.8348L17.6666 13.8347L17.6665 13.8347L17.6665 13.8347L17.6665 13.8347L17.6665 13.8346L17.6665 13.8346L17.6665 13.8346L17.6665 13.8346L17.6665 13.8345L17.6665 13.8345L17.6665 13.8345L17.6665 13.8345L17.6665 13.8344L17.6665 13.8344L17.6665 13.8344L17.6665 13.8344L17.6665 13.8343L17.6665 13.8343C17.6354 13.6877 17.6044 13.5412 17.5923 13.3927C17.5641 13.0489 17.5566 12.7003 17.5497 12.3572C17.5369 11.6746 17.5849 10.9897 17.6328 10.3068L17.6424 10.1701C17.678 9.66231 17.7405 9.15586 17.816 8.65285C17.8515 8.41873 17.9034 8.18697 17.9553 7.95498C17.9877 7.81023 18.0201 7.6654 18.0486 7.51986C18.0638 7.44231 18.071 7.36325 18.0782 7.28407L18.0782 7.284C18.0847 7.21255 18.0912 7.141 18.1035 7.07037C18.1375 6.87702 18.1756 6.68399 18.2138 6.49106L18.2138 6.49093L18.2139 6.49071C18.2312 6.40301 18.2485 6.31534 18.2655 6.22766C18.2778 6.19335 18.2902 6.15835 18.3025 6.12335C18.324 6.08348 18.3473 6.0442 18.3706 6.00492C18.423 5.91642 18.4754 5.82794 18.5077 5.73288C18.5405 5.63585 18.5626 5.53498 18.5847 5.43406C18.6084 5.32585 18.6321 5.21757 18.669 5.11389C18.8515 4.60312 19.0405 4.09483 19.2294 3.58647L19.2295 3.58615L19.2296 3.58578L19.2298 3.58541L19.2299 3.58505C19.3043 3.38492 19.3787 3.18478 19.4527 2.98447C19.462 2.97178 19.4709 2.95873 19.4797 2.94584L19.4904 2.93026L20.1183 1.54405C20.1252 1.53478 20.1319 1.52535 20.1386 1.51591C20.1453 1.50648 20.152 1.49704 20.1588 1.48778L20.2823 1.24032C20.363 1.07853 20.4453 0.913688 20.5315 0.740457C20.2488 0.589404 19.9672 0.438613 19.6828 0.286313L19.148 0ZM9.46357 15.7632L9.46358 15.7631C9.4767 15.6108 9.48979 15.4588 9.50763 15.3074C9.52457 15.1637 9.54526 15.0203 9.56595 14.877V14.8769V14.8769V14.8769V14.8769V14.8769V14.8769V14.8769V14.8769V14.8769V14.8769V14.8769V14.8769V14.8768V14.8768V14.8768V14.8768V14.8768V14.8768V14.8768V14.8768V14.8768V14.8768V14.8768V14.8767V14.8767V14.8767V14.8767V14.8767V14.8767C9.60393 14.6134 9.64189 14.3502 9.65655 14.0858C9.70664 13.1786 9.73684 12.2707 9.76086 11.3628C9.76211 11.3152 9.76426 11.2665 9.76642 11.2172V11.2172C9.77729 10.9701 9.78871 10.7105 9.69086 10.5119C9.62148 10.3715 9.63875 10.2498 9.65549 10.1319C9.66689 10.0516 9.67804 9.973 9.66135 9.89152C9.64395 9.80486 9.62594 9.71826 9.60793 9.63162L9.60793 9.63159L9.60792 9.63156L9.60791 9.63153L9.60791 9.6315L9.6079 9.63148L9.6079 9.63145L9.60789 9.63142L9.60789 9.63139L9.60788 9.63136L9.60787 9.63133L9.60787 9.6313L9.60786 9.63128L9.60786 9.63125L9.60785 9.63122L9.60785 9.63119L9.60784 9.63116L9.60783 9.63113L9.60783 9.6311L9.60782 9.63107L9.60782 9.63105L9.60781 9.63102L9.60781 9.63099L9.6078 9.63096L9.60779 9.63093L9.60779 9.6309L9.60778 9.63087L9.60778 9.63085L9.60777 9.63082L9.60777 9.63079C9.55908 9.39661 9.51035 9.16221 9.47332 8.92597C9.45802 8.8283 9.45343 8.72814 9.44886 8.62825V8.62823C9.44215 8.48178 9.43548 8.3359 9.39509 8.19924C9.34929 8.04344 9.32824 7.88439 9.3072 7.72533V7.72533V7.72531C9.28504 7.55789 9.26289 7.39047 9.21186 7.22683C9.15367 7.04062 9.11252 6.84915 9.07135 6.65764C9.03242 6.47651 8.99348 6.29534 8.94011 6.11855C8.80534 5.67396 8.65817 5.23339 8.51102 4.79287L8.51099 4.79278L8.51096 4.7927L8.51093 4.79261L8.5109 4.79253C8.44754 4.60283 8.38417 4.41314 8.32181 4.22314L8.22916 3.96512L7.80712 2.93644C7.79271 2.91894 7.77813 2.90161 7.76355 2.88428C7.74896 2.86695 7.73438 2.84963 7.71997 2.83213L7.60262 2.51302C7.59611 2.50617 7.58942 2.49948 7.58273 2.49279L7.58272 2.49278C7.57603 2.48609 7.56934 2.4794 7.56282 2.47254C7.54292 2.41953 7.52378 2.36608 7.50463 2.3126C7.46106 2.19087 7.41741 2.06896 7.36449 1.95168C7.25047 1.69991 7.1305 1.45074 7.01061 1.20171L7.01059 1.20167L7.01057 1.20165L7.01056 1.20162L7.01055 1.2016L7.01054 1.20157L7.01053 1.20154L7.01051 1.20152L7.01051 1.20151L7.01051 1.20151L7.01051 1.2015L7.0105 1.20149L7.0105 1.20149L7.0105 1.20148L7.01049 1.20147L7.01049 1.20147L7.01049 1.20146L7.01049 1.20146L7.01048 1.20145L7.01048 1.20144L7.01048 1.20144L7.01047 1.20142L7.01044 1.20135L7.01038 1.20124L7.01033 1.20112C6.96724 1.11164 6.92417 1.02217 6.88138 0.932605C6.86765 0.914077 6.85393 0.895548 6.84089 0.877019C6.74962 0.768593 6.77776 0.726046 6.90883 0.661539C7.20473 0.515806 7.49426 0.357004 7.78961 0.195015L7.78962 0.195012L7.78962 0.195007L7.78963 0.195002L7.78965 0.194995L7.78966 0.194988L7.78968 0.194979L7.78969 0.19497C7.90598 0.131187 8.02317 0.0669115 8.14201 0.00274497C8.21143 0.140732 8.28215 0.278327 8.35293 0.416034C8.51165 0.72485 8.67067 1.03423 8.8159 1.34984C8.98536 1.7182 9.14411 2.09149 9.30286 2.46482L9.30288 2.46487C9.38841 2.666 9.47395 2.86713 9.56116 3.06751C9.57612 3.10163 9.60126 3.13098 9.6264 3.16032C9.63817 3.17405 9.64994 3.18779 9.66067 3.20201L9.7039 3.29534C9.74724 3.43656 9.7909 3.57771 9.83457 3.71888L9.83466 3.71917L9.83469 3.71928L9.83474 3.71945C9.93277 4.03634 10.0308 4.35331 10.1253 4.67126C10.1921 4.8956 10.2566 5.12054 10.3212 5.34543L10.3213 5.34565C10.4252 5.70749 10.529 6.0692 10.642 6.42804C10.8226 7.0019 10.9135 7.59295 11.0044 8.18368L11.0044 8.1837C11.0482 8.46822 11.0919 8.75267 11.1457 9.03509C11.1924 9.28013 11.2052 9.53101 11.218 9.78221C11.2276 9.96998 11.2372 10.1579 11.261 10.3438C11.3357 10.9248 11.322 11.5063 11.3084 12.0877V12.0877V12.0877V12.0877V12.0877V12.0877V12.0877V12.0877V12.0877V12.0877V12.0877V12.0877V12.0878V12.0878V12.0878V12.0878V12.0878V12.0878V12.0878V12.0878V12.0878V12.0878V12.0878V12.0879V12.0879V12.0879V12.0879V12.0879V12.0879V12.0879C11.2995 12.4678 11.2906 12.8477 11.3063 13.2273C11.2908 13.2445 11.2756 13.2618 11.2603 13.2792L11.2602 13.2793C11.245 13.2966 11.2297 13.3139 11.2143 13.331C11.2188 13.3668 11.2251 13.4027 11.2313 13.4386C11.2452 13.5182 11.2591 13.5976 11.2534 13.6762C11.2487 13.7466 11.2444 13.8172 11.2401 13.8878L11.2401 13.8879L11.2401 13.8879L11.2401 13.888L11.2401 13.8881L11.2401 13.8882L11.2401 13.8882L11.2401 13.8883L11.2401 13.8884C11.2214 14.1948 11.2027 14.5024 11.1464 14.8023C11.1038 15.0289 11.0747 15.2573 11.0456 15.4856L11.0456 15.4856L11.0456 15.4856L11.0456 15.4857L11.0455 15.4857L11.0455 15.4857L11.0455 15.4857L11.0455 15.4857L11.0455 15.4858L11.0455 15.4858L11.0455 15.4858L11.0455 15.4858L11.0455 15.4858L11.0455 15.4858L11.0455 15.4859L11.0455 15.4859L11.0455 15.4859L11.0455 15.4859L11.0455 15.4859L11.0455 15.4859L11.0455 15.486L11.0455 15.486L11.0455 15.486L11.0455 15.486L11.0455 15.486L11.0455 15.486L11.0455 15.4861L11.0455 15.4861L11.0455 15.4861L11.0455 15.4861L11.0455 15.4861L11.0455 15.4861C11.0057 15.7983 10.9659 16.1103 10.8918 16.417C10.8721 16.4252 10.8523 16.433 10.8325 16.441L10.7964 16.4554L10.8396 16.5234C10.816 16.639 10.793 16.7547 10.77 16.8705C10.7176 17.1349 10.6651 17.3994 10.6049 17.6619C10.3071 18.9595 9.85144 20.2058 9.3498 21.4355C9.30118 21.5545 9.23958 21.6679 9.17794 21.7814L9.17791 21.7814L9.17789 21.7815L9.17786 21.7815L9.17784 21.7816L9.17781 21.7816C9.14988 21.833 9.12194 21.8845 9.0952 21.9365L8.99638 21.9612L8.99675 21.9618L9.0952 21.9372L9.08019 21.9626C9.0667 21.9855 9.05332 22.0081 9.0403 22.0312L9.04017 22.031C9.00659 22.1488 8.97301 22.2667 8.93942 22.3853L8.90031 22.4409C8.65844 22.94 8.41656 23.4384 8.16456 23.9578L8.14407 24C7.86083 23.8489 7.58042 23.6997 7.30221 23.5516L6.77433 23.2705C6.92115 22.9709 7.06131 22.6844 7.19923 22.4024L7.40704 21.9776C7.41769 21.9633 7.42793 21.9489 7.43839 21.9342L7.44753 21.9214C7.4771 21.8687 7.508 21.8166 7.5389 21.7644C7.60983 21.6448 7.68078 21.5251 7.73575 21.3985C7.82367 21.1953 7.8941 20.9849 7.96442 20.7749L7.99721 20.6772C8.06995 20.4628 8.14313 20.2486 8.21631 20.0343L8.21641 20.0341L8.21644 20.034C8.44426 19.367 8.6721 18.7 8.88658 18.029C8.97037 17.7661 9.03268 17.4966 9.09498 17.2272C9.12911 17.0796 9.16323 16.932 9.20088 16.7855C9.24351 16.6197 9.29096 16.4548 9.3384 16.29L9.33841 16.2899L9.33843 16.2899L9.33845 16.2898L9.33846 16.2897L9.33848 16.2897L9.3385 16.2896L9.33852 16.2896L9.33853 16.2895L9.33855 16.2894L9.33857 16.2894L9.33858 16.2893L9.3386 16.2892L9.33862 16.2892L9.33864 16.2891L9.33865 16.2891L9.33867 16.289L9.33869 16.2889L9.3387 16.2889L9.33872 16.2888L9.33874 16.2887L9.33876 16.2887L9.33877 16.2886L9.33879 16.2885L9.33881 16.2885L9.33882 16.2884L9.33884 16.2884L9.33886 16.2883L9.33888 16.2882L9.33889 16.2882L9.33892 16.2881L9.33894 16.288L9.33896 16.2879L9.33898 16.2879L9.33901 16.2878L9.33903 16.2877C9.36085 16.2119 9.38267 16.136 9.40401 16.0602L9.44724 15.9572L9.44656 15.9565C9.45245 15.8923 9.45798 15.8281 9.46351 15.7639L9.46352 15.7638L9.46354 15.7637L9.46355 15.7635L9.46356 15.7634L9.46357 15.7632ZM5.22204 11.2112L5.20283 11.2112L5.20852 11.2089C5.21188 11.2077 5.21515 11.2065 5.21778 11.2047L5.22204 11.2112ZM5.20351 12.7758H0.587153C0.558331 12.7724 0.529508 12.7689 0.500686 12.7648V11.2208L0.500758 11.2208L0.503723 11.2202L0.5 11.2208V11.1693L0.500071 11.1694C0.517204 11.1831 0.534336 11.1968 0.551468 11.2112L0.54843 11.2118L0.552155 11.2112L5.20283 11.2112V11.2105V11.1821C5.07803 10.9936 4.9606 10.8157 4.84675 10.6433C4.73371 10.4721 4.6242 10.3063 4.51453 10.1406C4.50835 10.1348 4.502 10.1291 4.49565 10.1235C4.48931 10.1178 4.48296 10.1121 4.47678 10.1063C4.48296 10.1032 4.48931 10.1003 4.49565 10.0974C4.502 10.0945 4.50835 10.0916 4.51453 10.0885L5.01274 9.74728L5.0142 9.74628L5.01613 9.74496L5.01648 9.74472L5.02084 9.74174C5.26181 9.57677 5.50757 9.40852 5.76486 9.23204C5.83194 9.3293 5.89857 9.42522 5.96467 9.52038C6.11498 9.73675 6.26256 9.94921 6.4065 10.1646C6.54189 10.3676 6.67564 10.5716 6.80938 10.7756L6.80942 10.7757L6.80944 10.7757L6.80946 10.7757L6.80949 10.7758L6.80951 10.7758L6.80953 10.7758L6.80956 10.7759L6.80958 10.7759L6.8096 10.7759L6.80962 10.776L6.80965 10.776L6.80967 10.776L6.80969 10.7761L6.80972 10.7761L6.80974 10.7761L6.80976 10.7762L6.80978 10.7762L6.80981 10.7762L6.80983 10.7763L6.80985 10.7763L6.80988 10.7763L6.8099 10.7764L6.80992 10.7764L6.80994 10.7764L6.80997 10.7765L6.80999 10.7765L6.81001 10.7765L6.81004 10.7766L6.81006 10.7766L6.81008 10.7767L6.8101 10.7767L6.81013 10.7767L6.81015 10.7768C7.0334 11.1173 7.25661 11.4577 7.48733 11.7931C7.58752 11.9386 7.5985 12.0333 7.49557 12.1843C7.05088 12.8381 6.61351 13.4968 6.1675 14.1685L6.16743 14.1686L6.16736 14.1687L6.16729 14.1688C6.03383 14.3698 5.8996 14.572 5.76417 14.7755L5.4902 14.5828L5.48895 14.582L5.4852 14.5793L5.48442 14.5788C5.16261 14.3524 4.83912 14.1249 4.51521 13.8978V13.8457L5.20351 12.779V12.7758ZM5.20494 12.7758L5.20542 12.776L5.20557 12.7758H5.20494ZM5.22067 12.7833C5.22067 12.7852 5.22091 12.7872 5.22114 12.7892C5.22159 12.7931 5.22203 12.7969 5.22067 12.7991C5.22234 12.7975 5.22198 12.794 5.22159 12.7903C5.22135 12.788 5.22109 12.7855 5.22136 12.7833H5.22067ZM5.2092 12.8051C5.20731 12.8058 5.20538 12.8065 5.20351 12.8074L5.2092 12.8051ZM5.21998 11.1871L5.20283 11.1789V11.1782L5.21998 11.1865L5.22017 11.1893L5.22061 11.1923C5.2211 11.1955 5.22158 11.1986 5.22075 11.2009C5.22108 11.1988 5.22077 11.196 5.22045 11.1932C5.22022 11.1911 5.21998 11.189 5.21998 11.1871ZM24.4592 12.7765C25.2396 12.776 26.02 12.7755 26.8003 12.7751L26.8017 12.7758C26.8102 12.7741 26.8188 12.7725 26.8274 12.771C26.836 12.7695 26.8445 12.7679 26.8531 12.7662V11.2221C26.8446 11.2204 26.836 11.2189 26.8274 11.2173L26.8274 11.2173L26.8122 11.2146L26.8017 11.2125C25.2583 11.2118 23.7142 11.2112 22.1709 11.2112L22.1688 11.21C22.1681 11.1939 22.1676 11.1781 22.1671 11.1623L22.1655 11.1165L22.1675 11.1137L22.8249 10.0967L22.2381 9.70847L21.5512 9.254C21.5396 9.26335 21.5299 9.27037 21.5219 9.2762C21.5081 9.2862 21.4992 9.29268 21.4936 9.30135L21.1707 9.78366L21.1706 9.78379L21.1705 9.78393L21.1704 9.78407L21.1704 9.78421L21.1703 9.78434L21.1702 9.78448L21.1701 9.78462L21.17 9.78475L21.1699 9.78489L21.1698 9.78503L21.1697 9.78517L21.1696 9.7853L21.1695 9.78544L21.1694 9.78558L21.1693 9.78572L21.1693 9.78585L21.1692 9.78599L21.1691 9.78613L21.169 9.78627L21.1689 9.7864L21.1688 9.78654L21.1687 9.78668L21.1686 9.78681L21.1685 9.78695L21.1684 9.78709L21.1683 9.78723L21.1683 9.78736L21.1682 9.7875L21.1681 9.78764L21.168 9.78778L21.1679 9.78791L21.1678 9.78805C20.6949 10.4943 20.2222 11.2004 19.7539 11.9098C19.7237 11.9551 19.7251 12.0559 19.7553 12.1026C20.3084 12.9446 20.867 13.7839 21.4291 14.6197C21.4942 14.7165 21.567 14.7597 21.7001 14.6582C22.0034 14.4269 22.3191 14.2073 22.6519 14.0234C22.8407 13.9191 22.7906 13.8189 22.7164 13.7043C22.5777 13.4906 22.4338 13.2804 22.2898 13.0702C22.2322 12.9861 22.1746 12.902 22.1174 12.8177L22.1161 12.8165C22.1174 12.8032 22.118 12.7906 22.1174 12.7779L22.118 12.7779L22.118 12.7779C22.8983 12.7775 23.6787 12.777 24.4592 12.7765ZM22.116 12.7781L22.0988 12.78C22.0927 12.7807 22.0867 12.7815 22.0808 12.7825L22.0946 12.781C22.1019 12.7801 22.109 12.7792 22.116 12.7781ZM0.50012 12.7655L0.5 12.7655V12.817C0.528822 12.8039 0.557644 12.7902 0.586467 12.7765C0.557684 12.7724 0.528902 12.7689 0.50012 12.7655ZM12.9045 0.371944H14.3957L12.8606 0.413101L12.8606 0.412432C12.875 0.398708 12.8894 0.384983 12.9045 0.371258V0.371944ZM12.8606 0.413118L14.3957 0.371944L14.439 0.413119C14.44 0.447199 14.4413 0.481279 14.4427 0.515359L14.4427 0.515733C14.4456 0.5927 14.4486 0.669666 14.4486 0.746633V23.239C14.4486 23.3159 14.4456 23.3929 14.4427 23.4699L14.44 23.5407L14.439 23.5725C14.4246 23.5862 14.4102 23.5999 14.3951 23.6136H12.9039L12.8606 23.5725C12.865 23.4255 12.8706 23.2787 12.8762 23.1318L12.8762 23.1318C12.8881 22.8212 12.9 22.5108 12.9004 22.2C12.9032 15.4034 12.9032 8.60687 12.9004 1.81031C12.9004 1.49412 12.8884 1.17793 12.8764 0.861741C12.8707 0.7122 12.8651 0.562659 12.8606 0.413118ZM10.8403 16.5241L10.7971 16.4561C10.8168 16.448 10.8365 16.4401 10.8564 16.4322L10.8925 16.4177L10.841 16.5241H10.8403ZM18.2655 6.22903C18.2778 6.19404 18.2902 6.15904 18.3025 6.12472L18.3869 6.18443C18.3465 6.19953 18.306 6.21462 18.2655 6.22903ZM19.4641 2.97024L19.4534 2.98585C19.4626 2.97316 19.4716 2.96012 19.4804 2.94724L19.4911 2.93163C19.4818 2.94432 19.4729 2.95736 19.4641 2.97024ZM4.51453 13.8457V13.8978C4.50835 13.892 4.502 13.8863 4.49565 13.8807C4.48931 13.875 4.48296 13.8693 4.47678 13.8635C4.48289 13.8604 4.48918 13.8576 4.49546 13.8547L4.49548 13.8547L4.4955 13.8546L4.49553 13.8546L4.49558 13.8546L4.49565 13.8546L4.49572 13.8545C4.50204 13.8516 4.50837 13.8487 4.51453 13.8457ZM6.88069 0.932605C6.86766 0.914089 6.85395 0.895574 6.84023 0.877058L6.84021 0.877019C6.85323 0.895535 6.86695 0.914051 6.88067 0.932567L6.88069 0.932605ZM7.40567 21.9776L7.4148 21.9648C7.42527 21.9501 7.43551 21.9357 7.44616 21.9214L7.43703 21.9342C7.42656 21.9489 7.41632 21.9633 7.40567 21.9776ZM14.3957 23.6143C14.4102 23.6006 14.4246 23.5869 14.4397 23.5732C14.4253 23.5869 14.4108 23.6006 14.3957 23.6143Z" fill="url(#paint0_linear_15132_842)"/>
<defs>
<linearGradient id="paint0_linear_15132_842" x1="0.5" y1="12" x2="26.8531" y2="12" gradientUnits="userSpaceOnUse">
<stop stop-color="#57D7FF"/>
<stop offset="0.317708" stop-color="#C557FF"/>
<stop offset="0.692708" stop-color="#7555FF"/>
<stop offset="1" stop-color="#8281FD"/>
</linearGradient>
</defs>
</svg>
